<?xml version="1.0" encoding="UTF-8"?><svg id="Layer_2" xmlns="http://www.w3.org/2000/svg" viewBox="0 0 116.9 25.22"><defs><style>.cls-1{fill:#ff7171;}</style></defs><g id="OBJECTS"><path class="cls-1" d="M9.73,20.36c3.28.61,7.25-.06,9.44-2.75.44.09.89.16,1.36.2,3.27.26,6.19-1.25,8.65-3.26,2.82-2.3,5.1-5.04,8.15-7.09,5.76-3.86,12.98-5.52,19.67-3.51-4.85,2.25-8.44,7.08-7.61,12.6.73,4.84,5,9.32,10.19,8.6.63-.09,1.24-.27,1.82-.53.78-.31,1.55-.75,2.27-1.34,4.36-3.56,5.14-9.81,2.07-14.48-1.44-2.19-3.5-3.78-5.85-4.87,6.67-2.11,13.92-.21,19.67,3.53,5.57,3.63,9.38,10.65,16.81,10.35.42-.02.87-.08,1.34-.19,2.11,2.75,6.25,3.27,9.45,2.74,4.64-.76,8.37-4.03,9.73-8.51.03-.11-.14-.18-.18-.08-2.08,4.71-6.5,7.94-11.71,8.01-2.05.03-4.2-.52-5.8-1.83-.22-.18-.42-.37-.6-.58,3.11-1.02,6.35-3.74,5.37-7.09-.67-2.28-3.52-3.33-5.58-2.33-2.91,1.42-2.54,6.21-1.27,8.72-1.32.19-2.71.1-4.01-.25-3.51-.94-6-3.87-8.51-6.29-2.54-2.44-5.5-4.44-8.7-5.9-5.46-2.49-11.78-2.99-17.42-.91-2.54-.93-5.3-1.35-7.89-1.33-7.02.06-13.64,3.65-18.6,8.42-2.59,2.49-5.01,5.14-8.61,6.1-1.19.32-2.43.37-3.61.17,1.4-2.53,1.53-7.22-1.27-8.75-2.09-1.15-4.83.17-5.58,2.33-.47,1.37.07,2.83.87,3.95,1.14,1.59,2.69,2.6,4.46,3.14-.24.28-.5.54-.81.78-3.55,2.72-8.95,1.79-12.45-.48-2.14-1.4-3.79-3.58-4.81-5.9-.05-.1-.21-.03-.18.08,1.37,4.55,5.08,7.65,9.73,8.51ZM97.14,12.14c.05-1.52.68-3.16,2.27-3.6,1.16-.32,2.41.23,3.18,1.09,1.03,1.17.56,2.74-.22,3.89-1.06,1.57-2.63,2.53-4.36,2.96-.72-1.29-.91-2.85-.86-4.35ZM65.71,19.18c-.31.7-.75,1.37-1.27,1.97-1.99,1.82-4.2,3.43-7.07,2.97-1.74-.35-3.26-1.48-4.64-2.72-.61-.68-1.14-1.44-1.54-2.22-1.47-2.87-1.05-6.59.51-9.31,1.47-2.56,4.07-4.32,6.76-5.43,5.85,2.32,10.06,8.46,7.24,14.73ZM14.42,13.35c-.8-1.19-1-2.68,0-3.82.78-.89,2.08-1.26,3.22-.95,1.64.45,2.09,2.34,2.14,3.81.05,1.47-.21,2.9-.91,4.11-1.78-.49-3.38-1.56-4.45-3.15Z"/><path class="cls-1" d="M61.14,1.47c4.27-1.11,8.43-1.12,12.63.27,3.51,1.16,6.63,3.12,9.42,5.52,2.23,1.91,4.24,4.08,6.52,5.92,1.63,1.32,3.5,2.33,5.65,2.15.04,0,.04-.06,0-.06-2.7-.15-4.82-1.84-6.72-3.6-2.29-2.12-4.37-4.44-6.87-6.32-5.71-4.31-13.8-7.14-20.68-4-.08.04-.02.16.06.14Z"/><path class="cls-1" d="M27.19,13.18c2.31-1.81,4.3-4.01,6.52-5.92,2.81-2.42,5.91-4.29,9.42-5.52,4.15-1.45,8.4-1.37,12.63-.27.08.02.14-.1.06-.14-6.75-3.08-14.7-.4-20.37,3.77-2.54,1.87-4.68,4.18-6.95,6.34-1.95,1.85-4.16,3.67-6.96,3.82-.04,0-.04.06,0,.06,2.17.19,3.99-.85,5.65-2.15Z"/><path class="cls-1" d="M70.22,12.77c1.49,1.29,3.81,1.43,4.89-.4,1.23-2.09-.73-4.82-2.28-6.09-2.25-1.83-5.57-1.98-8.32-1.8-.05,0-.1.02-.13.05-.02,0-.04-.01-.06-.02-.25-.05-.35.31-.11.39,1.72.54,2.56,2.62,3.34,4.08.73,1.38,1.48,2.76,2.67,3.8ZM66.14,5.53c.93.29,1.78.7,2.62,1.18,1.63.95,2.84,2.14,3.71,3.8,0,.02.03,0,.03-.01-.33-1.67-1.83-3.08-3.13-4.05-.37-.28-1.31-.9-2.24-1.31,1.59.17,3.14.52,4.54,1.34,1.69.99,4.46,4.59,2,6.2-2.37,1.55-4.62-2.54-5.49-4.09-.57-1.02-1.18-2.22-2.05-3.07Z"/><path class="cls-1" d="M76.75,7.68s-.09-.03-.13-.03c-.01-.01-.02-.02-.03-.03-.19-.18-.45.09-.28.28,1.15,1.35.69,3.64.59,5.25-.08,1.34-.15,2.82.4,4.08.61,1.38,2.07,2.64,3.66,1.92,2.03-.93,2.07-3.6,1.65-5.47-.64-2.82-3.47-4.75-5.85-6.01ZM79.65,18.46c-2.16-.4-2.06-3.72-2.01-5.31.03-1.11.18-2.39-.04-3.55.42.64.9,1.27,1.22,1.96.73,1.56.86,3.23,1.15,4.9,0,.03.05.02.05,0,.11-1.73-.13-3.46-.8-5.06-.26-.62-.6-1.45-1.07-2.12,1.49,1.12,2.82,2.41,3.51,4.2.58,1.49.55,5.45-2.01,4.98Z"/><path class="cls-1" d="M84.47,13.64s-.07-.03-.11-.03c0,0-.01-.02-.02-.03-.15-.17-.45.06-.32.24.03.04.05.08.07.11,0,.03.03.06.05.08.71,1.29.16,3.14-.06,4.48-.2,1.23-.32,2.46.03,3.67.39,1.37,1.69,2.34,3.11,1.94,1.78-.5,2.19-3.05,1.93-4.56-.47-2.65-2.51-4.5-4.67-5.91ZM85.93,23.23c-1.85-.82-1.2-3.94-1-5.42.12-.91.27-1.89.1-2.79,1.22,1.97,1.56,4.32,1.56,6.64,0,.03.04.03.05,0,.28-1.3.11-2.7-.12-3.99-.11-.62-.31-1.46-.67-2.16.99.96,1.84,2.03,2.3,3.37.44,1.29.15,5.38-2.21,4.33Z"/><path class="cls-1" d="M96.84,19.89c-.69-.61-1.64-.84-2.52-1.02-1.19-.25-3.12-.22-3.93-1.3-.15-.2-.46-.04-.35.19,0,.04-.01.08,0,.13.39,1.71,1.12,3.73,2.62,4.79,1.28.9,3.2,1.44,4.52.35,1.07-.88.5-2.38-.35-3.14ZM93.36,22.13c-1.14-.68-1.81-1.92-2.33-3.15.44.47.97.88,1.42,1.24.72.57,1.55,1,2.47,1.11.02,0,.02-.03,0-.03-1.07-.31-1.92-.83-2.73-1.58-.25-.23-.47-.5-.7-.76.5.19,1.06.31,1.58.44,1.27.32,3.7.52,3.86,2.23.18,1.87-2.81.96-3.57.51Z"/><path class="cls-1" d="M52.69,4.89c.25-.08.15-.44-.11-.39-.02,0-.04.01-.06.02-.04-.02-.08-.04-.13-.05-2.82-.18-5.87.04-8.23,1.74-1.82,1.31-3.35,3.94-2.37,6.16.88,1.99,3.42,1.5,4.81.47,1.16-.86,1.89-2.24,2.56-3.49.84-1.55,1.69-3.87,3.54-4.46ZM48.72,8.61c-.99,1.77-2.93,5.36-5.49,4.09-1.05-.52-1-1.88-.74-2.83.4-1.41,1.55-2.59,2.74-3.37,1.35-.89,3-1.22,4.64-1.37-.82.35-1.64.88-2.01,1.11-1.45.92-3.11,2.53-3.46,4.28,0,.02.02.03.03.01.88-1.69,2.09-2.81,3.71-3.8.73-.45,1.5-.81,2.31-1.09.1-.03.2-.06.31-.09-.87.85-1.47,2.05-2.04,3.07Z"/><path class="cls-1" d="M40.32,7.62s-.02.02-.03.03c-.04,0-.09,0-.13.03-2.53,1.33-4.98,3.16-5.85,6.01-.56,1.82-.3,4.58,1.65,5.47,1.58.72,3.05-.54,3.66-1.92.5-1.13.47-2.43.43-3.64-.07-1.73-.68-4.24.57-5.69.17-.19-.09-.46-.28-.28ZM37.26,18.46c-2.42.71-2.42-3.28-2.14-4.55.45-1.98,2.03-3.46,3.67-4.67-.46.66-.8,1.48-1.08,2.11-.71,1.6-.93,3.38-.82,5.12,0,.03.04.04.05,0,.29-1.69.45-3.32,1.15-4.9.31-.71.79-1.34,1.22-1.98-.19,1.02-.1,2.14-.06,3.13.08,1.85.3,5.08-1.99,5.75Z"/><path class="cls-1" d="M32.76,14.01s.04-.05.05-.08c.02-.04.04-.08.07-.12.13-.19-.17-.41-.32-.24,0,0-.01.02-.02.03-.04,0-.07.01-.11.03-2.16,1.4-4.2,3.26-4.67,5.91-.3,1.7.2,3.85,1.92,4.56,1.44.59,2.66-.74,3.11-1.94.38-1.01.25-2.2.09-3.23-.22-1.46-.9-3.52-.12-4.92ZM30.98,23.23c-2.16,1.25-2.51-2.85-2.32-3.9.27-1.54,1.3-2.8,2.46-3.88-.32.61-.51,1.34-.65,1.91-.33,1.36-.49,2.94-.19,4.32,0,.03.05.02.05,0,0-2.34.34-4.7,1.58-6.68-.51,2.73,1.82,6.65-.92,8.24Z"/><path class="cls-1" d="M26.85,17.76c.1-.23-.2-.39-.35-.19-.74.99-2.47,1.04-3.57,1.23-.99.17-1.96.41-2.78,1.02-.92.68-1.45,2.13-.56,3.07,1.17,1.22,3.11.73,4.39-.04,1.68-1,2.48-3.17,2.88-4.97.01-.05,0-.09,0-.13ZM23.97,21.81c-.87.78-3.51,1.75-3.99.04-.46-1.63,2.5-2.19,3.5-2.4.61-.13,1.29-.25,1.89-.48-.22.25-.44.51-.66.73-.79.76-1.68,1.28-2.73,1.58-.02,0-.02.04,0,.03.93-.11,1.71-.54,2.45-1.09.45-.33.98-.75,1.42-1.22-.46,1.04-1.01,2.03-1.88,2.8Z"/><path class="cls-1" d="M72.59,18.24c-.78-.45-2.11-.17-2.58.62-.92,1.55.81,3.43,2.11,1.8.07-.09,0-.24-.12-.21-.65.17-1.44.38-1.53-.54-.12-1.22,1.5-1.31,2.2-.7.89.78.53,2.34-.16,3.08-.79.85-2.08.66-2.9,0-1.92-1.55-.49-4.64-.3-6.66.14-1.45-.08-3.03-1.32-3.93-.04-.03-.1.03-.07.07,2.55,3.43-1.65,7.55.94,10.81,1.57,1.98,4.54.94,5.01-1.36.24-1.16-.26-2.39-1.28-2.98Z"/><path class="cls-1" d="M48.91,11.7c-3.48,2.54.96,7.49-1.39,10.36-1.65,2.01-4.19.06-3.69-2.13.29-1.26,2.23-1.59,2.58-.27.29,1.09-.87.96-1.51.79-.13-.03-.2.12-.12.21,1.25,1.57,2.87-.08,2.2-1.64-.33-.78-1.48-1.16-2.25-.92-1.34.42-1.84,1.69-1.72,3.02.23,2.47,3.1,3.11,4.79,1.69,1.28-1.06,1.29-2.73.93-4.2-.54-2.23-1.26-4.83.24-6.84.03-.04-.03-.1-.07-.07Z"/><path class="cls-1" d="M15.94,17.77c.07.02.12-.08.05-.12-2.3-1.4-4.73-3.27-4.88-6.17-.12-2.33,1.54-3.69,3.42-4.65.03-.01.01-.05-.01-.05-2.37-.01-3.99,2.29-4.14,4.47-.23,3.28,2.71,5.71,5.56,6.53Z"/><path class="cls-1" d="M18.32,19.82c-1.54,1.06-3.26,1.75-4.96,2.52-.07.03-.03.15.04.15,2.04-.06,3.89-.8,4.95-2.63.01-.02-.01-.05-.04-.04Z"/><path class="cls-1" d="M45.15,15.14s.02-.06-.01-.06c-.59.08-1.13.05-1.71-.08-.65-.14-1.23-.64-1.84-.9-.05-.02-.13.01-.1.08.6,1.49,2.41,1.92,3.66.95Z"/><path class="cls-1" d="M35.86,20.69c-.55-.19-1.13-.71-1.57-1.1-.04-.04-.11,0-.1.06.15.78.55,1.2,1.27,1.53.58.27,1.28.3,1.84-.04.02-.01.02-.05,0-.05-.48-.14-.97-.23-1.44-.4Z"/><path class="cls-1" d="M26.61,21.84s-.09-.04-.11,0c-.52,1.06-.05,2.85,1.06,3.37.02.01.05-.01.03-.03-.29-.51-.49-1.06-.61-1.63-.13-.58-.09-1.16-.37-1.7Z"/><path class="cls-1" d="M105.79,11.47c0,2.87-2.68,4.83-4.88,6.17-.06.04-.02.14.05.12,2.91-.84,5.48-3.08,5.57-6.29.06-2.26-1.76-4.72-4.15-4.7-.03,0-.04.04-.01.05,1.95.99,3.42,2.29,3.42,4.65Z"/><path class="cls-1" d="M98.58,19.82s-.05.02-.04.04c1.06,1.83,2.91,2.57,4.95,2.63.07,0,.11-.11.04-.15-1.7-.77-3.42-1.45-4.96-2.52Z"/><path class="cls-1" d="M75.31,14.1c-.57.24-1.07.62-1.65.84-.6.23-1.27.21-1.9.13-.03,0-.03.04-.01.06,1.25.97,3.07.54,3.66-.95.03-.06-.05-.1-.1-.08Z"/><path class="cls-1" d="M82.61,19.6c-.39.35-.88.73-1.33.99-.51.29-1.12.36-1.68.51-.02,0-.03.04,0,.05.56.34,1.26.3,1.84.04.72-.33,1.12-.75,1.27-1.53.01-.06-.05-.09-.1-.06Z"/><path class="cls-1" d="M90.3,21.84c-.24.48-.25.99-.33,1.51-.1.63-.34,1.26-.65,1.82-.01.02.01.04.03.03,1.1-.51,1.58-2.3,1.06-3.37-.02-.04-.09-.04-.11,0Z"/><path class="cls-1" d="M58.44,8.33c-.07-.02-.16-.02-.25.03-2.76,1.47-5.47,4.19-5.52,7.52-.02,1.21.66,2.19,1.83,2.49,1.54.4,2.99-.72,3.94-1.84.91,1.08,2.21,2.09,3.69,1.88,1.32-.19,2.07-1.22,2.08-2.53.02-3.3-2.83-6.08-5.52-7.52-.09-.05-.17-.05-.25-.03ZM63.43,14.99c.19.89.18,1.93-.64,2.51-1.44,1.03-3.3-.64-4.12-1.68-.06-.08-.15-.1-.23-.09-.08-.01-.17.01-.23.09-.89,1.14-2.22,2.25-3.77,1.85-1.11-.29-1.17-1.59-1.02-2.51.46-2.83,2.76-4.71,5.02-6.17,2.26,1.47,4.39,3.25,4.99,6Z"/><path class="cls-1" d="M93.17,13.12c1.18.32,2.2-.78,1.92-1.92,0,0,0,0,0-.01-.16-.67-.83-1.14-1.5-1.14h-.01c-.43,0-.81.18-1.09.46,0,0,0,0,0,0,0,0,0,0-.01.01-.92.78-.37,2.32.69,2.61Z"/><path class="cls-1" d="M76.68,20.51c-.78,0-1.43.65-1.43,1.43s.65,1.43,1.43,1.43,1.43-.65,1.43-1.43-.65-1.43-1.43-1.43Z"/><path class="cls-1" d="M23.73,13.12c1.06-.29,1.61-1.83.69-2.61,0,0,0,0-.01-.01,0,0,0,0,0,0-.28-.28-.66-.46-1.09-.46h-.01c-.67,0-1.34.47-1.5,1.14,0,0,0,0,0,.01-.27,1.15.74,2.25,1.92,1.92Z"/><path class="cls-1" d="M40.23,20.51c-.78,0-1.43.65-1.43,1.43s.65,1.43,1.43,1.43,1.43-.65,1.43-1.43-.65-1.43-1.43-1.43Z"/></g></svg>