<?xml version="1.0" encoding="UTF-8"?><svg id="Layer_2" xmlns="http://www.w3.org/2000/svg" viewBox="0 0 157.36 106.38"><defs><style>.cls-1{font-family:DupincelRoman-SLight, 'Dupincel VF';font-size:46px;font-variation-settings:'wght' 300, 'opsz' 10;font-weight:300;}.cls-1,.cls-2{fill:#ff7171;}</style></defs><g id="OBJECTS"><path class="cls-2" d="M144.1,79.01c-4.42-.82-9.75.08-12.69,3.7-.6-.12-1.2-.22-1.82-.27-4.4-.35-8.33,1.69-11.64,4.39-3.79,3.09-6.86,6.78-10.96,9.53-7.74,5.2-17.46,7.43-26.45,4.72,6.53-3.03,11.35-9.52,10.23-16.95-.98-6.51-6.73-12.54-13.7-11.56-.85.12-1.67.37-2.45.71-1.05.41-2.08,1-3.06,1.8-5.86,4.79-6.91,13.2-2.79,19.47,1.93,2.94,4.71,5.08,7.86,6.55-8.97,2.83-18.72.28-26.45-4.75-7.49-4.87-12.61-14.32-22.6-13.92-.57.02-1.18.11-1.8.25-2.84-3.7-8.4-4.39-12.71-3.68C6.85,80.04,1.82,84.44,0,90.46c-.04.14.18.24.24.1,2.8-6.34,8.74-10.68,15.74-10.78,2.75-.04,5.65.7,7.8,2.47.3.24.56.5.8.78-4.18,1.37-8.54,5.02-7.21,9.54.9,3.07,4.73,4.48,7.5,3.13,3.91-1.91,3.41-8.35,1.71-11.72,1.78-.26,3.64-.14,5.39.33,4.72,1.26,8.07,5.2,11.45,8.45,3.41,3.28,7.4,5.97,11.7,7.93,7.35,3.35,15.84,4.02,23.42,1.22,3.41,1.26,7.12,1.81,10.61,1.78,9.44-.08,18.33-4.91,25.01-11.33,3.48-3.35,6.74-6.91,11.57-8.2,1.6-.43,3.27-.49,4.86-.23-1.88,3.4-2.05,9.71,1.7,11.77,2.81,1.54,6.5-.23,7.5-3.13.63-1.84-.09-3.81-1.17-5.31-1.53-2.13-3.62-3.5-5.99-4.22.32-.37.67-.73,1.09-1.05,4.77-3.66,12.04-2.41,16.73.65,2.88,1.88,5.09,4.81,6.47,7.93.06.14.29.04.24-.1-1.85-6.11-6.83-10.29-13.08-11.44ZM26.58,90.06c-.07,2.05-.91,4.25-3.05,4.84-1.56.43-3.24-.3-4.27-1.47-1.39-1.58-.75-3.68.29-5.23,1.42-2.12,3.53-3.4,5.86-3.98.97,1.73,1.23,3.83,1.16,5.85ZM68.84,80.6c.42-.94,1.01-1.84,1.71-2.65,2.68-2.45,5.64-4.61,9.5-3.99,2.34.47,4.39,2,6.23,3.66.83.92,1.53,1.94,2.07,2.98,1.98,3.85,1.41,8.87-.69,12.51-1.98,3.44-5.47,5.81-9.08,7.3-7.87-3.11-13.53-11.37-9.74-19.81ZM137.79,88.43c1.08,1.6,1.35,3.61,0,5.13-1.06,1.2-2.8,1.7-4.33,1.28-2.2-.6-2.82-3.14-2.88-5.13-.06-1.97.28-3.9,1.22-5.53,2.39.66,4.54,2.1,5.98,4.24Z"/><path class="cls-2" d="M74.98,104.4c-5.75,1.5-11.33,1.51-16.98-.36-4.72-1.56-8.91-4.19-12.66-7.42-2.99-2.57-5.7-5.48-8.77-7.96-2.2-1.77-4.71-3.14-7.6-2.89-.05,0-.06.08,0,.09,3.62.2,6.48,2.48,9.04,4.84,3.08,2.84,5.88,5.97,9.24,8.5,7.68,5.79,18.56,9.6,27.81,5.38.11-.05.03-.21-.08-.18Z"/><path class="cls-2" d="M120.62,88.67c-3.1,2.43-5.78,5.39-8.77,7.96-3.78,3.26-7.94,5.77-12.66,7.42-5.59,1.95-11.3,1.85-16.98.36-.11-.03-.18.13-.08.18,9.08,4.14,19.76.54,27.39-5.06,3.42-2.51,6.29-5.62,9.35-8.53,2.62-2.48,5.6-4.93,9.35-5.13.06,0,.05-.08,0-.09-2.92-.25-5.37,1.14-7.6,2.89Z"/><path class="cls-2" d="M62.76,89.21c-2-1.74-5.13-1.92-6.58.54-1.65,2.81.98,6.48,3.07,8.19,3.02,2.46,7.49,2.66,11.18,2.43.07,0,.13-.03.18-.06.03,0,.05.02.08.02.34.07.48-.42.14-.52-2.32-.73-3.44-3.53-4.49-5.49-.99-1.86-1.99-3.71-3.6-5.1ZM68.26,98.94c-1.25-.39-2.39-.94-3.53-1.59-2.19-1.27-3.81-2.87-4.99-5.12-.01-.02-.05,0-.04.02.44,2.25,2.46,4.14,4.21,5.45.5.37,1.76,1.21,3.01,1.76-2.13-.23-4.23-.7-6.11-1.81-2.27-1.33-5.99-6.18-2.69-8.34,3.19-2.08,6.21,3.41,7.38,5.5.77,1.37,1.58,2.99,2.75,4.13Z"/><path class="cls-2" d="M53.99,96.06c.06.03.12.04.18.04.01.01.03.03.04.04.26.24.61-.12.38-.38-1.55-1.81-.93-4.9-.8-7.06.11-1.8.21-3.79-.54-5.48-.82-1.85-2.79-3.55-4.92-2.58-2.73,1.24-2.79,4.84-2.21,7.35.87,3.79,4.67,6.39,7.87,8.07ZM50.09,81.56c2.91.54,2.77,5,2.7,7.13-.04,1.49-.24,3.22.06,4.77-.57-.86-1.21-1.7-1.64-2.63-.98-2.1-1.16-4.34-1.54-6.59,0-.04-.06-.03-.07,0-.14,2.33.18,4.65,1.08,6.81.35.84.81,1.94,1.44,2.85-2-1.5-3.79-3.24-4.72-5.65-.77-2-.74-7.33,2.7-6.69Z"/><path class="cls-2" d="M43.61,88.05s.1.04.15.05c0,.01.01.02.02.03.2.23.6-.07.42-.33-.03-.05-.06-.1-.09-.15-.01-.04-.03-.08-.07-.11-.96-1.73-.21-4.22.08-6.02.27-1.65.44-3.31-.03-4.94-.53-1.84-2.27-3.14-4.18-2.61-2.39.67-2.95,4.1-2.59,6.14.63,3.56,3.38,6.06,6.28,7.94ZM41.65,75.15c2.49,1.1,1.62,5.3,1.35,7.29-.17,1.22-.36,2.54-.13,3.75-1.65-2.65-2.1-5.81-2.1-8.93,0-.03-.05-.04-.06,0-.38,1.75-.14,3.62.17,5.37.15.83.41,1.97.9,2.9-1.33-1.29-2.48-2.72-3.09-4.53-.59-1.73-.21-7.23,2.97-5.83Z"/><path class="cls-2" d="M26.97,79.63c.93.82,2.21,1.13,3.38,1.37,1.6.33,4.19.29,5.28,1.75.2.27.61.05.47-.25.01-.05.01-.11,0-.17-.52-2.3-1.5-5.01-3.53-6.43-1.72-1.21-4.3-1.93-6.08-.47-1.43,1.18-.68,3.2.47,4.22ZM31.66,76.63c1.53.91,2.43,2.58,3.13,4.24-.59-.63-1.31-1.19-1.91-1.66-.97-.77-2.08-1.34-3.32-1.49-.03,0-.03.04,0,.04,1.44.41,2.58,1.12,3.67,2.13.33.31.64.67.94,1.03-.68-.26-1.42-.42-2.12-.59-1.71-.42-4.97-.71-5.19-3-.24-2.51,3.78-1.3,4.81-.69Z"/><path class="cls-2" d="M86.34,99.8c-.33.11-.2.59.14.52.03,0,.05-.02.08-.02.05.03.11.06.18.06,3.79.24,7.89-.05,11.07-2.34,2.44-1.76,4.51-5.3,3.19-8.28-1.19-2.68-4.6-2.01-6.46-.63-1.56,1.16-2.54,3.01-3.44,4.69-1.13,2.08-2.27,5.21-4.75,5.99ZM91.67,94.81c1.33-2.38,3.95-7.21,7.38-5.5,1.41.7,1.35,2.53.99,3.8-.53,1.9-2.08,3.48-3.68,4.53-1.81,1.19-4.03,1.64-6.23,1.84,1.11-.47,2.21-1.18,2.7-1.49,1.95-1.24,4.18-3.4,4.65-5.75,0-.02-.03-.04-.04-.02-1.19,2.27-2.81,3.78-4.99,5.12-.98.6-2.01,1.09-3.1,1.46-.13.05-.28.08-.42.12,1.16-1.15,1.98-2.76,2.74-4.13Z"/><path class="cls-2" d="M102.97,96.14s.03-.03.04-.04c.06,0,.12,0,.18-.04,3.41-1.79,6.69-4.25,7.87-8.07.75-2.44.41-6.16-2.21-7.35-2.13-.97-4.1.73-4.92,2.58-.67,1.52-.64,3.27-.58,4.89.09,2.32.91,5.7-.77,7.65-.22.26.13.62.38.38ZM107.09,81.56c3.26-.95,3.26,4.41,2.87,6.12-.6,2.67-2.73,4.65-4.94,6.28.62-.89,1.08-2,1.45-2.83.95-2.15,1.25-4.55,1.11-6.88,0-.04-.06-.05-.07,0-.39,2.27-.6,4.47-1.54,6.59-.42.95-1.07,1.8-1.65,2.66.26-1.37.14-2.87.09-4.2-.1-2.49-.4-6.82,2.68-7.73Z"/><path class="cls-2" d="M113.13,87.54s-.05.07-.06.1c-.03.05-.06.1-.09.15-.17.25.22.56.42.33,0-.01.02-.02.03-.03.05,0,.1-.01.15-.05,2.91-1.88,5.65-4.39,6.28-7.94.41-2.29-.27-5.18-2.59-6.14-1.93-.79-3.57,1-4.18,2.61-.51,1.35-.33,2.96-.12,4.35.29,1.96,1.21,4.74.16,6.62ZM115.53,75.15c2.9-1.69,3.37,3.83,3.12,5.24-.36,2.07-1.75,3.76-3.31,5.22.43-.82.68-1.8.87-2.57.45-1.83.66-3.95.26-5.8,0-.04-.06-.03-.06,0,0,3.14-.46,6.32-2.12,8.98.69-3.67-2.44-8.94,1.24-11.07Z"/><path class="cls-2" d="M121.07,82.5c-.14.3.27.52.47.25.99-1.33,3.32-1.4,4.81-1.66,1.33-.23,2.64-.56,3.74-1.37,1.23-.91,1.96-2.87.75-4.13-1.57-1.64-4.18-.98-5.9.05-2.25,1.35-3.33,4.27-3.88,6.68-.01.06-.01.12,0,.17ZM124.95,77.05c1.18-1.04,4.72-2.36,5.36-.06.61,2.19-3.36,2.95-4.7,3.23-.82.17-1.73.33-2.55.65.3-.34.59-.69.89-.98,1.06-1.03,2.26-1.72,3.67-2.13.02,0,.02-.05,0-.04-1.25.15-2.3.73-3.29,1.47-.6.45-1.32,1.01-1.9,1.64.61-1.4,1.35-2.73,2.52-3.77Z"/><path class="cls-2" d="M59.58,81.85c1.04.6,2.84.22,3.46-.83,1.24-2.09-1.09-4.62-2.83-2.42-.1.13-.01.33.16.28.88-.23,1.93-.52,2.06.72.17,1.64-2.02,1.76-2.96.94-1.2-1.05-.71-3.15.22-4.14,1.07-1.14,2.8-.89,3.9,0,2.58,2.09.66,6.24.4,8.96-.19,1.95.11,4.07,1.78,5.29.05.04.13-.04.09-.09-3.43-4.61,2.22-10.15-1.27-14.54-2.12-2.67-6.11-1.26-6.73,1.82-.32,1.56.35,3.21,1.72,4Z"/><path class="cls-2" d="M91.42,90.66c4.68-3.42-1.3-10.07,1.87-13.94,2.21-2.71,5.63-.08,4.96,2.86-.39,1.69-2.99,2.14-3.47.37-.4-1.46,1.17-1.29,2.04-1.07.18.05.26-.15.16-.28-1.68-2.11-3.85.11-2.96,2.2.45,1.05,1.99,1.56,3.03,1.24,1.81-.56,2.47-2.27,2.31-4.06-.31-3.32-4.16-4.18-6.45-2.27-1.71,1.43-1.73,3.67-1.25,5.65.73,3,1.7,6.49-.32,9.2-.04.05.04.13.09.09Z"/><path class="cls-2" d="M135.74,82.49c-.1-.03-.16.11-.07.17,3.09,1.88,6.36,4.39,6.56,8.3.16,3.13-2.07,4.97-4.59,6.25-.03.02-.02.07.02.07,3.19.02,5.36-3.08,5.57-6,.3-4.41-3.64-7.68-7.48-8.78Z"/><path class="cls-2" d="M132.54,79.73c2.07-1.43,4.38-2.35,6.66-3.39.1-.04.05-.2-.05-.2-2.74.08-5.23,1.07-6.66,3.53-.02.03.02.07.05.05Z"/><path class="cls-2" d="M96.47,86.03s-.02.08.02.07c.79-.1,1.52-.07,2.3.1.87.19,1.65.86,2.47,1.21.07.03.17-.02.14-.11-.8-2.01-3.24-2.58-4.93-1.28Z"/><path class="cls-2" d="M108.96,78.56c.73.26,1.53.96,2.11,1.47.06.05.14,0,.13-.07-.2-1.05-.74-1.62-1.71-2.06-.78-.36-1.73-.41-2.48.05-.03.02-.02.06,0,.07.65.18,1.3.31,1.94.54Z"/><path class="cls-2" d="M121.41,77.02c.03.05.12.06.15,0,.7-1.43.06-3.84-1.42-4.53-.03-.01-.06.01-.05.05.38.68.66,1.43.82,2.19.17.78.13,1.56.49,2.28Z"/><path class="cls-2" d="M14.95,90.96c.01-3.86,3.6-6.5,6.56-8.3.09-.05.03-.19-.07-.17-3.92,1.12-7.37,4.14-7.49,8.46-.08,3.04,2.37,6.34,5.57,6.32.04,0,.05-.05.02-.07-2.63-1.34-4.6-3.08-4.59-6.25Z"/><path class="cls-2" d="M24.64,79.73s.07-.02.05-.05c-1.43-2.46-3.92-3.46-6.66-3.53-.1,0-.15.15-.05.2,2.28,1.03,4.59,1.95,6.66,3.39Z"/><path class="cls-2" d="M55.92,87.42c.77-.33,1.44-.84,2.22-1.13.81-.31,1.71-.29,2.55-.18.04,0,.05-.05.02-.07-1.68-1.3-4.12-.73-4.93,1.28-.03.09.07.13.14.11Z"/><path class="cls-2" d="M46.11,80.03c.53-.47,1.18-.98,1.79-1.33.69-.39,1.51-.48,2.25-.69.03,0,.04-.05,0-.07-.75-.46-1.69-.41-2.48-.05-.97.45-1.51,1.01-1.71,2.06-.01.08.07.13.13.07Z"/><path class="cls-2" d="M35.77,77.02c.33-.65.33-1.33.44-2.03.14-.85.45-1.7.87-2.45.02-.03-.02-.06-.05-.05-1.48.69-2.12,3.1-1.42,4.53.03.06.12.05.15,0Z"/><path class="cls-2" d="M78.61,95.19c.1.03.21.02.33-.04,3.71-1.98,7.35-5.64,7.43-10.11.03-1.63-.89-2.94-2.46-3.35-2.07-.54-4.02.97-5.3,2.48-1.22-1.45-2.97-2.81-4.96-2.52-1.78.26-2.79,1.64-2.8,3.4-.03,4.44,3.8,8.18,7.43,10.11.12.06.23.07.33.04ZM71.9,86.22c-.26-1.19-.24-2.6.86-3.38,1.93-1.38,4.44.86,5.54,2.26.08.11.2.14.31.12.11.01.23-.02.31-.12,1.2-1.53,2.98-3.03,5.07-2.48,1.49.39,1.57,2.13,1.37,3.37-.61,3.8-3.71,6.33-6.75,8.3-3.04-1.97-5.9-4.36-6.71-8.07Z"/><path class="cls-2" d="M31.91,88.74c-1.59-.44-2.95,1.04-2.59,2.59,0,0,0,.01,0,.02.21.9,1.11,1.54,2.01,1.53h.01c.58,0,1.09-.24,1.47-.62,0,0,0,0,0,.01,0,0,.01,0,.02-.01,1.24-1.05.5-3.12-.93-3.51Z"/><path class="cls-2" d="M54.08,78.81c1.05,0,1.92-.87,1.92-1.92s-.87-1.92-1.92-1.92-1.92.87-1.92,1.92.87,1.92,1.92,1.92Z"/><path class="cls-2" d="M125.28,88.74c-1.43.39-2.16,2.47-.93,3.51,0,0,.01,0,.02.01,0,0,0,0,0-.01.37.38.89.62,1.47.62h.01c.9,0,1.8-.64,2.01-1.53,0,0,0-.01,0-.02.37-1.54-1-3.02-2.59-2.59Z"/><path class="cls-2" d="M103.1,78.81c1.05,0,1.92-.87,1.92-1.92s-.87-1.92-1.92-1.92-1.92.87-1.92,1.92.87,1.92,1.92,1.92Z"/><path class="cls-2" d="M13.27,27.37c4.42.82,9.75-.08,12.69-3.7.6.12,1.2.22,1.82.27,4.4.35,8.33-1.69,11.64-4.39,3.79-3.09,6.86-6.78,10.96-9.53,7.74-5.2,17.46-7.43,26.45-4.72-6.53,3.03-11.35,9.52-10.23,16.95.98,6.51,6.73,12.54,13.7,11.56.85-.12,1.67-.37,2.45-.71,1.05-.41,2.08-1,3.06-1.8,5.86-4.79,6.91-13.2,2.79-19.47-1.93-2.94-4.71-5.08-7.86-6.55,8.97-2.83,18.72-.28,26.45,4.75,7.49,4.87,12.61,14.32,22.6,13.92.57-.02,1.18-.11,1.8-.25,2.84,3.7,8.4,4.39,12.71,3.68,6.23-1.02,11.26-5.42,13.08-11.44.04-.14-.18-.24-.24-.1-2.8,6.34-8.74,10.68-15.74,10.78-2.75.04-5.65-.7-7.8-2.47-.3-.24-.56-.5-.8-.78,4.18-1.37,8.54-5.02,7.21-9.54-.9-3.07-4.73-4.48-7.5-3.13-3.91,1.91-3.41,8.35-1.71,11.72-1.78.26-3.64.14-5.39-.33-4.72-1.26-8.07-5.2-11.45-8.45-3.41-3.28-7.4-5.97-11.7-7.93-7.35-3.35-15.84-4.02-23.42-1.22-3.41-1.26-7.12-1.81-10.61-1.78-9.44.08-18.33,4.91-25.01,11.33-3.48,3.35-6.74,6.91-11.57,8.2-1.6.43-3.27.49-4.86.23,1.88-3.4,2.05-9.71-1.7-11.77-2.81-1.54-6.5.23-7.5,3.13-.63,1.84.09,3.81,1.17,5.31,1.53,2.13,3.62,3.5,5.99,4.22-.32.37-.67.73-1.09,1.05-4.77,3.66-12.04,2.41-16.73-.65-2.88-1.88-5.09-4.81-6.47-7.93-.06-.14-.29-.04-.24.1,1.85,6.11,6.83,10.29,13.08,11.44ZM130.79,16.32c.07-2.05.91-4.25,3.05-4.84,1.56-.43,3.24.3,4.27,1.47,1.39,1.58.75,3.68-.29,5.23-1.42,2.12-3.53,3.4-5.86,3.98-.97-1.73-1.23-3.83-1.16-5.85ZM88.53,25.78c-.42.94-1.01,1.84-1.71,2.65-2.68,2.45-5.64,4.61-9.5,3.99-2.34-.47-4.39-2-6.23-3.66-.83-.92-1.53-1.94-2.07-2.98-1.98-3.85-1.41-8.87.69-12.51,1.98-3.44,5.47-5.81,9.08-7.3,7.87,3.11,13.53,11.37,9.74,19.81ZM19.57,17.95c-1.08-1.6-1.35-3.61,0-5.13,1.06-1.2,2.8-1.7,4.33-1.28,2.2.6,2.82,3.14,2.88,5.13.06,1.97-.28,3.9-1.22,5.53-2.39-.66-4.54-2.1-5.98-4.24Z"/><path class="cls-2" d="M82.39,1.98c5.75-1.5,11.33-1.51,16.98.36,4.72,1.56,8.91,4.19,12.66,7.42,2.99,2.57,5.7,5.48,8.77,7.96,2.2,1.77,4.71,3.14,7.6,2.89.05,0,.06-.08,0-.09-3.62-.2-6.48-2.48-9.04-4.84-3.08-2.84-5.88-5.97-9.24-8.5-7.68-5.79-18.56-9.6-27.81-5.38-.11.05-.03.21.08.18Z"/><path class="cls-2" d="M36.74,17.72c3.1-2.43,5.78-5.39,8.77-7.96,3.78-3.26,7.94-5.77,12.66-7.42,5.59-1.95,11.3-1.85,16.98-.36.11.03.18-.13.08-.18-9.08-4.14-19.76-.54-27.39,5.06-3.42,2.51-6.29,5.62-9.35,8.53-2.62,2.48-5.6,4.93-9.35,5.13-.06,0-.05.08,0,.09,2.92.25,5.37-1.14,7.6-2.89Z"/><path class="cls-2" d="M94.6,17.17c2,1.74,5.13,1.92,6.58-.54,1.65-2.81-.98-6.48-3.07-8.19-3.02-2.46-7.49-2.66-11.18-2.43-.07,0-.13.03-.18.06-.03,0-.05-.02-.08-.02-.34-.07-.48.42-.14.52,2.32.73,3.44,3.53,4.49,5.49.99,1.86,1.99,3.71,3.6,5.1ZM89.11,7.44c1.25.39,2.39.94,3.53,1.59,2.19,1.27,3.81,2.87,4.99,5.12.01.02.05,0,.04-.02-.44-2.25-2.46-4.14-4.21-5.45-.5-.37-1.76-1.21-3.01-1.76,2.13.23,4.23.7,6.11,1.81,2.27,1.33,5.99,6.18,2.69,8.34-3.19,2.08-6.21-3.41-7.38-5.5-.77-1.37-1.58-2.99-2.75-4.13Z"/><path class="cls-2" d="M103.37,10.32c-.06-.03-.12-.04-.18-.04-.01-.01-.03-.03-.04-.04-.26-.24-.61.12-.38.38,1.55,1.81.93,4.9.8,7.06-.11,1.8-.21,3.79.54,5.48.82,1.85,2.79,3.55,4.92,2.58,2.73-1.24,2.79-4.84,2.21-7.35-.87-3.79-4.67-6.39-7.87-8.07ZM107.27,24.82c-2.91-.54-2.77-5-2.7-7.13.04-1.49.24-3.22-.06-4.77.57.86,1.21,1.7,1.64,2.63.98,2.1,1.16,4.34,1.54,6.59,0,.04.06.03.07,0,.14-2.33-.18-4.65-1.08-6.81-.35-.84-.81-1.94-1.44-2.85,2,1.5,3.79,3.24,4.72,5.65.77,2,.74,7.33-2.7,6.69Z"/><path class="cls-2" d="M113.76,18.33s-.1-.04-.15-.05c0-.01-.01-.02-.02-.03-.2-.23-.6.07-.42.33.03.05.06.1.09.15.01.04.03.08.07.11.96,1.73.21,4.22-.08,6.02-.27,1.65-.44,3.31.03,4.94.53,1.84,2.27,3.14,4.18,2.61,2.39-.67,2.95-4.1,2.59-6.14-.63-3.56-3.38-6.06-6.28-7.94ZM115.72,31.23c-2.49-1.1-1.62-5.3-1.35-7.29.17-1.22.36-2.54.13-3.75,1.65,2.65,2.1,5.81,2.1,8.93,0,.03.05.04.06,0,.38-1.75.14-3.62-.17-5.37-.15-.83-.41-1.97-.9-2.9,1.33,1.29,2.48,2.72,3.09,4.53.59,1.73.21,7.23-2.97,5.83Z"/><path class="cls-2" d="M130.39,26.75c-.93-.82-2.21-1.13-3.38-1.37-1.6-.33-4.19-.29-5.28-1.75-.2-.27-.61-.05-.47.25-.01.05-.01.11,0,.17.52,2.3,1.5,5.01,3.53,6.43,1.72,1.21,4.3,1.93,6.08.47,1.43-1.18.68-3.2-.47-4.22ZM125.71,29.75c-1.53-.91-2.43-2.58-3.13-4.24.59.63,1.31,1.19,1.91,1.66.97.77,2.08,1.34,3.32,1.49.03,0,.03-.04,0-.04-1.44-.41-2.58-1.12-3.67-2.13-.33-.31-.64-.67-.94-1.03.68.26,1.42.42,2.12.59,1.71.42,4.97.71,5.19,3,.24,2.51-3.78,1.3-4.81.69Z"/><path class="cls-2" d="M71.03,6.58c.33-.11.2-.59-.14-.52-.03,0-.05.02-.08.02-.05-.03-.11-.06-.18-.06-3.79-.24-7.89.05-11.07,2.34-2.44,1.76-4.51,5.3-3.19,8.28,1.19,2.68,4.6,2.01,6.46.63,1.56-1.16,2.54-3.01,3.44-4.69,1.13-2.08,2.27-5.21,4.75-5.99ZM65.69,11.57c-1.33,2.38-3.95,7.21-7.38,5.5-1.41-.7-1.35-2.53-.99-3.8.53-1.9,2.08-3.48,3.68-4.53,1.81-1.19,4.03-1.64,6.23-1.84-1.11.47-2.21,1.18-2.7,1.49-1.95,1.24-4.18,3.4-4.65,5.75,0,.02.03.04.04.02,1.19-2.27,2.81-3.78,4.99-5.12.98-.6,2.01-1.09,3.1-1.46.13-.05.28-.08.42-.12-1.16,1.15-1.98,2.76-2.74,4.13Z"/><path class="cls-2" d="M54.4,10.24s-.03.03-.04.04c-.06,0-.12,0-.18.04-3.41,1.79-6.69,4.25-7.87,8.07-.75,2.44-.41,6.16,2.21,7.35,2.13.97,4.1-.73,4.92-2.58.67-1.52.64-3.27.58-4.89-.09-2.32-.91-5.7.77-7.65.22-.26-.13-.62-.38-.38ZM50.28,24.82c-3.26.95-3.26-4.41-2.87-6.12.6-2.67,2.73-4.65,4.94-6.28-.62.89-1.08,2-1.45,2.83-.95,2.15-1.25,4.55-1.11,6.88,0,.04.06.05.07,0,.39-2.27.6-4.47,1.54-6.59.42-.95,1.07-1.8,1.65-2.66-.26,1.37-.14,2.87-.09,4.2.1,2.49.4,6.82-2.68,7.73Z"/><path class="cls-2" d="M44.23,18.84s.05-.07.06-.1c.03-.05.06-.1.09-.15.17-.25-.22-.56-.42-.33,0,.01-.02.02-.03.03-.05,0-.1.01-.15.05-2.91,1.88-5.65,4.39-6.28,7.94-.41,2.29.27,5.18,2.59,6.14,1.93.79,3.57-1,4.18-2.61.51-1.35.33-2.96.12-4.35-.29-1.96-1.21-4.74-.16-6.62ZM41.83,31.23c-2.9,1.69-3.37-3.83-3.12-5.24.36-2.07,1.75-3.76,3.31-5.22-.43.82-.68,1.8-.87,2.57-.45,1.83-.66,3.95-.26,5.8,0,.04.06.03.06,0,0-3.14.46-6.32,2.12-8.98-.69,3.67,2.44,8.94-1.24,11.07Z"/><path class="cls-2" d="M36.29,23.88c.14-.3-.27-.52-.47-.25-.99,1.33-3.32,1.4-4.81,1.66-1.33.23-2.64.56-3.74,1.37-1.23.91-1.96,2.87-.75,4.13,1.57,1.64,4.18.98,5.9-.05,2.25-1.35,3.33-4.27,3.88-6.68.01-.06.01-.12,0-.17ZM32.42,29.33c-1.18,1.04-4.72,2.36-5.36.06-.61-2.19,3.36-2.95,4.7-3.23.82-.17,1.73-.33,2.55-.65-.3.34-.59.69-.89.98-1.06,1.03-2.26,1.72-3.67,2.13-.02,0-.02.05,0,.04,1.25-.15,2.3-.73,3.29-1.47.6-.45,1.32-1.01,1.9-1.64-.61,1.4-1.35,2.73-2.52,3.77Z"/><path class="cls-2" d="M97.78,24.53c-1.04-.6-2.84-.22-3.46.83-1.24,2.09,1.09,4.62,2.83,2.42.1-.13.01-.33-.16-.28-.88.23-1.93.52-2.06-.72-.17-1.64,2.02-1.76,2.96-.94,1.2,1.05.71,3.15-.22,4.14-1.07,1.14-2.8.89-3.9,0-2.58-2.09-.66-6.24-.4-8.96.19-1.95-.11-4.07-1.78-5.29-.05-.04-.13.04-.09.09,3.43,4.61-2.22,10.15,1.27,14.54,2.12,2.67,6.11,1.26,6.73-1.82.32-1.56-.35-3.21-1.72-4Z"/><path class="cls-2" d="M65.95,15.72c-4.68,3.42,1.3,10.07-1.87,13.94-2.21,2.71-5.63.08-4.96-2.86.39-1.69,2.99-2.14,3.47-.37.4,1.46-1.17,1.29-2.04,1.07-.18-.05-.26.15-.16.28,1.68,2.11,3.85-.11,2.96-2.2-.45-1.05-1.99-1.56-3.03-1.24-1.81.56-2.47,2.27-2.31,4.06.31,3.32,4.16,4.18,6.45,2.27,1.71-1.43,1.73-3.67,1.25-5.65-.73-3-1.7-6.49.32-9.2.04-.05-.04-.13-.09-.09Z"/><path class="cls-2" d="M21.62,23.89c.1.03.16-.11.07-.17-3.09-1.88-6.36-4.39-6.56-8.3-.16-3.13,2.07-4.97,4.59-6.25.03-.02.02-.07-.02-.07-3.19-.02-5.36,3.08-5.57,6-.3,4.41,3.64,7.68,7.48,8.78Z"/><path class="cls-2" d="M24.82,26.65c-2.07,1.43-4.38,2.35-6.66,3.39-.1.04-.05.2.05.2,2.74-.08,5.23-1.07,6.66-3.53.02-.03-.02-.07-.05-.05Z"/><path class="cls-2" d="M60.89,20.35s.02-.08-.02-.07c-.79.1-1.52.07-2.3-.1-.87-.19-1.65-.86-2.47-1.21-.07-.03-.17.02-.14.11.8,2.01,3.24,2.58,4.93,1.28Z"/><path class="cls-2" d="M48.4,27.82c-.73-.26-1.53-.96-2.11-1.47-.06-.05-.14,0-.13.07.2,1.05.74,1.62,1.71,2.06.78.36,1.73.41,2.48-.05.03-.02.02-.06,0-.07-.65-.18-1.3-.31-1.94-.54Z"/><path class="cls-2" d="M35.96,29.36c-.03-.05-.12-.06-.15,0-.7,1.43-.06,3.84,1.42,4.53.03.01.06-.01.05-.05-.38-.68-.66-1.43-.82-2.19-.17-.78-.13-1.56-.49-2.28Z"/><path class="cls-2" d="M142.42,15.42c-.01,3.86-3.6,6.5-6.56,8.3-.09.05-.03.19.07.17,3.92-1.12,7.37-4.14,7.49-8.46.08-3.04-2.37-6.34-5.57-6.32-.04,0-.05.05-.02.07,2.63,1.34,4.6,3.08,4.59,6.25Z"/><path class="cls-2" d="M132.73,26.65s-.07.02-.05.05c1.43,2.46,3.92,3.46,6.66,3.53.1,0,.15-.15.05-.2-2.28-1.03-4.59-1.95-6.66-3.39Z"/><path class="cls-2" d="M101.44,18.96c-.77.33-1.44.84-2.22,1.13-.81.31-1.71.29-2.55.18-.04,0-.05.05-.02.07,1.68,1.3,4.12.73,4.93-1.28.03-.09-.07-.13-.14-.11Z"/><path class="cls-2" d="M111.25,26.35c-.53.47-1.18.98-1.79,1.33-.69.39-1.51.48-2.25.69-.03,0-.04.05,0,.07.75.46,1.69.41,2.48.05.97-.45,1.51-1.01,1.71-2.06.01-.08-.07-.13-.13-.07Z"/><path class="cls-2" d="M121.59,29.36c-.33.65-.33,1.33-.44,2.03-.14.85-.45,1.7-.87,2.45-.02.03.02.06.05.05,1.48-.69,2.12-3.1,1.42-4.53-.03-.06-.12-.05-.15,0Z"/><path class="cls-2" d="M78.76,11.19c-.1-.03-.21-.02-.33.04-3.71,1.98-7.35,5.64-7.43,10.11-.03,1.63.89,2.94,2.46,3.35,2.07.54,4.02-.97,5.3-2.48,1.22,1.45,2.97,2.81,4.96,2.52,1.78-.26,2.79-1.64,2.8-3.4.03-4.44-3.8-8.18-7.43-10.11-.12-.06-.23-.07-.33-.04ZM85.46,20.16c.26,1.19.24,2.6-.86,3.38-1.93,1.38-4.44-.86-5.54-2.26-.08-.11-.2-.14-.31-.12-.11-.01-.23.02-.31.12-1.2,1.53-2.98,3.03-5.07,2.48-1.49-.39-1.57-2.13-1.37-3.37.61-3.8,3.71-6.33,6.75-8.3,3.05,1.97,5.9,4.36,6.71,8.07Z"/><path class="cls-2" d="M125.46,17.64c1.59.44,2.95-1.04,2.59-2.59,0,0,0-.01,0-.02-.21-.9-1.11-1.54-2.01-1.53h-.01c-.58,0-1.09.24-1.47.62,0,0,0,0,0-.01,0,0-.01,0-.02.01-1.24,1.05-.5,3.12.93,3.51Z"/><path class="cls-2" d="M103.28,27.57c-1.05,0-1.92.87-1.92,1.92s.87,1.92,1.92,1.92,1.92-.87,1.92-1.92-.87-1.92-1.92-1.92Z"/><path class="cls-2" d="M32.09,17.64c1.43-.39,2.16-2.47.93-3.51,0,0-.01,0-.02-.01,0,0,0,0,0,.01-.37-.38-.89-.62-1.47-.62h-.01c-.9,0-1.8.64-2.01,1.53,0,0,0,.01,0,.02-.37,1.54,1,3.02,2.59,2.59Z"/><path class="cls-2" d="M54.27,27.57c-1.05,0-1.92.87-1.92,1.92s.87,1.92,1.92,1.92,1.92-.87,1.92-1.92-.87-1.92-1.92-1.92Z"/><text class="cls-1" transform="translate(38.33 70.05)"><tspan x="0" y="0">WB</tspan></text></g></svg>