<?xml version="1.0" encoding="UTF-8"?><svg id="Layer_2" xmlns="http://www.w3.org/2000/svg" viewBox="0 0 184.97 39.9"><defs><style>.cls-1{fill:#ff7171;}</style></defs><g id="OBJECTS"><path class="cls-1" d="M15.4,32.21c5.2.96,11.48-.09,14.93-4.36.7.14,1.41.26,2.14.32,5.17.41,9.8-1.98,13.69-5.16,4.46-3.64,8.08-7.98,12.9-11.22,9.11-6.11,20.54-8.74,31.13-5.55-7.68,3.56-13.35,11.21-12.04,19.94,1.15,7.66,7.92,14.75,16.12,13.6,1-.14,1.96-.43,2.88-.83,1.24-.48,2.45-1.18,3.6-2.12,6.89-5.63,8.14-15.53,3.28-22.91-2.27-3.46-5.54-5.98-9.25-7.71,10.56-3.34,22.03-.33,31.13,5.59,8.82,5.74,14.83,16.85,26.59,16.38.67-.03,1.38-.13,2.12-.29,3.34,4.36,9.89,5.17,14.96,4.33,7.34-1.21,13.25-6.38,15.39-13.47.05-.17-.21-.29-.29-.12-3.29,7.46-10.29,12.56-18.52,12.68-3.24.05-6.65-.82-9.18-2.9-.35-.29-.66-.59-.95-.92,4.92-1.62,10.05-5.91,8.49-11.22-1.06-3.61-5.56-5.28-8.82-3.68-4.6,2.25-4.02,9.83-2.01,13.8-2.1.3-4.29.16-6.35-.39-5.56-1.48-9.49-6.12-13.47-9.95-4.01-3.86-8.71-7.02-13.77-9.33-8.64-3.94-18.64-4.73-27.56-1.43-4.01-1.48-8.38-2.14-12.48-2.1-11.11.1-21.57,5.78-29.43,13.33-4.1,3.94-7.93,8.13-13.62,9.65-1.89.5-3.84.58-5.72.27,2.22-4,2.42-11.43-2.01-13.85-3.31-1.81-7.64.27-8.82,3.68-.75,2.16.11,4.49,1.38,6.25,1.8,2.51,4.26,4.12,7.05,4.97-.38.44-.79.86-1.28,1.24-5.62,4.31-14.17,2.84-19.69-.77-3.39-2.21-5.99-5.66-7.61-9.33-.07-.16-.34-.05-.29.12,2.17,7.19,8.04,12.1,15.39,13.47ZM153.69,19.21c.08-2.41,1.07-5,3.59-5.69,1.83-.5,3.82.36,5.03,1.73,1.63,1.86.88,4.33-.35,6.16-1.68,2.49-4.16,4-6.9,4.69-1.14-2.04-1.44-4.5-1.37-6.89ZM103.96,30.34c-.5,1.11-1.19,2.16-2.01,3.12-3.15,2.88-6.64,5.42-11.18,4.7-2.75-.55-5.16-2.35-7.34-4.31-.97-1.08-1.8-2.28-2.43-3.51-2.33-4.54-1.66-10.43.81-14.73,2.33-4.05,6.43-6.84,10.69-8.59,9.26,3.66,15.92,13.38,11.46,23.31ZM22.82,21.12c-1.27-1.89-1.59-4.24-.01-6.04,1.24-1.41,3.29-2,5.09-1.51,2.59.71,3.31,3.7,3.39,6.03.07,2.32-.33,4.59-1.43,6.5-2.81-.78-5.35-2.47-7.04-4.99Z"/><path class="cls-1" d="M96.74,2.33c6.76-1.76,13.33-1.77,19.99.43,5.56,1.84,10.49,4.93,14.9,8.73,3.52,3.03,6.7,6.45,10.32,9.37,2.59,2.08,5.54,3.69,8.95,3.4.06,0,.07-.1,0-.1-4.27-.23-7.63-2.91-10.64-5.7-3.62-3.35-6.92-7.02-10.88-10-9.04-6.82-21.84-11.3-32.73-6.33-.12.06-.03.25.09.21Z"/><path class="cls-1" d="M43.02,20.85c3.65-2.86,6.81-6.34,10.32-9.37,4.45-3.83,9.35-6.79,14.9-8.73,6.57-2.29,13.3-2.17,19.99-.43.12.03.21-.16.09-.21-10.68-4.88-23.25-.64-32.23,5.96-4.02,2.95-7.4,6.61-11,10.03-3.08,2.92-6.59,5.8-11.01,6.04-.07,0-.06.09,0,.1,3.44.3,6.32-1.34,8.94-3.4Z"/><path class="cls-1" d="M111.11,20.21c2.35,2.04,6.04,2.26,7.74-.64,1.94-3.3-1.16-7.63-3.61-9.63-3.55-2.9-8.81-3.13-13.16-2.86-.09,0-.15.04-.21.08-.03,0-.06-.02-.09-.03-.4-.09-.56.49-.17.61,2.72.86,4.05,4.15,5.28,6.46,1.16,2.19,2.34,4.36,4.23,6.01ZM104.64,8.75c1.48.46,2.82,1.1,4.15,1.87,2.58,1.5,4.49,3.38,5.87,6.02.02.03.06,0,.05-.02-.52-2.64-2.89-4.87-4.96-6.41-.59-.44-2.07-1.43-3.54-2.07,2.51.27,4.97.83,7.19,2.13,2.67,1.57,7.05,7.27,3.17,9.81-3.75,2.45-7.31-4.01-8.69-6.47-.91-1.61-1.86-3.51-3.24-4.86Z"/><path class="cls-1" d="M121.43,12.15c-.07-.04-.14-.05-.21-.05-.02-.02-.03-.04-.05-.05-.3-.28-.71.14-.45.45,1.83,2.13,1.1,5.77.94,8.31-.13,2.12-.24,4.46.64,6.45.96,2.18,3.28,4.18,5.79,3.04,3.22-1.46,3.28-5.7,2.6-8.65-1.02-4.46-5.49-7.52-9.26-9.5ZM126.02,29.2c-3.42-.64-3.25-5.88-3.18-8.39.05-1.75.28-3.79-.07-5.61.67,1.01,1.42,2,1.93,3.1,1.15,2.47,1.36,5.11,1.81,7.76,0,.05.08.03.08-.01.17-2.74-.21-5.48-1.27-8.01-.41-.98-.95-2.29-1.69-3.35,2.36,1.77,4.46,3.81,5.56,6.65.91,2.36.87,8.63-3.17,7.87Z"/><path class="cls-1" d="M133.65,21.57c-.06-.04-.12-.05-.18-.05-.01-.01-.02-.03-.03-.04-.24-.27-.7.09-.5.38.04.06.07.12.11.18.01.05.04.09.08.13,1.13,2.04.25,4.96-.1,7.08-.31,1.95-.51,3.89.04,5.81.62,2.16,2.67,3.7,4.92,3.07,2.81-.79,3.47-4.82,3.05-7.22-.74-4.19-3.97-7.13-7.39-9.35ZM135.96,36.75c-2.93-1.29-1.91-6.23-1.58-8.58.2-1.43.42-2.99.16-4.41,1.94,3.12,2.47,6.84,2.47,10.51,0,.04.06.05.07,0,.44-2.06.17-4.26-.2-6.32-.18-.98-.48-2.31-1.05-3.41,1.56,1.52,2.91,3.21,3.64,5.33.69,2.04.24,8.51-3.5,6.86Z"/><path class="cls-1" d="M153.23,31.48c-1.09-.97-2.59-1.32-3.98-1.61-1.89-.39-4.93-.34-6.22-2.05-.23-.31-.72-.06-.55.3-.01.06-.02.12,0,.2.61,2.71,1.77,5.9,4.15,7.57,2.02,1.42,5.06,2.28,7.16.56,1.69-1.39.8-3.76-.56-4.96ZM147.72,35.01c-1.8-1.07-2.86-3.04-3.69-4.99.69.74,1.54,1.4,2.25,1.96,1.14.91,2.45,1.58,3.91,1.75.03,0,.04-.04,0-.05-1.69-.49-3.03-1.32-4.32-2.51-.39-.36-.75-.79-1.11-1.21.8.31,1.67.49,2.5.7,2.01.5,5.85.83,6.11,3.54.29,2.96-4.45,1.53-5.66.81Z"/><path class="cls-1" d="M83.37,7.74c.39-.12.23-.7-.17-.61-.03,0-.06.02-.09.03-.06-.04-.12-.07-.21-.07-4.46-.29-9.28.06-13.03,2.75-2.87,2.07-5.3,6.23-3.75,9.74,1.4,3.15,5.42,2.37,7.61.74,1.84-1.37,2.98-3.55,4.05-5.51,1.33-2.45,2.68-6.13,5.59-7.05ZM77.09,13.62c-1.56,2.8-4.64,8.49-8.69,6.47-1.66-.83-1.59-2.97-1.17-4.47.63-2.24,2.45-4.1,4.33-5.34,2.14-1.4,4.74-1.93,7.34-2.17-1.3.56-2.6,1.39-3.18,1.75-2.29,1.45-4.92,4-5.47,6.76,0,.03.03.05.05.02,1.4-2.68,3.3-4.45,5.87-6.02,1.16-.71,2.37-1.28,3.65-1.72.16-.05.32-.1.49-.14-1.37,1.35-2.33,3.25-3.23,4.86Z"/><path class="cls-1" d="M63.8,12.05s-.03.04-.05.05c-.07,0-.14,0-.21.05-4.01,2.11-7.88,5-9.26,9.5-.88,2.88-.48,7.24,2.61,8.65,2.51,1.14,4.82-.86,5.79-3.04.79-1.79.75-3.84.68-5.76-.11-2.73-1.07-6.71.9-9.01.26-.31-.15-.73-.45-.45ZM58.95,29.2c-3.83,1.12-3.84-5.19-3.38-7.2.71-3.14,3.21-5.48,5.81-7.39-.73,1.05-1.27,2.35-1.7,3.33-1.12,2.53-1.47,5.35-1.3,8.09,0,.04.07.06.08.01.45-2.67.71-5.25,1.81-7.76.5-1.12,1.26-2.11,1.94-3.13-.31,1.61-.17,3.38-.1,4.95.12,2.93.47,8.03-3.15,9.09Z"/><path class="cls-1" d="M51.84,22.17s.06-.08.07-.12c.04-.06.07-.12.11-.18.21-.3-.26-.65-.5-.38-.01.01-.02.03-.03.04-.06,0-.12.02-.17.05-3.42,2.22-6.65,5.16-7.39,9.35-.48,2.69.31,6.1,3.04,7.22,2.27.93,4.2-1.17,4.92-3.07.6-1.59.39-3.48.14-5.12-.35-2.31-1.43-5.58-.19-7.79ZM49.01,36.75c-3.42,1.98-3.97-4.51-3.68-6.17.42-2.44,2.06-4.42,3.89-6.14-.51.97-.8,2.12-1.02,3.02-.53,2.15-.78,4.65-.31,6.83,0,.04.07.03.07,0,0-3.7.54-7.43,2.5-10.56-.81,4.32,2.87,10.51-1.46,13.03Z"/><path class="cls-1" d="M42.49,28.11c.16-.36-.32-.61-.56-.3-1.17,1.56-3.91,1.64-5.66,1.95-1.57.28-3.11.65-4.41,1.61-1.45,1.07-2.3,3.38-.89,4.85,1.85,1.93,4.92,1.15,6.94-.06,2.65-1.59,3.92-5.02,4.56-7.86.02-.08.01-.14,0-.2ZM37.93,34.51c-1.38,1.23-5.55,2.77-6.31.07-.72-2.58,3.96-3.47,5.53-3.8.97-.2,2.04-.39,3-.76-.35.4-.69.81-1.05,1.16-1.25,1.21-2.66,2.03-4.32,2.51-.03,0-.02.06,0,.05,1.47-.17,2.7-.86,3.87-1.73.71-.53,1.55-1.19,2.24-1.93-.72,1.65-1.59,3.22-2.97,4.44Z"/><path class="cls-1" d="M114.85,28.86c-1.23-.71-3.34-.26-4.08.98-1.46,2.46,1.28,5.43,3.33,2.85.12-.15.01-.38-.19-.33-1.03.27-2.27.61-2.42-.85-.2-1.93,2.37-2.07,3.48-1.1,1.41,1.23.83,3.7-.26,4.87-1.26,1.34-3.29,1.05-4.59,0-3.03-2.46-.78-7.35-.47-10.54.22-2.3-.13-4.79-2.09-6.22-.06-.05-.16.05-.11.11,4.04,5.42-2.61,11.95,1.49,17.1,2.49,3.14,7.19,1.49,7.92-2.14.37-1.84-.41-3.78-2.03-4.71Z"/><path class="cls-1" d="M77.39,18.5c-5.5,4.02,1.53,11.85-2.19,16.4-2.6,3.18-6.62.09-5.84-3.36.46-1.99,3.52-2.51,4.09-.43.47,1.72-1.38,1.52-2.4,1.26-.21-.05-.31.18-.19.33,1.97,2.49,4.53-.13,3.49-2.59-.52-1.23-2.34-1.84-3.56-1.46-2.12.66-2.91,2.67-2.72,4.78.36,3.91,4.9,4.91,7.59,2.67,2.02-1.68,2.04-4.32,1.47-6.65-.85-3.53-2-7.64.37-10.83.05-.06-.05-.16-.11-.11Z"/><path class="cls-1" d="M25.23,28.11c.12.03.19-.13.08-.2-3.64-2.21-7.48-5.17-7.72-9.76-.19-3.69,2.43-5.84,5.4-7.36.04-.02.02-.08-.02-.08-3.75-.02-6.31,3.62-6.55,7.07-.36,5.19,4.29,9.04,8.8,10.33Z"/><path class="cls-1" d="M28.99,31.36c-2.44,1.68-5.16,2.77-7.84,3.99-.11.05-.05.23.06.23,3.23-.09,6.16-1.26,7.84-4.16.02-.04-.02-.08-.06-.06Z"/><path class="cls-1" d="M71.44,23.95s.03-.09-.02-.09c-.93.12-1.79.08-2.71-.12-1.02-.23-1.94-1.01-2.9-1.42-.08-.03-.2.02-.16.12.94,2.37,3.82,3.04,5.8,1.51Z"/><path class="cls-1" d="M56.74,32.74c-.86-.31-1.79-1.13-2.48-1.73-.07-.06-.17,0-.15.09.24,1.23.87,1.9,2.01,2.43.92.42,2.03.48,2.91-.06.04-.02.03-.07-.01-.09-.77-.22-1.53-.37-2.28-.64Z"/><path class="cls-1" d="M42.1,34.55c-.03-.06-.14-.07-.17,0-.83,1.68-.08,4.52,1.67,5.33.04.02.08-.02.05-.05-.45-.81-.77-1.68-.97-2.58-.2-.92-.15-1.84-.58-2.69Z"/><path class="cls-1" d="M167.38,18.15c-.01,4.54-4.23,7.65-7.72,9.76-.1.06-.04.23.08.2,4.61-1.32,8.67-4.88,8.81-9.96.1-3.57-2.79-7.46-6.56-7.44-.04,0-.06.06-.02.08,3.09,1.57,5.42,3.63,5.41,7.36Z"/><path class="cls-1" d="M155.98,31.36s-.08.02-.06.06c1.68,2.89,4.61,4.07,7.84,4.16.12,0,.18-.18.06-.23-2.68-1.22-5.41-2.3-7.84-3.99Z"/><path class="cls-1" d="M119.16,22.31c-.9.39-1.7.98-2.61,1.34-.95.37-2.01.34-3,.21-.05,0-.06.06-.02.09,1.98,1.53,4.85.86,5.8-1.51.04-.1-.09-.16-.16-.12Z"/><path class="cls-1" d="M130.7,31.01c-.62.55-1.39,1.15-2.11,1.56-.81.46-1.77.56-2.65.81-.04.01-.05.06-.01.09.88.54,1.99.48,2.91.06,1.14-.52,1.77-1.19,2.01-2.43.02-.09-.08-.15-.15-.09Z"/><path class="cls-1" d="M142.87,34.55c-.39.76-.39,1.56-.52,2.39-.16,1-.53,2-1.03,2.88-.02.04.02.07.05.05,1.75-.81,2.5-3.65,1.67-5.33-.03-.07-.14-.06-.17,0Z"/><path class="cls-1" d="M92.46,13.17c-.12-.03-.25-.03-.39.05-4.37,2.33-8.65,6.64-8.74,11.9-.03,1.91,1.05,3.46,2.9,3.94,2.43.63,4.73-1.14,6.23-2.91,1.44,1.71,3.49,3.31,5.84,2.97,2.09-.3,3.28-1.92,3.29-4,.04-5.23-4.47-9.62-8.74-11.9-.14-.08-.27-.08-.39-.05ZM100.36,23.72c.31,1.41.28,3.05-1.01,3.98-2.27,1.63-5.23-1.01-6.52-2.66-.1-.13-.23-.16-.37-.14-.13-.02-.27.02-.37.14-1.41,1.8-3.51,3.57-5.97,2.92-1.75-.46-1.85-2.51-1.61-3.97.72-4.47,4.36-7.45,7.94-9.77,3.58,2.32,6.95,5.13,7.89,9.5Z"/><path class="cls-1" d="M147.42,20.76c1.87.51,3.47-1.23,3.04-3.04,0,0,0-.02,0-.02-.25-1.06-1.31-1.81-2.37-1.8h-.02c-.68,0-1.29.28-1.73.73,0,0,0,0,0-.01,0,0-.01.01-.02.02-1.46,1.23-.59,3.67,1.09,4.13Z"/><path class="cls-1" d="M121.32,32.45c-1.23,0-2.26,1.03-2.26,2.26s1.03,2.26,2.26,2.26,2.26-1.03,2.26-2.26-1.03-2.26-2.26-2.26Z"/><path class="cls-1" d="M37.55,20.76c1.68-.46,2.55-2.9,1.09-4.13,0,0-.01-.01-.02-.02,0,0,0,0,0,.01-.44-.45-1.05-.73-1.73-.73h-.02c-1.06,0-2.12.75-2.37,1.8,0,0,0,.02,0,.02-.43,1.81,1.17,3.56,3.04,3.04Z"/><path class="cls-1" d="M63.65,32.45c-1.23,0-2.26,1.03-2.26,2.26s1.03,2.26,2.26,2.26,2.26-1.03,2.26-2.26-1.03-2.26-2.26-2.26Z"/></g></svg>