<?xml version="1.0" encoding="UTF-8"?><svg id="Layer_2" xmlns="http://www.w3.org/2000/svg" viewBox="0 0 339.31 73.2"><defs><style>.cls-1{fill:#ff7171;}</style></defs><g id="OBJECTS"><path class="cls-1" d="M28.24,59.08c9.53,1.77,21.05-.16,27.39-8,1.29.26,2.59.48,3.93.58,9.49.75,17.98-3.64,25.12-9.47,8.17-6.67,14.82-14.64,23.66-20.57,16.71-11.21,37.68-16.03,57.1-10.19-14.09,6.54-24.49,20.56-22.08,36.58,2.11,14.05,14.53,27.06,29.57,24.95,1.84-.26,3.6-.79,5.29-1.53,2.27-.89,4.49-2.17,6.6-3.89,12.65-10.34,14.93-28.49,6.02-42.03-4.17-6.34-10.17-10.97-16.97-14.14,19.36-6.12,40.41-.61,57.1,10.25,16.17,10.52,27.21,30.91,48.78,30.04,1.23-.05,2.54-.23,3.89-.54,6.13,7.99,18.13,9.48,27.43,7.95,13.46-2.21,24.3-11.71,28.23-24.7.09-.31-.39-.52-.53-.22-6.03,13.68-18.87,23.05-33.97,23.26-5.94.08-12.19-1.51-16.84-5.32-.64-.52-1.21-1.09-1.73-1.68,9.02-2.96,18.44-10.84,15.57-20.59-1.95-6.62-10.2-9.68-16.19-6.76-8.45,4.12-7.37,18.03-3.69,25.31-3.85.56-7.86.29-11.64-.71-10.2-2.71-17.41-11.22-24.71-18.24-7.36-7.08-15.97-12.88-25.26-17.12-15.86-7.23-34.2-8.68-50.55-2.63-7.36-2.71-15.37-3.92-22.9-3.85-20.39.18-39.58,10.6-53.98,24.45-7.52,7.23-14.54,14.91-24.98,17.69-3.46.92-7.05,1.07-10.49.5,4.06-7.34,4.44-20.96-3.68-25.41-6.08-3.33-14.02.49-16.19,6.76-1.37,3.97.19,8.23,2.52,11.47,3.31,4.61,7.81,7.56,12.94,9.12-.7.81-1.46,1.58-2.35,2.27-10.3,7.91-25.99,5.21-36.12-1.41-6.22-4.06-10.99-10.38-13.96-17.12-.13-.3-.62-.09-.53.22,3.99,13.2,14.75,22.2,28.23,24.7ZM281.94,35.24c.14-4.42,1.96-9.18,6.58-10.44,3.36-.92,7,.65,9.22,3.18,2.99,3.41,1.62,7.94-.63,11.3-3.08,4.57-7.63,7.34-12.66,8.6-2.09-3.74-2.65-8.26-2.5-12.63ZM190.71,55.66c-.91,2.04-2.18,3.96-3.68,5.72-5.79,5.29-12.18,9.95-20.52,8.62-5.05-1.02-9.47-4.31-13.46-7.9-1.78-1.98-3.3-4.18-4.46-6.43-4.28-8.32-3.05-19.14,1.48-27.01,4.28-7.43,11.8-12.55,19.61-15.75,16.99,6.72,29.2,24.54,21.02,42.76ZM41.86,38.75c-2.33-3.46-2.91-7.78-.02-11.08,2.28-2.59,6.04-3.67,9.34-2.77,4.76,1.3,6.08,6.78,6.22,11.07.14,4.25-.61,8.42-2.63,11.93-5.16-1.43-9.81-4.53-12.91-9.15Z"/><path class="cls-1" d="M177.46,4.27c12.41-3.24,24.46-3.25,36.66.78,10.19,3.37,19.23,9.05,27.33,16.01,6.46,5.56,12.29,11.83,18.93,17.18,4.74,3.82,10.16,6.77,16.41,6.23.12,0,.12-.18,0-.18-7.82-.42-13.99-5.35-19.52-10.45-6.65-6.14-12.7-12.88-19.95-18.35-16.59-12.51-40.07-20.72-60.04-11.61-.23.1-.06.45.17.39Z"/><path class="cls-1" d="M78.92,38.24c6.7-5.25,12.49-11.63,18.93-17.18,8.16-7.03,17.14-12.46,27.33-16.01,12.06-4.21,24.39-3.98,36.66-.78.23.06.39-.29.17-.39-19.6-8.94-42.65-1.17-59.13,10.93-7.37,5.42-13.57,12.13-20.18,18.4-5.65,5.36-12.08,10.64-20.19,11.08-.12,0-.12.17,0,.18,6.31.55,11.58-2.45,16.41-6.23Z"/><path class="cls-1" d="M203.82,37.07c4.31,3.75,11.07,4.15,14.2-1.17,3.56-6.06-2.12-13.99-6.63-17.67-6.52-5.32-16.16-5.75-24.14-5.24-.16.01-.28.07-.39.14-.06-.01-.11-.03-.17-.05-.73-.16-1.03.9-.31,1.12,5,1.58,7.44,7.62,9.68,11.85,2.13,4.01,4.29,8,7.76,11.02ZM191.96,16.06c2.71.84,5.17,2.02,7.61,3.44,4.74,2.74,8.23,6.2,10.76,11.04.03.05.1.01.09-.04-.96-4.85-5.3-8.94-9.1-11.76-1.09-.81-3.79-2.61-6.49-3.79,4.61.5,9.12,1.52,13.18,3.9,4.9,2.88,12.94,13.33,5.81,17.99-6.88,4.5-13.4-7.36-15.93-11.87-1.66-2.96-3.42-6.45-5.94-8.92Z"/><path class="cls-1" d="M222.75,22.28c-.13-.07-.26-.09-.38-.09-.03-.03-.06-.06-.09-.09-.55-.52-1.31.26-.82.82,3.35,3.9,2.01,10.58,1.72,15.25-.24,3.89-.44,8.18,1.17,11.83,1.77,4,6.02,7.66,10.62,5.57,5.9-2.69,6.02-10.45,4.78-15.87-1.87-8.18-10.08-13.8-16.99-17.43ZM231.17,53.57c-6.28-1.17-5.97-10.79-5.83-15.4.1-3.21.51-6.95-.12-10.29,1.23,1.86,2.6,3.68,3.54,5.68,2.11,4.54,2.5,9.37,3.33,14.24.01.09.14.06.14-.02.31-5.02-.38-10.04-2.33-14.7-.75-1.8-1.75-4.2-3.1-6.15,4.32,3.25,8.18,6.99,10.2,12.2,1.67,4.32,1.6,15.83-5.82,14.44Z"/><path class="cls-1" d="M245.18,39.58c-.11-.07-.21-.09-.32-.1-.02-.02-.03-.05-.05-.08-.44-.49-1.29.16-.91.71.07.11.13.22.2.33.03.09.08.17.15.25,2.07,3.74.46,9.1-.18,13-.58,3.57-.94,7.14.07,10.66,1.15,3.97,4.9,6.78,9.02,5.63,5.15-1.45,6.36-8.84,5.59-13.24-1.35-7.68-7.29-13.08-13.56-17.14ZM249.4,67.42c-5.38-2.37-3.5-11.43-2.9-15.73.36-2.63.78-5.48.29-8.09,3.55,5.72,4.53,12.54,4.52,19.29,0,.08.12.09.13.02.81-3.78.31-7.82-.36-11.59-.32-1.8-.89-4.24-1.93-6.26,2.87,2.78,5.34,5.88,6.67,9.78,1.27,3.73.45,15.61-6.41,12.58Z"/><path class="cls-1" d="M281.08,57.74c-2-1.77-4.76-2.43-7.3-2.96-3.46-.72-9.05-.63-11.4-3.77-.43-.57-1.33-.11-1.02.55-.02.11-.03.23,0,.37,1.12,4.97,3.24,10.82,7.62,13.89,3.71,2.61,9.28,4.18,13.13,1.02,3.09-2.54,1.46-6.9-1.02-9.1ZM270.97,64.23c-3.3-1.96-5.25-5.57-6.76-9.15,1.27,1.35,2.83,2.56,4.12,3.59,2.09,1.66,4.5,2.9,7.17,3.21.06,0,.06-.08.01-.1-3.1-.89-5.56-2.42-7.93-4.6-.72-.66-1.37-1.44-2.04-2.22,1.46.56,3.06.9,4.59,1.28,3.69.92,10.73,1.52,11.21,6.49.53,5.43-8.17,2.8-10.38,1.49Z"/><path class="cls-1" d="M152.93,14.21c.72-.23.42-1.28-.31-1.12-.06.01-.11.03-.17.05-.11-.07-.23-.13-.39-.14-8.19-.52-17.03.1-23.9,5.05-5.27,3.79-9.73,11.44-6.88,17.87,2.57,5.78,9.94,4.34,13.95,1.35,3.37-2.51,5.47-6.5,7.43-10.12,2.43-4.49,4.91-11.24,10.26-12.93ZM141.41,24.98c-2.87,5.13-8.52,15.57-15.93,11.87-3.05-1.52-2.91-5.46-2.14-8.21,1.15-4.1,4.5-7.52,7.95-9.79,3.92-2.58,8.69-3.54,13.46-3.98-2.39,1.02-4.76,2.54-5.83,3.22-4.2,2.67-9.03,7.33-10.03,12.41-.01.05.06.09.09.04,2.56-4.91,6.06-8.16,10.76-11.04,2.12-1.3,4.35-2.35,6.69-3.16.28-.1.59-.18.91-.27-2.51,2.47-4.27,5.95-5.92,8.91Z"/><path class="cls-1" d="M117.03,22.1s-.06.06-.09.1c-.12,0-.25.02-.39.09-7.35,3.87-14.45,9.18-16.99,17.43-1.62,5.27-.88,13.29,4.78,15.87,4.6,2.09,8.85-1.57,10.61-5.57,1.45-3.28,1.38-7.05,1.24-10.56-.19-5.01-1.97-12.31,1.65-16.52.48-.56-.27-1.34-.82-.82ZM108.14,53.57c-7.03,2.06-7.04-9.52-6.2-13.2,1.3-5.76,5.89-10.04,10.66-13.55-1.35,1.93-2.33,4.31-3.12,6.11-2.05,4.64-2.7,9.81-2.39,14.85,0,.08.13.11.14.02.83-4.9,1.29-9.64,3.33-14.24.91-2.06,2.3-3.88,3.55-5.74-.56,2.95-.3,6.2-.19,9.07.22,5.37.86,14.73-5.78,16.68Z"/><path class="cls-1" d="M95.09,40.66c.06-.07.11-.14.13-.22.07-.11.13-.23.2-.33.38-.55-.48-1.2-.91-.71-.02.02-.04.05-.06.08-.11,0-.21.03-.32.1-6.27,4.07-12.2,9.47-13.56,17.14-.88,4.94.58,11.19,5.58,13.24,4.17,1.71,7.71-2.15,9.02-5.63,1.1-2.92.72-6.39.27-9.39-.64-4.24-2.62-10.23-.35-14.29ZM89.91,67.42c-6.27,3.64-7.27-8.27-6.74-11.32.78-4.47,3.79-8.12,7.14-11.26-.94,1.77-1.47,3.89-1.87,5.54-.96,3.94-1.42,8.53-.56,12.53.02.08.13.06.13-.02,0-6.78.98-13.64,4.58-19.38-1.49,7.92,5.27,19.29-2.68,23.91Z"/><path class="cls-1" d="M77.94,51.56c.3-.65-.59-1.12-1.02-.54-2.15,2.87-7.18,3.01-10.38,3.58-2.88.51-5.7,1.2-8.08,2.96-2.66,1.97-4.22,6.19-1.63,8.9,3.39,3.54,9.02,2.11,12.74-.11,4.87-2.91,7.19-9.21,8.37-14.42.03-.14.02-.26,0-.37ZM69.58,63.31c-2.54,2.25-10.19,5.08-11.58.12-1.33-4.74,7.26-6.37,10.15-6.97,1.77-.37,3.74-.71,5.5-1.4-.64.74-1.26,1.48-1.93,2.12-2.29,2.22-4.87,3.72-7.93,4.6-.05.02-.04.1.01.1,2.69-.32,4.95-1.57,7.1-3.17,1.3-.96,2.84-2.19,4.11-3.54-1.32,3.03-2.92,5.9-5.44,8.14Z"/><path class="cls-1" d="M210.69,52.95c-2.25-1.3-6.12-.49-7.48,1.8-2.68,4.5,2.36,9.97,6.11,5.22.21-.27.03-.7-.35-.6-1.9.5-4.17,1.12-4.44-1.56-.36-3.55,4.36-3.8,6.39-2.02,2.59,2.26,1.53,6.79-.47,8.93-2.31,2.47-6.03,1.92-8.42-.01-5.57-4.51-1.43-13.48-.86-19.34.41-4.22-.24-8.79-3.84-11.41-.12-.09-.29.09-.2.2,7.4,9.95-4.78,21.91,2.73,31.38,4.57,5.75,13.18,2.73,14.54-3.93.69-3.37-.76-6.93-3.72-8.64Z"/><path class="cls-1" d="M141.97,33.94c-10.1,7.38,2.8,21.73-4.03,30.08-4.78,5.84-12.15.16-10.71-6.17.84-3.66,6.46-4.61,7.5-.8.86,3.16-2.53,2.79-4.4,2.31-.38-.1-.57.33-.35.6,3.62,4.56,8.32-.24,6.39-4.76-.96-2.26-4.3-3.38-6.53-2.68-3.9,1.22-5.34,4.9-4.98,8.76.67,7.17,8.99,9.01,13.91,4.9,3.7-3.09,3.74-7.93,2.71-12.19-1.57-6.47-3.67-14.01.69-19.86.09-.12-.08-.29-.2-.2Z"/><path class="cls-1" d="M46.28,51.56c.22.06.34-.24.15-.36-6.67-4.05-13.73-9.48-14.16-17.91-.35-6.77,4.46-10.72,9.91-13.5.07-.04.04-.15-.04-.15-6.89-.04-11.58,6.64-12.02,12.96-.66,9.53,7.86,16.58,16.15,18.96Z"/><path class="cls-1" d="M53.18,57.53c-4.47,3.09-9.46,5.08-14.39,7.31-.21.1-.1.43.11.42,5.92-.17,11.3-2.32,14.38-7.63.04-.07-.04-.16-.11-.11Z"/><path class="cls-1" d="M131.05,43.93c.06-.04.05-.17-.04-.16-1.71.22-3.28.15-4.97-.22-1.87-.41-3.56-1.86-5.33-2.61-.14-.06-.37.04-.3.23,1.73,4.34,7,5.57,10.63,2.77Z"/><path class="cls-1" d="M104.09,60.06c-1.59-.56-3.29-2.07-4.54-3.18-.13-.11-.31,0-.28.16.43,2.27,1.59,3.49,3.69,4.45,1.69.77,3.73.88,5.34-.11.06-.04.05-.14-.02-.16-1.4-.39-2.81-.68-4.19-1.17Z"/><path class="cls-1" d="M77.22,63.38c-.06-.12-.26-.12-.32,0-1.51,3.08-.14,8.29,3.07,9.77.06.03.14-.03.1-.1-.83-1.48-1.42-3.08-1.78-4.74-.37-1.68-.27-3.37-1.07-4.93Z"/><path class="cls-1" d="M307.04,33.29c-.03,8.32-7.77,14.03-14.16,17.91-.19.12-.07.42.15.36,8.46-2.42,15.91-8.94,16.16-18.27.18-6.56-5.11-13.69-12.03-13.65-.08,0-.11.11-.04.15,5.67,2.89,9.94,6.66,9.92,13.5Z"/><path class="cls-1" d="M286.12,57.53c-.07-.05-.15.04-.11.11,3.08,5.31,8.46,7.46,14.38,7.63.21,0,.33-.33.12-.42-4.92-2.23-9.92-4.22-14.39-7.31Z"/><path class="cls-1" d="M218.59,40.93c-1.66.71-3.11,1.8-4.79,2.45-1.74.67-3.7.62-5.51.39-.1-.01-.1.12-.04.16,3.63,2.81,8.9,1.57,10.63-2.77.08-.19-.16-.29-.3-.23Z"/><path class="cls-1" d="M239.76,56.88c-1.14,1.01-2.55,2.11-3.87,2.87-1.48.85-3.25,1.03-4.87,1.49-.07.02-.08.12-.02.16,1.62.99,3.66.88,5.34.11,2.1-.96,3.25-2.19,3.69-4.45.03-.16-.15-.27-.28-.16Z"/><path class="cls-1" d="M262.08,63.38c-.71,1.39-.72,2.87-.96,4.39-.29,1.84-.97,3.66-1.89,5.28-.04.07.04.13.1.1,3.2-1.48,4.58-6.69,3.07-9.77-.06-.12-.26-.12-.32,0Z"/><path class="cls-1" d="M169.62,24.16c-.22-.06-.46-.05-.72.09-8.01,4.27-15.87,12.17-16.03,21.83-.06,3.51,1.92,6.34,5.32,7.23,4.46,1.16,8.67-2.09,11.43-5.35,2.64,3.13,6.41,6.07,10.71,5.45,3.84-.55,6.02-3.53,6.04-7.33.07-9.59-8.2-17.65-16.03-21.83-.26-.14-.5-.15-.72-.09ZM184.1,43.52c.56,2.58.51,5.6-1.85,7.29-4.17,2.99-9.59-1.86-11.96-4.88-.18-.23-.43-.3-.67-.27-.24-.03-.49.03-.67.27-2.59,3.31-6.44,6.54-10.94,5.36-3.21-.84-3.39-4.61-2.96-7.28,1.33-8.2,8-13.66,14.57-17.92,6.57,4.26,12.74,9.42,14.48,17.42Z"/><path class="cls-1" d="M270.43,38.08c3.43.94,6.37-2.25,5.58-5.58,0-.01,0-.03,0-.04-.46-1.94-2.4-3.32-4.35-3.31h-.03c-1.25,0-2.36.52-3.17,1.35,0,0,0-.02.01-.03-.01,0-.02.02-.04.03-2.67,2.26-1.09,6.73,2,7.58Z"/><path class="cls-1" d="M222.55,59.52c-2.26,0-4.14,1.89-4.14,4.14s1.89,4.14,4.14,4.14,4.14-1.88,4.14-4.14-1.89-4.14-4.14-4.14Z"/><path class="cls-1" d="M68.87,38.08c3.09-.85,4.67-5.32,2-7.58-.01,0-.02-.02-.04-.03,0,0,0,.02.01.03-.81-.82-1.92-1.34-3.17-1.35h-.03c-1.95,0-3.89,1.37-4.35,3.31,0,.01,0,.03,0,.04-.79,3.33,2.15,6.52,5.58,5.58Z"/><path class="cls-1" d="M116.75,59.52c-2.26,0-4.14,1.89-4.14,4.14s1.89,4.14,4.14,4.14,4.14-1.88,4.14-4.14-1.89-4.14-4.14-4.14Z"/></g></svg>