<?xml version="1.0" encoding="UTF-8"?><svg id="Layer_2" xmlns="http://www.w3.org/2000/svg" viewBox="0 0 142.14 74.29"><defs><style>.cls-1{fill:#6f7477;}.cls-2{fill:#fab760;}.cls-3{fill:#fff;}.cls-4{stroke-width:.04px;}.cls-4,.cls-5{fill:#fec828;stroke:#faa332;stroke-miterlimit:10;}.cls-5{stroke-width:.1px;}.cls-6{fill:#faa332;}.cls-7{fill:#fde82d;}.cls-8{fill:#505457;}</style></defs><g id="trash"><g id="bag"><polygon class="cls-7" points="131.38 13.08 96.34 0 70.84 16.53 45.61 11.97 10.96 17.1 6.8 74.08 42.28 68.67 60.98 74.08 95.27 74.29 131.9 61.23 142.14 46.37 131.64 32.29 131.64 27.68 131.64 19.99 133.69 17.69 131.38 13.08"/><polygon class="cls-1" points="65.31 74.29 65.31 60.81 88.87 45.6 102.7 47.65 131.64 27.68 131.64 32.29 142.14 46.37 131.9 61.23 107.57 70.7 95.31 74.29 65.31 74.29"/><polygon class="cls-8" points="88.87 45.6 102.7 47.65 131.64 27.68 131.64 19.94 133.69 17.69 131.38 13.08 88.87 40.69 88.87 45.6"/><ellipse class="cls-2" cx="88.71" cy="54.83" rx="10.88" ry="7.17"/><ellipse class="cls-2" cx="74.24" cy="64.4" rx="6.02" ry="3.97"/><ellipse class="cls-2" cx="121.46" cy="47.9" rx="4.64" ry="3.06"/><polygon class="cls-6" points="0 74.29 6.91 74.03 11.01 17.18 5.12 17.18 0 74.29"/><polygon class="cls-6" points="131.38 13.08 88.87 40.69 88.87 45.6 65.31 60.81 65.31 74.29 60.98 74.08 60.98 60.19 83.75 44.32 83.75 38.94 126.61 11.3 131.38 13.08"/><polyline class="cls-5" points="49.69 50.98 45.66 61.89 32.78 60.96"/><polyline class="cls-5" points="27.15 17.21 38.42 21.05 38.42 50.21"/><polygon class="cls-3" points="114.22 12.52 97.07 7.19 51.73 32.03 96.18 13.08 114.22 12.52"/><polygon class="cls-4" points="70.94 16.41 63.15 15.1 49.69 29.54 70.94 16.41"/><polygon class="cls-4" points="63.15 15.1 45.61 11.97 59.91 18.57 63.15 15.1"/><polygon class="cls-3" points="38.37 14.84 44.85 12.82 54.04 17.94 45.18 15.05 38.37 14.84"/><polygon class="cls-5" points="60.98 70.17 60.98 74.08 42.28 68.67 6.91 74.03 9.32 40.68 11.01 69 42.26 67.1 60.98 70.17"/></g></g></svg>