<?xml version="1.0" encoding="UTF-8"?><svg id="Layer_2" xmlns="http://www.w3.org/2000/svg" viewBox="0 0 89.44 46.75"><defs><style>.cls-1{fill:#6f7477;}.cls-2{fill:#fab760;}.cls-3{fill:#fff;}.cls-4{stroke-width:.02px;}.cls-4,.cls-5{fill:#fec828;stroke:#faa332;stroke-miterlimit:10;}.cls-6{fill:#faa332;}.cls-7{fill:#fde82d;}.cls-5{stroke-width:.06px;}.cls-8{fill:#505457;}</style></defs><g id="trash"><g id="bag2"><polygon class="cls-7" points="6.77 8.23 28.82 0 44.87 10.4 60.74 7.53 82.55 10.76 85.16 46.62 62.84 43.21 51.07 46.62 29.49 46.75 6.45 38.53 0 29.18 6.61 20.32 6.61 17.42 6.61 12.58 5.32 11.13 6.77 8.23"/><polygon class="cls-1" points="48.35 46.75 48.35 38.26 33.52 28.7 24.82 29.99 6.61 17.42 6.61 20.32 0 29.18 6.45 38.53 21.76 44.49 29.47 46.75 48.35 46.75"/><polygon class="cls-8" points="33.52 28.7 24.82 29.99 6.61 17.42 6.61 12.54 5.32 11.13 6.77 8.23 33.52 25.6 33.52 28.7"/><ellipse class="cls-2" cx="33.62" cy="34.5" rx="6.85" ry="4.51"/><ellipse class="cls-2" cx="42.73" cy="40.52" rx="3.79" ry="2.5"/><ellipse class="cls-2" cx="13.01" cy="30.14" rx="2.92" ry="1.92"/><polygon class="cls-6" points="89.44 46.75 85.09 46.59 82.51 10.81 86.22 10.81 89.44 46.75"/><polygon class="cls-6" points="6.77 8.23 33.52 25.6 33.52 28.7 48.35 38.26 48.35 46.75 51.07 46.62 51.07 37.87 36.74 27.89 36.74 24.51 9.77 7.11 6.77 8.23"/><polyline class="cls-5" points="58.18 32.08 60.71 38.95 68.82 38.36"/><polyline class="cls-5" points="72.36 10.83 65.27 13.24 65.27 31.6"/><polygon class="cls-3" points="17.57 7.88 28.36 4.52 56.89 20.16 28.92 8.23 17.57 7.88"/><polygon class="cls-4" points="44.8 10.32 49.7 9.5 58.18 18.59 44.8 10.32"/><polygon class="cls-4" points="49.7 9.5 60.74 7.53 51.74 11.69 49.7 9.5"/><polygon class="cls-3" points="65.3 9.34 61.22 8.07 55.44 11.29 61.01 9.47 65.3 9.34"/><polygon class="cls-5" points="51.07 44.16 51.07 46.62 62.84 43.21 85.09 46.59 83.58 25.6 82.51 43.42 62.85 42.22 51.07 44.16"/></g></g></svg>