<?xml version="1.0" encoding="UTF-8"?><svg id="Layer_2" xmlns="http://www.w3.org/2000/svg" viewBox="0 0 1281 1024"><defs><style>.cls-1{fill:#b2dbed;}.cls-2{fill:#7ec253;}.cls-3{fill:#4b9a16;}.cls-4{fill:#fceec2;}.cls-5{fill:#036118;}.cls-6{fill:#a0a2a5;}.cls-7{fill:#7fcaf2;}.cls-8{fill:#986a42;}.cls-9{fill:#42210b;}.cls-10{fill:#e2c5af;}</style></defs><g id="Layer_1-2"><rect class="cls-1" x="1" width="1280" height="1024"/></g><g id="background"><path class="cls-7" d="M289.94,361.38h95.97v281.1h-158.02v.13h-39.63v.26h-39.69v-.06H48.98v-255.01h99.59v-111.21h39.69v26.43h39.63v58.36h13.13l16.75-58.68v-2l32.17-18.57,23.44,13.53c5.75-4.13,10.23-7.36,10.51-7.56l-6.62,9.81,4.84,2.79v37.14l-32.17,18.58v4.96Z"/><polygon class="cls-7" points="1281 418 1281 629 1211.72 642.66 1211.72 642.38 1168.49 642.38 1168.49 642.39 1089.87 642.39 1089.87 342.69 1168.49 342.69 1168.49 445.64 1211.72 445.64 1211.72 382.88 1281 418"/><polygon class="cls-7" points="752.31 337.18 752.71 337.18 752.71 642.19 688.95 642.19 688.95 642.75 643.25 642.75 643.25 642.63 507.87 642.63 507.87 642.36 386.02 642.36 386.02 342.66 464.64 342.66 464.64 445.61 507.87 445.61 507.87 382.85 569.91 382.85 569.91 287.05 616.97 287.05 616.97 418.08 643.58 418.08 643.58 424.17 688.95 424.17 688.95 337.18 689.69 337.18 720.5 282.09 752.31 337.18"/><polygon class="cls-7" points="1089.76 361.4 1089.76 642.51 931.73 642.51 931.73 642.64 892.11 642.64 892.11 642.9 852.42 642.9 852.42 642.84 752.83 642.84 752.83 387.83 852.42 387.83 852.42 276.62 892.11 276.62 892.11 303.04 931.73 303.04 931.73 361.4 1089.76 361.4"/><path class="cls-7" d="M.76,314.07l16.75-58.68,1.7-2.38,32.17-18.57,23.44,13.53c5.75-4.13,10.23-7.36,10.51-7.56l-6.62,9.81,4.84,2.79v37.14l-32.17,18.58v4.96h95.97v281.1l-147.35.21.76-280.93Z"/><polygon class="cls-7" points="1108.87 370.42 1108.87 594.97 973.16 594.97 973.16 594.69 929.93 594.69 929.93 594.7 851.31 594.7 851.31 295 929.93 295 929.93 397.95 973.16 397.95 973.16 335.19 1035.2 335.19 1035.2 239.39 1082.26 239.39 1082.26 370.42 1108.87 370.42"/><polygon class="cls-7" points="513.75 289.49 514.15 289.49 514.15 594.5 450.39 594.5 450.39 595.06 404.69 595.06 404.69 594.94 269.31 594.94 269.31 594.67 147.46 594.67 147.46 294.97 226.08 294.97 226.08 397.92 269.31 397.92 269.31 335.16 331.35 335.16 331.35 239.36 378.41 239.36 378.41 370.39 405.02 370.39 405.02 376.48 450.39 376.48 450.39 289.49 451.13 289.49 481.94 234.4 513.75 289.49"/><polygon class="cls-7" points="851.2 313.71 851.2 594.82 693.17 594.82 693.17 594.95 653.55 594.95 653.55 595.21 613.86 595.21 613.86 595.15 514.27 595.15 514.27 340.14 613.86 340.14 613.86 228.93 653.55 228.93 653.55 255.35 693.17 255.35 693.17 313.71 851.2 313.71"/></g><g id="grass"><path class="cls-3" d="M1,549s314-163,643-32,637,112,637,112v395H1v-475Z"/></g><g id="pavement"><path class="cls-6" d="M796.3,867.51c31.7,7.49,112.39,15.88,143.78,47.59,16.28,16.85,11.09,35.98-12.23,47.52-36,17.81-75.59,22.15-114,30.71-41.56,9.26-132.62,26.88-135.85,30.67h550c53.14-29,9.1-88.88-18.43-104.23-59.67-33.27-124.7-48.31-191.54-57.29-67.99-9.14-490.02-48.47-326.02-327.47l-52-20s-158.18,278.26,156.3,352.51Z"/></g><g id="trees"><path class="cls-8" d="M246.5,554.52c.29.97.84,1.95.83,2.92-.15,11.57-.31,23.13-.61,34.69-.28,11.06-.77,22.11-1.07,33.17-.07,2.55.16,5.12.42,7.66.2,1.89,1.21,2.3,2.85,1.29,2.04-1.26,3.26-3.04,3.24-5.54-.02-3.36,0-6.72,0-10.19,1.51-.14,2.49-.23,3.81-.35-.32,2.57-.6,5.02-.94,7.45-.46,3.34-.93,6.68-1.44,10.01-.09.59-.27,1.32-.68,1.67-3.64,3.14-4.83,7.41-5.21,11.89-1.02,12.06-.02,23.95,3.41,35.61,1.37,4.66,4.11,8.16,8.55,10.08,5.72,2.47,11.54,4.73,17.31,7.08.4.16.81.28,1.17.77-3.1-.27-6.2-.44-9.28-.83-3.16-.39-6.31-.87-9.42-1.53-3.08-.66-6.11-1.59-9-2.36,1.06,1.96,2.18,4.03,3.3,6.09-.16.11-.32.23-.47.34-.65-.33-1.31-.64-1.95-.98-3.1-1.65-6.27-2.99-9.79-3.6-2.15-.37-4.19-1.41-6.43-2.2-2.48,4.32-6.3,7.36-11.88,8.92,1.71-3.24,3.31-6.09,3.38-9.59-.43.08-.75.06-1,.19-4.12,2.07-8.53,2.58-13.07,2.83-3.1.17-6.15,1.04-9.25,1.32-2.57.23-5.17.05-7.76.05-.09-.28-.18-.55-.27-.83.7-.6,1.35-1.28,2.12-1.78,4.04-2.6,8.67-3.36,13.28-4.2.92-.17,1.85-.29,2.76-.49,5.5-1.22,7.77-3.88,7.99-10.13.31-8.67.43-17.36.49-26.04.12-19.82.19-39.64.21-59.46.01-9.19-.17-18.38-.18-27.57,0-1.23.11-2.84.86-3.61,1.79-1.83,2.65-1.58,4.52.62,1.4-2.43,2.78-4.82,4.25-7.37.45.59.74.96,1.08,1.4.91-1.29,1.79-2.53,2.82-3.98.41.66.68,1.05.91,1.46.97,1.74,2.54,2.08,3.92.78,1.97-1.86,3.9-3.76,5.85-5.65.13,0,.25,0,.38,0Z"/><path class="cls-5" d="M221.03,558.18c.03,3.87.06,7.74.09,11.6-2.53,5.38-6.12,9.5-12.35,10.54-6.37-2.67-11.29,3.24-17.27,2.92-1.89-.25-3.77-.5-5.66-.74-.42-.11-.84-.22-1.26-.33-4.16-1.68-8.13-3.67-11.37-6.87-.91-1.67-1.44-3.59-3.1-4.78,1.32-6.53-3.07-9.12-7.89-11.42-2.67-3.74-2.41-8.1-2.63-12.36.61-2.23,1.19-4.44-2.28-4.74-.43-.04-.84-.42-1.25-.67-2.16-1.33-2.83-3.72-3.82-5.78-3.62-7.57-9.38-14.52-5.81-24.02,3.08-8.17,8.88-13.23,16.73-16.2,2.11-.8,2.9-1.07,2.56-3.88-1.93-16.26,11.05-31.34,27.5-32.95,3.59-.35,7.15-.81,10.74-.65,1.83.08,2.86-.88,4.05-2.01,6.66-6.34,14.31-10.79,23.58-12.08,5.71,1.01,11.41,1.02,17.12,0,4.09,1.6,8.38,2.47,12.34,4.61,7.45,4.03,13.46,9.36,17.56,16.77.71,1.29,1.21,2.22,3.04,2.35,9.19.65,15.36,5.47,18.45,14.14.4,1.13.66,1.87,2.13,1.99,26.25,2.11,32.15,33.56,19.05,50.33-2.11,2.71-3.79,5.73-7.23,7.03-.55.33-1.1.66-1.65.98,0,0,0-.02,0-.02-1.22,0-2.44,0-3.89,0,.83,3.77.36,7.64.52,11.5-1.07,7.05-5.35,11.75-11.22,15.28-1.05.63-2.15,1.17-3.23,1.75-3.45.35-6.04,3.37-9.67,3.13-4.41-.34-8.82-.69-13.23-1.03h-.03c-.4-.76-1.07-.99-1.87-.94-1.32-.68-2.64-1.31-3.92.08-.66-.04-1.32-.07-1.98-.11-5.71.46-11.08-.96-16.35-2.94-4.08-1.97-6.36-5.7-9.03-9.53-1.4,3.03-3.46,5.09-5.89,6.81-3.29-.48-5.02,4.37-8.7,2.55-.33-.26-.66-.51-.99-.77,0,0,.01.03.01.03-.45-3.23,1.03-6.85-1.9-9.59"/><path class="cls-2" d="M288.46,509.41c1.45-2.42,1.21-4.63,1.28-6.8.13-4.15.73-4.51,4.65-2.75,7.38,3.32,11.32,9.22,12.34,17.06.93,7.13-.41,13.85-4.65,19.81-1.56,2.19-3.27,4.12-5.12.17-.29-.62-.72-1.18-1.42-2.31-1.31,2.63-.73,4.51-.76,6.27-.1,7.18-2.69,13.31-7.77,18.31-6.78,6.67-14.41,7.28-22.34,1.84-1.09-.75-1.96-.48-3.05-.23-10.97,2.47-15.56-.54-17.76-11.59-.08-.4-.07-1.11-.25-1.15-4.57-1.23-2.29-5.31-3.42-8.39-1.23,3.7-2.61,6.89-5.97,8.7-2.55,1.38-5.24,1.91-7.86.7-2.75-1.27-4.26-.94-4.1,2.63-2.71-1.49-4.28-4.06-7.48-4.39-.09,2.42,1.46,4.37,1.33,6.69-.24,4.18-2.45,7.39-6.44,7.67-2.43.17-3.68,1.22-4.83,3.03-2.1,3.3-5.02,5.32-9.04,5.51-6.78.32-9.99-2.34-10.71-9.43-.24-2.38-.85-3.75-3.1-5.06-6.88-4.01-8.23-11.93-3.49-18.24.65-.86,1.78-1.74.96-2.82-.76-1-2.09-.49-3.05-.04-4.56,2.14-6.49-.77-8.09-4.18-3.95-8.44-.19-19.43,8.34-23.33,3.28-1.5,4.16-3.26,4.08-6.77-.43-17.59,14.25-28.65,31.07-23.45,2.66.82,3.56-.13,4.85-2.03,6.76-9.88,24.53-13.03,33.23-5.41,4.02,3.52,6.94,7.74,12.88,8.94,3.55.72,5.19,4.95,5.65,8.82.18,1.51.45,2.41,2.33,2.61,13.93,1.52,16.88,4.78,17.53,19.02,0,.13.09.26.21.59Z"/><path class="cls-8" d="M385.34,414c.13.43.37.85.36,1.28-.06,5.06-.14,10.12-.27,15.18-.12,4.84-.34,9.67-.47,14.51-.03,1.12.07,2.24.18,3.35.09.83.53,1.01,1.25.56.89-.55,1.43-1.33,1.42-2.42-.01-1.47,0-2.94,0-4.46.66-.06,1.09-.1,1.67-.15-.14,1.13-.26,2.19-.41,3.26-.2,1.46-.41,2.92-.63,4.38-.04.26-.12.58-.3.73-1.59,1.38-2.11,3.24-2.28,5.2-.45,5.28,0,10.48,1.49,15.58.6,2.04,1.8,3.57,3.74,4.41,2.5,1.08,5.05,2.07,7.58,3.1.17.07.35.12.51.34-1.35-.12-2.71-.19-4.06-.36-1.38-.17-2.76-.38-4.12-.67-1.35-.29-2.67-.7-3.94-1.03.46.86.95,1.76,1.44,2.66-.07.05-.14.1-.21.15-.28-.14-.57-.28-.85-.43-1.35-.72-2.74-1.31-4.28-1.58-.94-.16-1.83-.62-2.81-.96-1.09,1.89-2.76,3.22-5.2,3.9.75-1.42,1.45-2.67,1.48-4.2-.19.03-.33.03-.44.08-1.8.91-3.73,1.13-5.72,1.24-1.36.07-2.69.45-4.05.58-1.12.1-2.26.02-3.4.02-.04-.12-.08-.24-.12-.36.31-.26.59-.56.93-.78,1.77-1.14,3.8-1.47,5.81-1.84.4-.07.81-.13,1.21-.22,2.41-.53,3.4-1.7,3.5-4.43.13-3.8.19-7.59.21-11.39.05-8.67.08-17.34.09-26.02,0-4.02-.07-8.04-.08-12.06,0-.54.05-1.24.38-1.58.78-.8,1.16-.69,1.98.27.61-1.06,1.22-2.11,1.86-3.23.2.26.33.42.47.61.4-.56.78-1.11,1.23-1.74.18.29.3.46.4.64.42.76,1.11.91,1.72.34.86-.81,1.71-1.65,2.56-2.47.05,0,.11,0,.16,0Z"/><path class="cls-5" d="M374.2,420.85c.01,1.69.03,3.38.04,5.08-1.11,2.35-2.68,4.16-5.4,4.61-2.79-1.17-4.94,1.42-7.55,1.28-.83-.11-1.65-.22-2.48-.33-.18-.05-.37-.1-.55-.14-1.82-.73-3.56-1.6-4.98-3.01-.4-.73-.63-1.57-1.35-2.09.58-2.86-1.34-3.99-3.45-5-1.17-1.64-1.06-3.54-1.15-5.41.27-.98.52-1.94-1-2.07-.19-.02-.37-.18-.55-.29-.95-.58-1.24-1.63-1.67-2.53-1.58-3.31-4.11-6.35-2.54-10.51,1.35-3.58,3.89-5.79,7.32-7.09.92-.35,1.27-.47,1.12-1.7-.85-7.11,4.83-13.71,12.03-14.42,1.57-.15,3.13-.35,4.7-.29.8.03,1.25-.39,1.77-.88,2.91-2.77,6.26-4.72,10.32-5.28,2.5.44,4.99.45,7.49,0,1.79.7,3.67,1.08,5.4,2.02,3.26,1.76,5.89,4.1,7.68,7.34.31.57.53.97,1.33,1.03,4.02.28,6.72,2.39,8.07,6.19.18.49.29.82.93.87,11.48.92,14.07,14.68,8.34,22.02-.93,1.18-1.66,2.51-3.16,3.08-.24.14-.48.29-.72.43,0,0,0-.01,0-.01-.53,0-1.07,0-1.7,0,.36,1.65.16,3.34.23,5.03-.47,3.09-2.34,5.14-4.91,6.68-.46.28-.94.51-1.41.77-1.51.15-2.64,1.47-4.23,1.37-1.93-.15-3.86-.3-5.79-.45h-.01c-.18-.33-.47-.43-.82-.41-.58-.3-1.15-.57-1.71.03-.29-.02-.58-.03-.87-.05-2.5.2-4.85-.42-7.15-1.29-1.78-.86-2.78-2.5-3.95-4.17-.61,1.32-1.52,2.23-2.58,2.98-1.44-.21-2.2,1.91-3.81,1.11-.14-.11-.29-.22-.43-.34,0,0,0,.01,0,.01-.2-1.41.45-3-.83-4.19"/><path class="cls-8" d="M120.87,516.43c.46,1.56,1.34,3.12,1.32,4.67-.24,18.47-.5,36.93-.97,55.39-.45,17.65-1.23,35.3-1.71,52.96-.11,4.07.25,8.18.67,12.24.31,3.01,1.92,3.68,4.55,2.06,3.26-2.01,5.21-4.85,5.18-8.85-.04-5.37,0-10.74,0-16.26,2.41-.22,3.97-.37,6.09-.56-.51,4.11-.96,8.01-1.49,11.89-.73,5.34-1.48,10.67-2.31,15.99-.14.94-.44,2.1-1.09,2.67-5.81,5.02-7.71,11.84-8.31,18.98-1.63,19.25-.03,38.24,5.45,56.85,2.19,7.45,6.55,13.02,13.66,16.09,9.14,3.95,18.42,7.56,27.64,11.3.63.26,1.29.45,1.87,1.23-4.94-.43-9.9-.71-14.82-1.32-5.04-.63-10.08-1.39-15.04-2.44-4.92-1.05-9.75-2.54-14.36-3.77,1.7,3.13,3.48,6.43,5.26,9.72-.25.18-.5.36-.76.55-1.04-.52-2.09-1.02-3.12-1.56-4.94-2.64-10.01-4.78-15.63-5.75-3.44-.59-6.69-2.25-10.27-3.51-3.96,6.9-10.07,11.74-18.96,14.23,2.74-5.17,5.28-9.73,5.39-15.31-.69.12-1.2.1-1.6.3-6.57,3.31-13.62,4.12-20.86,4.52-4.95.27-9.83,1.66-14.78,2.1-4.1.37-8.26.07-12.4.07-.14-.44-.29-.88-.43-1.32,1.12-.95,2.15-2.05,3.38-2.84,6.45-4.14,13.85-5.37,21.2-6.71,1.47-.27,2.95-.47,4.41-.79,8.79-1.94,12.41-6.2,12.76-16.17.49-13.85.69-27.72.78-41.58.2-31.65.31-63.29.34-94.94.02-14.67-.27-29.35-.28-44.02,0-1.96.18-4.54,1.37-5.76,2.86-2.92,4.23-2.52,7.22.99,2.24-3.88,4.44-7.7,6.79-11.77.72.94,1.19,1.53,1.73,2.24,1.46-2.06,2.85-4.03,4.5-6.36.66,1.05,1.09,1.67,1.45,2.32,1.55,2.78,4.05,3.33,6.26,1.24,3.15-2.96,6.23-6.01,9.33-9.01.2,0,.4,0,.6,0Z"/><path class="cls-5" d="M209.86,422.42c-2.33-.19-2.75-1.36-3.4-3.17-4.94-13.84-14.79-21.54-29.46-22.57-2.93-.21-3.72-1.69-4.86-3.76-6.54-11.84-16.13-20.35-28.03-26.78-6.33-3.42-13.19-4.8-19.71-7.36-9.11,1.62-18.22,1.61-27.33,0-14.79,2.05-27.01,9.16-37.64,19.28-1.89,1.8-3.54,3.33-6.46,3.21-5.74-.25-11.42.49-17.15,1.04-14.72,1.44-26.79,9.19-34.81,20.69v165c5.17,5.12,14.36,9.07,21.01,11.75.67.17,1.34.35,2.01.52,3.01.4,6.02.79,9.04,1.19,9.54.51,17.39-8.93,27.57-4.66,9.95-1.66,15.69-8.25,19.72-16.83-.05-6.18-.09-12.35-.14-18.53h0c4.67,4.36,2.33,10.12,3.04,15.27.52.41,1.04.81,1.56,1.22,5.88,2.9,8.64-4.84,13.9-4.07,3.87-2.76,7.15-6.05,9.4-10.88,4.26,6.1,7.9,12.06,14.41,15.21,8.42,3.16,16.99,5.43,26.11,4.7,1.05.06,2.11.12,3.17.18,2.04-2.22,4.15-1.21,6.25-.12,1.27-.07,2.34.28,2.98,1.48l.05.02c7.04.55,14.08,1.1,21.13,1.65,5.81.37,9.94-4.44,15.45-5.01,1.72-.93,3.48-1.8,5.15-2.8,9.38-5.62,16.21-13.13,17.92-24.39-.26-6.15.49-12.33-.84-18.35,2.31,0,4.26,0,6.21,0,0,0,.01.04.01.04.88-.52,1.76-1.05,2.64-1.57,5.48-2.07,8.16-6.9,11.54-11.22,20.92-26.78,11.49-76.99-30.42-80.36Z"/><path class="cls-2" d="M235.49,477.52c-1.84-14.18-8.98-24.87-22.33-30.89-7.1-3.2-8.17-2.54-8.42,4.98-.13,3.92.3,7.93-2.32,12.31-.21-.6-.36-.83-.37-1.06-1.17-25.78-6.51-31.69-31.74-34.44-3.39-.37-3.89-2-4.21-4.73-.82-7-3.79-14.66-10.22-15.96-10.75-2.17-16.04-9.81-23.32-16.18-15.76-13.79-47.93-8.08-60.17,9.8-2.35,3.43-3.98,5.16-8.79,3.67-30.45-9.42-57.03,10.6-56.26,42.45.15,6.35-.4,9.82-6.33,12.53v50c1.73-.81,2.64-2.19,4.02-.39,1.49,1.95-.57,3.55-1.74,5.11-.88,1.17-1.64,2.37-2.29,3.58v19.7c1.89,3.67,4.41,7.31,8.61,9.75,4.08,2.37,5.17,4.86,5.62,9.17,1.32,12.84,7.12,17.66,19.4,17.07,7.29-.35,12.58-4,16.38-9.97,2.09-3.29,4.36-5.19,8.75-5.49,7.23-.5,11.23-6.33,11.67-13.89.24-4.21-2.57-7.74-2.41-12.12,5.79.6,8.62,5.25,13.54,7.95-.29-6.46,2.44-7.05,7.43-4.76,4.75,2.19,9.6,1.23,14.23-1.26,6.1-3.28,8.59-9.06,10.82-15.76,2.05,5.58-2.08,12.96,6.19,15.2.32.09.31,1.37.45,2.09,3.98,20,12.29,25.46,32.16,20.98,1.97-.44,3.54-.93,5.52.42,14.37,9.85,28.18,8.75,40.46-3.33,9.21-9.06,13.89-20.15,14.08-33.15.05-3.19-1-6.6,1.37-11.35,1.27,2.05,2.05,3.06,2.57,4.18,3.35,7.14,6.45,3.65,9.27-.32,7.67-10.79,10.1-22.97,8.42-35.87Z"/><path class="cls-8" d="M999.58,426c.52,1.74,1.5,3.49,1.48,5.22-.26,20.64-.56,41.28-1.09,61.92-.51,19.73-1.38,39.46-1.91,59.19-.12,4.55.28,9.14.75,13.68.35,3.37,2.15,4.11,5.09,2.3,3.65-2.25,5.82-5.42,5.79-9.89-.04-6-.01-12-.01-18.18,2.7-.25,4.44-.41,6.8-.63-.57,4.59-1.08,8.95-1.67,13.29-.81,5.96-1.66,11.93-2.58,17.87-.16,1.05-.49,2.35-1.22,2.98-6.5,5.61-8.62,13.23-9.29,21.21-1.83,21.52-.03,42.74,6.09,63.55,2.45,8.32,7.33,14.56,15.27,17.99,10.21,4.41,20.59,8.45,30.9,12.64.71.29,1.44.51,2.09,1.38-5.52-.48-11.07-.79-16.57-1.48-5.63-.7-11.27-1.55-16.82-2.73-5.5-1.17-10.9-2.84-16.05-4.21,1.89,3.5,3.89,7.18,5.88,10.87-.28.2-.56.41-.84.61-1.16-.58-2.34-1.14-3.48-1.75-5.53-2.95-11.19-5.34-17.47-6.43-3.84-.66-7.47-2.51-11.48-3.93-4.43,7.71-11.25,13.13-21.2,15.91,3.06-5.78,5.9-10.88,6.03-17.11-.77.13-1.34.11-1.79.33-7.34,3.7-15.23,4.61-23.32,5.05-5.53.3-10.98,1.85-16.52,2.35-4.58.41-9.23.08-13.85.08-.16-.49-.32-.98-.48-1.47,1.25-1.07,2.41-2.29,3.78-3.17,7.21-4.63,15.48-6,23.7-7.5,1.64-.3,3.3-.52,4.93-.88,9.82-2.17,13.87-6.93,14.26-18.07.55-15.48.78-30.98.87-46.47.22-35.37.34-70.75.38-106.12.02-16.4-.3-32.8-.32-49.2,0-2.19.2-5.07,1.53-6.44,3.2-3.27,4.73-2.82,8.07,1.11,2.5-4.34,4.97-8.61,7.59-13.16.81,1.05,1.33,1.71,1.93,2.5,1.63-2.3,3.19-4.51,5.03-7.11.74,1.18,1.22,1.87,1.62,2.6,1.73,3.11,4.53,3.72,7,1.39,3.52-3.31,6.96-6.71,10.43-10.08.22,0,.45,0,.67,0Z"/><path class="cls-5" d="M954.13,453.95c.05,6.9.1,13.81.15,20.71-4.51,9.59-10.93,16.96-22.04,18.82-11.37-4.77-20.15,5.78-30.81,5.21-3.37-.44-6.74-.88-10.1-1.33-.75-.2-1.5-.39-2.25-.58-7.43-2.99-14.52-6.55-20.29-12.27-1.63-2.98-2.56-6.41-5.53-8.52,2.35-11.65-5.47-16.28-14.08-20.38-4.77-6.67-4.31-14.45-4.7-22.05,1.08-3.98,2.13-7.92-4.07-8.46-.77-.07-1.5-.75-2.22-1.19-3.86-2.38-5.05-6.63-6.82-10.32-6.46-13.51-16.75-25.92-10.37-42.86,5.49-14.59,15.85-23.6,29.85-28.91,3.76-1.42,5.17-1.9,4.57-6.93-3.45-29.02,19.71-55.94,49.08-58.8,6.4-.62,12.76-1.44,19.17-1.17,3.27.14,5.11-1.57,7.22-3.58,11.88-11.31,25.54-19.26,42.08-21.55,10.18,1.81,20.37,1.83,30.55.01,7.29,2.85,14.96,4.4,22.03,8.22,13.3,7.19,24.03,16.7,31.33,29.94,1.27,2.31,2.15,3.97,5.43,4.2,16.4,1.16,27.41,9.76,32.93,25.23.72,2.02,1.19,3.33,3.8,3.54,46.84,3.77,57.38,59.89,34,89.82-3.77,4.83-6.77,10.23-12.9,12.55-.98.59-1.97,1.17-2.95,1.76,0,0-.01-.04-.01-.04-2.18,0-4.36,0-6.94,0,1.48,6.73.65,13.64.94,20.52-1.91,12.58-9.55,20.98-20.03,27.26-1.87,1.12-3.84,2.09-5.76,3.13-6.16.63-10.77,6.01-17.26,5.59-7.87-.61-15.74-1.23-23.62-1.84l-.06-.03c-.72-1.34-1.91-1.74-3.33-1.65-2.35-1.21-4.71-2.34-6.99.13-1.18-.07-2.36-.13-3.54-.2-10.19.82-19.77-1.72-29.18-5.25-7.27-3.52-11.35-10.18-16.11-17-2.51,5.4-6.18,9.08-10.5,12.16-5.87-.86-8.96,7.79-15.53,4.55-.59-.46-1.17-.92-1.76-1.38,0,0,.02.05.02.05-.8-5.77,1.83-12.22-3.4-17.11"/><path class="cls-2" d="M1094.01,370.33c2.9-4.85,2.42-9.29,2.56-13.63.27-8.32,1.46-9.05,9.32-5.51,14.79,6.66,22.68,18.49,24.72,34.19,1.86,14.29-.83,27.77-9.32,39.71-3.12,4.39-6.55,8.25-10.26.35-.58-1.24-1.44-2.36-2.85-4.63-2.62,5.27-1.47,9.04-1.52,12.57-.21,14.4-5.39,26.67-15.58,36.7-13.6,13.37-28.88,14.59-44.79,3.69-2.19-1.5-3.93-.96-6.11-.47-21.99,4.96-31.19-1.08-35.6-23.22-.16-.8-.15-2.22-.5-2.31-9.15-2.47-4.58-10.64-6.85-16.82-2.47,7.41-5.22,13.81-11.97,17.44-5.12,2.76-10.49,3.82-15.75,1.4-5.52-2.54-8.54-1.89-8.22,5.27-5.44-2.99-8.57-8.14-14.98-8.8-.18,4.85,2.93,8.75,2.66,13.42-.48,8.37-4.92,14.82-12.92,15.38-4.86.34-7.38,2.44-9.69,6.08-4.2,6.61-10.05,10.66-18.13,11.04-13.6.65-20.02-4.68-21.48-18.9-.49-4.77-1.7-7.52-6.22-10.15-13.79-8.03-16.5-23.92-7-36.57,1.3-1.72,3.57-3.49,1.92-5.66-1.52-2-4.19-.98-6.11-.08-9.15,4.29-13.01-1.55-16.21-8.38-7.92-16.91-.39-38.95,16.71-46.77,6.57-3,8.35-6.54,8.18-13.57-.85-35.26,28.57-57.42,62.28-46.99,5.32,1.65,7.13-.27,9.73-4.06,13.55-19.8,49.16-26.12,66.61-10.85,8.06,7.05,13.92,15.51,25.82,17.91,7.12,1.44,10.41,9.92,11.32,17.67.36,3.03.91,4.83,4.66,5.24,27.92,3.05,33.84,9.59,35.13,38.13.01.26.17.52.41,1.18Z"/><path class="cls-2" d="M406.25,399.95c.72-1.2.6-2.3.64-3.38.07-2.06.36-2.24,2.31-1.36,3.66,1.65,5.62,4.58,6.12,8.47.46,3.54-.2,6.88-2.31,9.83-.77,1.09-1.62,2.04-2.54.09-.14-.31-.36-.58-.71-1.15-.65,1.3-.36,2.24-.38,3.11-.05,3.57-1.33,6.6-3.86,9.09-3.37,3.31-7.15,3.61-11.09.91-.54-.37-.97-.24-1.51-.12-5.45,1.23-7.72-.27-8.82-5.75-.04-.2-.04-.55-.12-.57-2.27-.61-1.13-2.64-1.7-4.17-.61,1.84-1.29,3.42-2.97,4.32-1.27.68-2.6.95-3.9.35-1.37-.63-2.11-.47-2.04,1.3-1.35-.74-2.12-2.02-3.71-2.18-.04,1.2.73,2.17.66,3.32-.12,2.07-1.22,3.67-3.2,3.81-1.2.08-1.83.6-2.4,1.51-1.04,1.64-2.49,2.64-4.49,2.73-3.37.16-4.96-1.16-5.32-4.68-.12-1.18-.42-1.86-1.54-2.51-3.42-1.99-4.09-5.92-1.73-9.06.32-.43.88-.87.48-1.4-.38-.49-1.04-.24-1.51-.02-2.26,1.06-3.22-.38-4.01-2.08-1.96-4.19-.1-9.64,4.14-11.58,1.63-.74,2.07-1.62,2.02-3.36-.21-8.73,7.08-14.22,15.42-11.64,1.32.41,1.77-.07,2.41-1.01,3.36-4.9,12.18-6.47,16.5-2.69,2,1.75,3.45,3.84,6.39,4.44,1.76.36,2.58,2.46,2.8,4.38.09.75.23,1.2,1.16,1.3,6.92.75,8.38,2.37,8.7,9.44,0,.06.04.13.1.29Z"/><path class="cls-8" d="M856.25,616.66c2.39-1.77,4.62-3.44,6.86-5.1.12.14.24.28.37.41-1.53,1.79-3.05,3.57-4.58,5.36.11.18.23.35.34.53,1.06-.32,2.12-.63,3.55-1.06-.73,1.21-1.25,2.06-2.02,3.35,1.74,0,3.1.07,4.45-.02,2.54-.16,4.55.74,6.39,2.49,1.62,1.53,3.54,2.75,5.39,4.15-3.03,1.36-6.31,1.23-9.3-.58-2.9-1.76-5.47-1.53-8.07.31-2.96,2.09-6.08,3.35-9.85,2.89-1.85-.23-3.01,1.01-3.4,3.04h3.58c-3.25,2.29-5.76,4.84-9.75,4.88-3.79.03-7.31-.08-8.7-4.91l-.96.59v15.64c-4.65-2.39-7.48-5.24-8.87-9.49-.44-1.35-1.15-2.63-1.85-3.88-.94-1.68-2.15-3.22-2.97-4.95-2.14-4.5-5.99-6.61-10.85-5.57-4.59.98-9.02,2.25-13.47,4.01-5,1.98-8.9,4.94-12.77,8.65-.33-3.47,1.28-7.22,3.6-9.73,1.14-1.24,1.88-2.86,2.66-4.09-5.59-.76-10.62-1.57-15.68-2.04-1.44-.13-2.98.72-4.47,1.13-1.75.48-3.57,1.56-5.22,1.33-3.85-.52-7.5-.58-10.94,1.7-.19-.31-.38-.63-.56-.94,1.15-1.03,2.16-2.31,3.48-3.02,1.27-.68,2.84-.81,4.3-1.13,3.26-.71,5.94-2.22,8.34-4.67,1.6-1.63,3.97-2.52,6.25-3.89-1.94-1.05-4.02-2.18-6.11-3.31.01-.13.02-.25.03-.38,2.21.74,4.41,1.49,6.66,2.24-.42-2.9-3.23-4.87-10.4-7.32,5.6-.79,9.96,2.16,14.27,5.27.21-.26.41-.52.62-.77-1.13-1.78-2.25-3.55-3.72-5.86,2.23,1.47,4.05,2.67,5.87,3.88.2-.14.39-.28.59-.43-1.88-2.57-3.77-5.13-5.73-7.81,4.21,1.85,6.91,4.85,8.46,9.39.23-.82.6-1.56.62-2.32.17-5.44.42-10.88.34-16.32-.06-4.27,1.8-7.45,5.64-8.56,5.34-1.54,10.89-2.78,16.42-3.17,10.61-.76,21.28-.54,31.7,1.87,3.97.92,7.74,2.78,11.5,4.44,2.89,1.28,3.87,3.67,3.68,6.89-.33,5.61-.32,11.23-.37,16.85-.01,1.28.3,2.56.95,3.85.35-1.14.69-2.28,1.04-3.41l.42-.07c.26,1.7.51,3.41.84,5.57,2.16-1.87,4.16-3.59,6.15-5.32.16.16.32.33.48.49-1.93,2.85-4.91,5.15-5.22,8.92ZM815.83,594.61c5.96,0,12.01.64,17.85-.19,5.35-.76,10.48-3.11,15.7-4.76.08-.03.15-.09.22-.14,1.93-1.33,1.98-3.11-.15-4-4.43-1.87-8.85-4.39-13.5-5.04-10.14-1.41-20.41-2.31-30.64-2.43-5.29-.07-10.65,1.77-15.87,3.14-2.18.57-4.54,2.39-4.07,4.83.29,1.52,2.44,3.12,4.12,3.86,8.37,3.67,17.1,5.82,26.34,4.74Z"/><path class="cls-10" d="M815.83,594.61c-9.23,1.09-17.97-1.07-26.34-4.74-1.68-.74-3.83-2.34-4.12-3.86-.46-2.44,1.9-4.26,4.07-4.83,5.22-1.37,10.59-3.2,15.87-3.14,10.23.13,20.5,1.02,30.64,2.43,4.65.65,9.06,3.16,13.5,5.04,2.12.9,2.08,2.68.15,4-.07.05-.14.11-.22.14-5.22,1.65-10.35,4-15.7,4.76-5.84.83-11.89.19-17.85.19ZM807.07,589.78c3.38-.2,5.56-4.85,9.74-2.91-.13.82-.25,1.6-.47,2.93.84-1.23,1.35-1.98,2.09-3.08,1.33,1.41,2.48,2.63,3.62,3.84.11-.09.22-.19.32-.28-1.2-1.49-2.4-2.98-3.66-4.54.64-.12,1.22-.22,1.88-.34-.84-.29-1.59-.56-2.56-.89.7-1.02,1.2-1.75,1.97-2.85-.74.33-1.15.39-1.33.62-1.77,2.33-3.57,1.81-5.65.36-1.05-.72-2.47-.9-3.73-1.33-.02.09-.03.18-.05.27l4.21,2.28c-.11.28-.22.55-.33.83h-7.96s.02.07.02.1c2.1.25,4.2.49,7.09.83-2.19,1.75-3.69,2.96-5.21,4.17Z"/></g><g id="lamposts"><path d="M574.67,583.09c0,.59-1.74,30.6-1.74,30.6.09.22,2.9.39,3.29.48.54.13.8.77.58,1.28-.17.39-.63.67-1,.95-.11.09-.34.03-.51.03-3.34,0-6.69,0-10.03,0-.63,0-1.13-.17-1.38-.78-.26-.62.04-1.4.7-1.57.27-.07,3.03-.17,3.11-.31,0,0-1.69-30.31-1.69-30.67-.34,0-.6,0-.87,0-.8-.03-1.32-.49-1.34-1.19-.02-.74.49-1.26,1.33-1.28,1.14-.03,2.28,0,3.42-.01.15,0,1.16-.03,1.43-.05l-.12-47.81c-.11-.78-2.99-1.41-2.99-1.41,0,0,1.94-.62,2.07-1.33.23-1.22.96-1.29.96-1.29-.41,0-1.72,0-2.15,0-1.29,0-2.58,0-3.86,0-1.07,0-1.54-.27-1.68-.97-.13-.63.21-1.09,1.18-1.54-1.22-5.79-2.45-11.59-3.68-17.4-.29-.03-1.79-1.28-1.79-1.28,0,0,2.76,1.05,2.96.01.45-2.31,4.64-4.06,8.31-4.06,1.75,0,.83-9.38.83-9.38l.3-1.09.35,1.12s-1.49,9.35,1.13,9.35c3.49,0,6.98,1.75,8.29,4.06.62,1.09,2.68-.06,2.68-.06,0,0-1.83,1.49-1.94,2.01-1.15,5.5-2.32,10.99-3.48,16.49-.02.07,0,.15-.02.27.12.05.25.1.37.16.58.27.9.73.77,1.37-.13.63-.58.95-1.24.95-1.51,0-3.02,0-4.53,0-.51,0-1.85.09-1.85.09,0,0,.68.47.81,1.28.15.44,2.12,1.35,2.12,1.35,0,0-1.97-.04-3.02,1.16v48.03c1.2,0,3.25,0,4.44,0,.27,0,.55,0,.81.08.6.18.89.62.86,1.23-.03.66-.42,1.05-1.06,1.14-.34.05-.69,0-1.12,0ZM569.8,526.33v-17.53h-9.15c.36,1.7.71,3.34,1.05,4.98.84,3.97,1.69,7.94,2.51,11.91.1.47.26.66.77.64,1.56-.03,3.12-.01,4.81-.01ZM570.86,508.8v17.49h5.44c1.24-5.83,2.47-11.63,3.71-17.49h-9.15Z"/><path class="cls-4" d="M569.8,526.33c-1.69,0-3.25-.02-4.81.01-.51.01-.67-.18-.77-.64-.82-3.97-1.67-7.94-2.51-11.91-.35-1.64-.69-3.29-1.05-4.98h9.15v17.53Z"/><path class="cls-4" d="M570.86,508.8h9.15c-1.24,5.86-2.47,11.66-3.71,17.49h-5.44v-17.49Z"/><path d="M900.8,863.46c0,1.21-3.57,62.65-3.57,62.65.18.45,5.93.8,6.74.99,1.1.26,1.64,1.57,1.19,2.62-.34.8-1.29,1.37-2.04,1.94-.23.18-.69.07-1.04.07-6.85,0-13.7-.01-20.54.01-1.29,0-2.31-.35-2.83-1.6-.53-1.26.09-2.86,1.44-3.21.55-.14,6.21-.35,6.38-.64,0,0-3.46-62.05-3.46-62.79-.69,0-1.23.02-1.77,0-1.64-.05-2.7-1.01-2.75-2.44-.05-1.51,1.01-2.58,2.72-2.62,2.33-.05,4.67-.02,7-.03.3,0,2.39-.05,2.92-.11l-.25-97.9c-.24-1.6-6.13-2.9-6.13-2.9,0,0,3.96-1.26,4.24-2.73.48-2.5,1.96-2.64,1.96-2.64-.84,0-3.52,0-4.4,0-2.64,0-5.28,0-7.91,0-2.19,0-3.15-.56-3.43-1.98-.26-1.3.43-2.23,2.41-3.16-2.51-11.85-5.02-23.73-7.54-35.63-.6-.06-3.67-2.62-3.67-2.62,0,0,5.64,2.15,6.06.02.93-4.74,9.5-8.31,17.01-8.31,3.57,0,1.7-19.2,1.7-19.2l.62-2.24.72,2.3s-3.04,19.14,2.32,19.14c7.15,0,14.3,3.57,16.97,8.31,1.26,2.24,5.48-.13,5.48-.13,0,0-3.75,3.05-3.97,4.11-2.35,11.26-4.75,22.51-7.13,33.77-.03.15-.02.3-.03.55.24.1.5.21.76.33,1.19.56,1.85,1.48,1.57,2.8-.27,1.3-1.19,1.95-2.54,1.95-3.09,0-6.19,0-9.28,0-1.04,0-3.79.19-3.79.19,0,0,1.39.96,1.66,2.62.3.9,4.34,2.77,4.34,2.77,0,0-4.04-.08-6.18,2.37v98.34c2.46,0,6.66,0,9.08,0,.55,0,1.13,0,1.65.16,1.22.36,1.83,1.27,1.77,2.52-.07,1.34-.86,2.15-2.18,2.34-.69.1-1.4.02-2.29.02ZM890.83,747.24v-35.89h-18.73c.74,3.48,1.45,6.84,2.16,10.21,1.72,8.13,3.46,16.25,5.14,24.39.2.96.54,1.34,1.57,1.32,3.19-.07,6.39-.03,9.86-.03ZM893,711.34v35.81h11.14c2.53-11.94,5.05-23.82,7.59-35.81h-18.73Z"/><path class="cls-4" d="M890.83,747.24c-3.47,0-6.66-.04-9.86.03-1.04.02-1.38-.36-1.57-1.32-1.69-8.14-3.42-16.26-5.14-24.39-.71-3.36-1.42-6.73-2.16-10.21h18.73v35.89Z"/><path class="cls-4" d="M893,711.34h18.73c-2.54,12-5.06,23.88-7.59,35.81h-11.14v-35.81Z"/><path d="M703.09,697.54c0,.68-2,35.06-2,35.06.1.25,3.32.45,3.77.55.62.14.92.88.67,1.47-.19.45-.72.76-1.14,1.09-.13.1-.39.04-.58.04-3.83,0-7.66,0-11.5,0-.72,0-1.29-.2-1.58-.9-.29-.71.05-1.6.81-1.8.31-.08,3.48-.19,3.57-.36,0,0-1.94-34.73-1.94-35.14-.39,0-.69,0-.99,0-.92-.03-1.51-.56-1.54-1.36-.03-.84.57-1.45,1.52-1.47,1.31-.03,2.61,0,3.92-.02.17,0,1.33-.03,1.64-.06l-.14-54.79c-.13-.9-3.43-1.62-3.43-1.62,0,0,2.22-.71,2.37-1.53.27-1.4,1.09-1.48,1.09-1.48-.47,0-1.97,0-2.46,0-1.48,0-2.95,0-4.43,0-1.23,0-1.76-.31-1.92-1.11-.14-.73.24-1.25,1.35-1.77-1.4-6.63-2.81-13.28-4.22-19.94-.34-.03-2.05-1.47-2.05-1.47,0,0,3.16,1.21,3.39.01.52-2.65,5.32-4.65,9.52-4.65,2,0,.95-10.75.95-10.75l.35-1.25.4,1.29s-1.7,10.71,1.3,10.71c4,0,8,2,9.5,4.65.71,1.25,3.07-.07,3.07-.07,0,0-2.1,1.71-2.22,2.3-1.31,6.3-2.66,12.6-3.99,18.9-.02.08-.01.17-.02.31.13.06.28.12.42.18.67.31,1.04.83.88,1.57-.15.73-.66,1.09-1.42,1.09-1.73,0-3.46,0-5.19,0-.58,0-2.12.11-2.12.11,0,0,.78.54.93,1.46.17.5,2.43,1.55,2.43,1.55,0,0-2.26-.04-3.46,1.33v55.03c1.38,0,3.73,0,5.08,0,.31,0,.63,0,.92.09.69.2,1.02.71.99,1.41-.04.75-.48,1.2-1.22,1.31-.39.06-.79.01-1.28.01ZM697.51,632.5v-20.08h-10.48c.41,1.95.81,3.83,1.21,5.71.96,4.55,1.93,9.1,2.88,13.65.11.54.3.75.88.74,1.79-.04,3.57-.01,5.52-.01ZM698.73,612.42v20.04h6.23c1.42-6.68,2.82-13.33,4.25-20.04h-10.48Z"/><path class="cls-4" d="M697.51,632.5c-1.94,0-3.73-.02-5.52.01-.58.01-.77-.2-.88-.74-.94-4.55-1.92-9.1-2.88-13.65-.4-1.88-.8-3.76-1.21-5.71h10.48v20.08Z"/><path class="cls-4" d="M698.73,612.42h10.48c-1.42,6.71-2.83,13.36-4.25,20.04h-6.23v-20.04Z"/><path d="M701.08,526.47c0,.36-1.06,18.62-1.06,18.62.05.13,1.76.24,2,.29.33.08.49.47.35.78-.1.24-.38.41-.61.58-.07.05-.21.02-.31.02-2.04,0-4.07,0-6.11,0-.38,0-.69-.11-.84-.48-.16-.38.03-.85.43-.96.16-.04,1.85-.1,1.9-.19,0,0-1.03-18.44-1.03-18.66-.21,0-.37,0-.53,0-.49-.02-.8-.3-.82-.72-.01-.45.3-.77.81-.78.69-.02,1.39,0,2.08,0,.09,0,.71-.02.87-.03l-.07-29.1c-.07-.48-1.82-.86-1.82-.86,0,0,1.18-.38,1.26-.81.14-.74.58-.78.58-.78-.25,0-1.04,0-1.31,0-.78,0-1.57,0-2.35,0-.65,0-.94-.17-1.02-.59-.08-.39.13-.66.72-.94-.75-3.52-1.49-7.05-2.24-10.59-.18-.02-1.09-.78-1.09-.78,0,0,1.68.64,1.8,0,.28-1.41,2.82-2.47,5.06-2.47,1.06,0,.51-5.71.51-5.71l.19-.67.21.68s-.9,5.69.69,5.69c2.12,0,4.25,1.06,5.04,2.47.38.67,1.63-.04,1.63-.04,0,0-1.11.91-1.18,1.22-.7,3.35-1.41,6.69-2.12,10.04,0,.04,0,.09-.01.16.07.03.15.06.23.1.36.17.55.44.47.83-.08.39-.35.58-.75.58-.92,0-1.84,0-2.76,0-.31,0-1.13.06-1.13.06,0,0,.41.28.49.78.09.27,1.29.82,1.29.82,0,0-1.2-.02-1.84.7v29.23c.73,0,1.98,0,2.7,0,.16,0,.34,0,.49.05.36.11.54.38.52.75-.02.4-.26.64-.65.7-.2.03-.42,0-.68,0ZM698.12,491.92v-10.67h-5.57c.22,1.03.43,2.03.64,3.03.51,2.42,1.03,4.83,1.53,7.25.06.29.16.4.47.39.95-.02,1.9,0,2.93,0ZM698.76,481.26v10.64h3.31c.75-3.55,1.5-7.08,2.26-10.64h-5.57Z"/><path class="cls-4" d="M698.12,491.92c-1.03,0-1.98-.01-2.93,0-.31,0-.41-.11-.47-.39-.5-2.42-1.02-4.83-1.53-7.25-.21-1-.42-2-.64-3.03h5.57v10.67Z"/><path class="cls-4" d="M698.76,481.26h5.57c-.76,3.57-1.5,7.1-2.26,10.64h-3.31v-10.64Z"/><path d="M1077.04,618.67c0,.36-1.06,18.66-1.06,18.66.05.13,1.77.24,2.01.29.33.08.49.47.35.78-.1.24-.38.41-.61.58-.07.05-.21.02-.31.02-2.04,0-4.08,0-6.12,0-.38,0-.69-.11-.84-.48-.16-.38.03-.85.43-.96.16-.04,1.85-.1,1.9-.19,0,0-1.03-18.49-1.03-18.7-.21,0-.37,0-.53,0-.49-.02-.81-.3-.82-.73-.01-.45.3-.77.81-.78.69-.02,1.39,0,2.09,0,.09,0,.71-.02.87-.03l-.07-29.16c-.07-.48-1.82-.86-1.82-.86,0,0,1.18-.38,1.26-.81.14-.75.58-.79.58-.79-.25,0-1.05,0-1.31,0-.79,0-1.57,0-2.36,0-.65,0-.94-.17-1.02-.59-.08-.39.13-.66.72-.94-.75-3.53-1.5-7.07-2.25-10.62-.18-.02-1.09-.78-1.09-.78,0,0,1.68.64,1.81,0,.28-1.41,2.83-2.48,5.07-2.48,1.06,0,.51-5.72.51-5.72l.19-.67.21.69s-.91,5.7.69,5.7c2.13,0,4.26,1.06,5.05,2.48.38.67,1.63-.04,1.63-.04,0,0-1.12.91-1.18,1.22-.7,3.35-1.41,6.71-2.12,10.06,0,.04,0,.09-.01.16.07.03.15.06.23.1.36.17.55.44.47.83-.08.39-.35.58-.76.58-.92,0-1.84,0-2.77,0-.31,0-1.13.06-1.13.06,0,0,.41.29.5.78.09.27,1.29.82,1.29.82,0,0-1.2-.02-1.84.71v29.3c.73,0,1.99,0,2.71,0,.16,0,.34,0,.49.05.36.11.54.38.53.75-.02.4-.26.64-.65.7-.21.03-.42,0-.68,0ZM1074.07,584.04v-10.69h-5.58c.22,1.04.43,2.04.64,3.04.51,2.42,1.03,4.84,1.53,7.27.06.29.16.4.47.39.95-.02,1.9,0,2.94,0ZM1074.72,573.35v10.67h3.32c.75-3.56,1.5-7.09,2.26-10.67h-5.58Z"/><path class="cls-4" d="M1074.07,584.04c-1.03,0-1.99-.01-2.94,0-.31,0-.41-.11-.47-.39-.5-2.42-1.02-4.84-1.53-7.27-.21-1-.42-2-.64-3.04h5.58v10.69Z"/><path class="cls-4" d="M1074.72,573.35h5.58c-.76,3.57-1.51,7.11-2.26,10.67h-3.32v-10.67Z"/><path d="M401.7,464.6c0,.36-1.06,18.66-1.06,18.66.05.13,1.77.24,2.01.29.33.08.49.47.35.78-.1.24-.38.41-.61.58-.07.05-.21.02-.31.02-2.04,0-4.08,0-6.12,0-.38,0-.69-.11-.84-.48-.16-.38.03-.85.43-.96.16-.04,1.85-.1,1.9-.19,0,0-1.03-18.49-1.03-18.7-.21,0-.37,0-.53,0-.49-.02-.81-.3-.82-.73-.01-.45.3-.77.81-.78.69-.02,1.39,0,2.09,0,.09,0,.71-.02.87-.03l-.07-29.16c-.07-.48-1.82-.86-1.82-.86,0,0,1.18-.38,1.26-.81.14-.75.58-.79.58-.79-.25,0-1.05,0-1.31,0-.79,0-1.57,0-2.36,0-.65,0-.94-.17-1.02-.59-.08-.39.13-.66.72-.94-.75-3.53-1.5-7.07-2.25-10.62-.18-.02-1.09-.78-1.09-.78,0,0,1.68.64,1.81,0,.28-1.41,2.83-2.48,5.07-2.48,1.06,0,.51-5.72.51-5.72l.19-.67.21.69s-.91,5.7.69,5.7c2.13,0,4.26,1.06,5.05,2.48.38.67,1.63-.04,1.63-.04,0,0-1.12.91-1.18,1.22-.7,3.35-1.41,6.71-2.12,10.06,0,.04,0,.09-.01.16.07.03.15.06.23.1.36.17.55.44.47.83-.08.39-.35.58-.76.58-.92,0-1.84,0-2.77,0-.31,0-1.13.06-1.13.06,0,0,.41.29.5.78.09.27,1.29.82,1.29.82,0,0-1.2-.02-1.84.71v29.3c.73,0,1.99,0,2.71,0,.16,0,.34,0,.49.05.36.11.54.38.53.75-.02.4-.26.64-.65.7-.21.03-.42,0-.68,0ZM398.73,429.98v-10.69h-5.58c.22,1.04.43,2.04.64,3.04.51,2.42,1.03,4.84,1.53,7.27.06.29.16.4.47.39.95-.02,1.9,0,2.94,0ZM399.38,419.29v10.67h3.32c.75-3.56,1.5-7.09,2.26-10.67h-5.58Z"/><path class="cls-4" d="M398.73,429.98c-1.03,0-1.99-.01-2.94,0-.31,0-.41-.11-.47-.39-.5-2.42-1.02-4.84-1.53-7.27-.21-1-.42-2-.64-3.04h5.58v10.69Z"/><path class="cls-4" d="M399.38,419.29h5.58c-.76,3.57-1.51,7.11-2.26,10.67h-3.32v-10.67Z"/></g><g id="bench"><path class="cls-9" d="M1230.96,714.22c.95-6.27.37-11.51-2.96-16.46-2.59-3.85-4.76-8.04-6.69-12.27-1.43-3.13-3.39-4.03-6.73-3.92-7.65.26-15.31.08-23.12.08v-19.87c7.94,0,15.61-.09,23.28.05,3.07.05,4.44-1.08,4.35-4.17-.1-3.28-.02-6.56-.02-9.84q0-6.94-6.9-6.94c-6.89,0-13.78,0-20.69,0v-4.86c5.8,0,11.32.06,16.84-.01,12.08-.16,10.69,2.01,10.72-10.91.03-10.79,1.23-9.95-9.94-9.94-5.87,0-11.75,0-17.53,0-1.39-10.93-2.85-13.64-7.69-13.36-8.57.49-7.31,7.34-7.61,13.01h-127.09c-.93-10.17-2.25-12.92-6.93-12.95-9.14-.06-7.95,7.16-8.3,13.31-8.03,0-15.71.05-23.38-.02-3.01-.03-4.43,1.18-4.35,4.27.1,3.53.02,7.06.01,10.6,0,5.95.06,6.02,5.81,6.02,4.16,0,8.33,0,12.49,0,3.1,0,6.2,0,9.28,0v4.86c-1.65,0-3.02,0-4.39,0-6.31,0-12.62.06-18.92-.03-3.06-.04-4.37,1.26-4.29,4.31.11,4.16.1,8.33,0,12.49-.07,3.09,1.28,4.27,4.34,4.19,5.17-.15,10.34-.04,15.52-.04,2.59,0,5.19,0,7.69,0v19.86c-8.43,0-16.5.07-24.56-.05-2.16-.03-3.42.63-4.43,2.58-2.66,5.15-5.27,10.36-8.41,15.22-3.02,4.67-2.43,9.51-2.15,14.96h19.34v4.58c0,7.95-.18,15.9.12,23.84.08,2.15,1.06,4.96,2.63,6.23,3.51,2.84,8.02,2.14,11.94.86,3.6-1.18,4.09-4.66,4.05-8.17-.09-8.94-.03-17.88-.03-27.14h160.77c0,1.66,0,3.03,0,4.4,0,7.95-.24,15.91.16,23.83.12,2.31,1.64,6.03,3.25,6.49,3.66,1.03,7.96,1.18,11.65.27,3.68-.91,3.71-4.85,3.68-8.27-.08-8.81-.03-17.63-.03-27.08h19.22ZM1175,676h-123v-9h123v9ZM1175,656h-123v-9h123v9ZM1175,632h-123v-3h123v3Z"/><path class="cls-9" d="M345.05,703.35c.69-4.54.27-8.33-2.14-11.91-1.88-2.79-3.44-5.82-4.84-8.88-1.03-2.26-2.46-2.92-4.87-2.83-5.53.19-11.07.06-16.73.06v-14.37c5.75,0,11.29-.07,16.84.03,2.22.04,3.21-.78,3.14-3.02-.07-2.37-.01-4.75-.01-7.12q0-5.02-4.99-5.02c-4.99,0-9.97,0-14.97,0v-3.52c4.19,0,8.19.04,12.19,0,8.74-.12,7.73,1.45,7.75-7.89.02-7.8.89-7.2-7.19-7.19-4.25,0-8.5,0-12.68,0-1.01-7.91-2.06-9.87-5.56-9.67-6.2.35-5.29,5.31-5.51,9.42h-91.95c-.68-7.36-1.63-9.35-5.01-9.37-6.62-.05-5.75,5.18-6,9.63-5.81,0-11.36.04-16.91-.02-2.17-.02-3.21.85-3.14,3.09.07,2.55.01,5.11.01,7.67,0,4.3.04,4.35,4.21,4.35,3.01,0,6.02,0,9.04,0,2.24,0,4.49,0,6.71,0v3.51c-1.19,0-2.19,0-3.18,0-4.56,0-9.13.04-13.69-.02-2.21-.03-3.16.91-3.1,3.12.08,3.01.07,6.02,0,9.03-.05,2.24.92,3.09,3.14,3.03,3.74-.11,7.48-.03,11.23-.03,1.88,0,3.75,0,5.57,0v14.37c-6.1,0-11.93.05-17.77-.03-1.57-.02-2.47.45-3.21,1.87-1.92,3.73-3.82,7.49-6.09,11.01-2.18,3.38-1.76,6.88-1.56,10.82h13.99v3.32c0,5.75-.13,11.5.09,17.25.06,1.56.77,3.59,1.9,4.51,2.54,2.05,5.8,1.55,8.64.62,2.6-.85,2.96-3.37,2.93-5.91-.07-6.47-.02-12.94-.02-19.63h116.31c0,1.2,0,2.19,0,3.18,0,5.75-.17,11.51.11,17.24.08,1.67,1.18,4.37,2.35,4.69,2.65.74,5.76.85,8.43.2,2.67-.65,2.68-3.51,2.66-5.98-.06-6.38-.02-12.75-.02-19.59h13.9ZM304.56,675.7h-88.99v-6.51h88.99v6.51ZM304.56,661.23h-88.99v-6.51h88.99v6.51ZM304.56,643.87h-88.99v-2.17h88.99v2.17Z"/></g></svg>