<?xml version="1.0" encoding="UTF-8"?><svg id="Layer_2" xmlns="http://www.w3.org/2000/svg" viewBox="0 0 78.96 54.06"><defs><style>.cls-1{fill:#f4c80f;}.cls-2{fill:#733a0d;}.cls-3{fill:#fdfdfd;}</style></defs><g id="trash"><g id="banana"><path class="cls-3" d="M59.76,41.08c3.36.35,6.19-.1,8.83-1.44,2.13-1.08,4.13-2.38,5.15-4.69,1.04-2.33,0-3.92-2.54-3.91-1.88,0-3.64.63-5.41,1.15-2.19.64-4.4.94-6.68.58-2.98-.47-4.36-1.93-4.57-4.85-.08-1.15-.16-2.31-.32-3.46-.47-3.6-1.28-7.09-3.96-9.76-.68-.68-.27-1.12,0-1.64,1.17-2.27,2.55-4.41,4.51-6.1.68-.58,1.02-1.25.85-2.13C55.21,2.53,51.62-.15,49.24,0c-.97.06-1.86.3-2.47,1.06-.76.94-1.52,1.91-2.08,2.98-1.2,2.25-1.85,4.7-2.33,7.21-.14.74-.15,1.56-1.06,2.02-2.27,1.15-3.79,3.14-5.25,5.12-1.62,2.19-2.32,4.82-3.06,7.4-.46,1.61-1.45,2.71-2.89,3.47-1.44.76-2.98,1.17-4.59,1.45-3.94.7-7.87-.16-11.8,0-1.63.07-3.22.32-4.44,1.61-.81.85-.82,1.61-.13,2.57,2.03,2.82,4.9,4.04,8.2,4.53,1.19.17,2.39.32,3.91.53-1.23.48-2.14.83-3.05,1.19-5.26,2.1-10.92,3.1-15.95,5.83C1.08,47.61.03,48.32,0,49.8c-.03,1.44,1.07,2.09,2.14,2.69.45.25.96.38,1.46.51,4.88,1.35,9.84,1.22,14.81.67,5.92-.65,11.54-2.23,16.68-5.32,4.08-2.45,7.2-5.81,9.38-10.48.78,3.41,2,6.16,4.23,8.4,3.24,3.25,7.29,4.74,11.68,5.45,4.96.8,9.94,1.24,14.85-.41,1.44-.49,2.75-1.18,3.43-2.66.71-1.54.03-3.06-1.55-3.34-1.06-.19-2.14-.28-3.21-.39-4.77-.51-9.65-.61-14.15-3.83Z"/><path class="cls-2" d="M59.76,41.08c4.5,3.22,9.38,3.32,14.15,3.83,1.07.11,2.15.21,3.21.39,1.58.28,2.27,1.8,1.55,3.34-.68,1.48-1.99,2.17-3.43,2.66-4.9,1.65-9.88,1.21-14.85.41-4.39-.71-8.45-2.19-11.68-5.45-2.23-2.24-3.45-4.99-4.23-8.4-2.18,4.68-5.3,8.03-9.38,10.48-5.14,3.09-10.77,4.67-16.68,5.32-4.97.55-9.93.69-14.81-.67-.5-.14-1.02-.27-1.46-.51C1.07,51.89-.03,51.24,0,49.8c.03-1.48,1.08-2.19,2.25-2.82,5.03-2.73,10.69-3.73,15.95-5.83.9-.36,1.81-.71,3.05-1.19-1.52-.21-2.71-.36-3.91-.53-3.3-.48-6.17-1.7-8.2-4.53-.69-.96-.68-1.72.13-2.57,1.23-1.29,2.82-1.54,4.44-1.61,3.93-.17,7.86.69,11.8,0,1.6-.28,3.15-.69,4.59-1.45,1.44-.76,2.43-1.86,2.89-3.47.74-2.58,1.44-5.21,3.06-7.4,1.46-1.97,2.98-3.97,5.25-5.12.91-.46.92-1.27,1.06-2.02.47-2.51,1.13-4.95,2.33-7.21.56-1.06,1.32-2.03,2.08-2.98.61-.76,1.5-.99,2.47-1.06,2.38-.16,5.97,2.52,6.4,4.83.16.88-.17,1.55-.85,2.13-1.96,1.69-3.34,3.83-4.51,6.1-.27.51-.67.96,0,1.64,2.68,2.68,3.48,6.17,3.96,9.76.15,1.15.24,2.3.32,3.46.2,2.92,1.58,4.38,4.57,4.85,2.28.36,4.49.06,6.68-.58,1.77-.52,3.53-1.14,5.41-1.15,2.55-.01,3.58,1.58,2.54,3.91-1.03,2.31-3.02,3.61-5.15,4.69-2.64,1.34-5.48,1.78-8.83,1.44ZM47.58,2.57c-.79.32-1.01,1-1.35,1.59-1.5,2.57-1.81,5.53-2.64,8.32-.22.74-.4,1.32-1.14,1.78-3.36,2.09-5.58,5.12-6.89,8.83-.54,1.52-.97,3.08-1.51,4.6-.93,2.65-1.88,5.34-3.68,7.52-3.19,3.87-7.46,6.09-12.14,7.71-4.63,1.6-9.39,2.86-13.91,4.77-1.13.48-2.54,1.1-2.41,2.35.15,1.45,1.8,1.62,3.03,1.84,8.78,1.58,17.26.37,25.45-3.01,5-2.07,9.24-5.19,11.71-10.11,3.47-6.92,3.79-14.45,3.67-22-.01-.84-.14-1.68-.02-2.53.4-2.74,1.53-5.2,2.92-7.55.34-.58.91-1.29.35-1.82-.69-.66-1.01-1.5-1.44-2.28ZM52.94,6.3c-1.17-.32-2.04-.57-2.74.4-2.34,3.19-4.2,6.51-3.17,10.71.18.72.21,1.49.23,2.23.16,4.36-.48,8.65-1.24,12.92-.95,5.31,1.39,12.1,5.83,14.57,7.4,4.1,15.37,5.29,23.65,2.98,1.04-.29,2.21-1.13,2.14-2.38-.08-1.43-1.56-1.05-2.49-1.28-.55-.13-1.15-.06-1.73-.1-2.71-.18-5.44-.34-8.07-1.05-6.11-1.66-10.68-5.04-11.99-11.6-.45-2.25-.36-4.61-.55-6.91-.34-4.19-.9-8.31-4.03-11.52-.72-.74-.43-1.46-.07-2.23,1.11-2.35,2.58-4.49,4.23-6.74ZM30.48,31.14c-1.41.33-2.8.64-4.18.99-4.83,1.22-9.82-1.03-14.65.69-.59.21-1.27.15-1.49.82-.25.75.22,1.15.85,1.6,2.99,2.18,6.38,2.88,9.97,2.97,4.23.11,8.53-3.08,9.5-7.07ZM54.99,32.87c.15,2.57,1.5,5.31,2.83,6.01,3.53,1.87,11.13.5,13.75-2.64.71-.85,1.67-2.08.93-3.29-.63-1.03-1.91-.57-2.88-.34-1.74.4-3.43,1.04-5.19,1.38-1.61.32-3.19,1.43-4.85.77-1.49-.59-3.12-.82-4.6-1.9Z"/><path class="cls-1" d="M47.58,2.57c.44.79.75,1.62,1.44,2.28.56.54,0,1.24-.35,1.82-1.39,2.36-2.53,4.81-2.92,7.55-.12.85,0,1.69.02,2.53.12,7.55-.2,15.08-3.67,22-2.47,4.92-6.71,8.04-11.71,10.11-8.19,3.39-16.67,4.59-25.45,3.01-1.23-.22-2.88-.39-3.03-1.84-.13-1.25,1.28-1.88,2.41-2.35,4.53-1.91,9.28-3.17,13.91-4.77,4.68-1.61,8.95-3.83,12.14-7.71,1.8-2.19,2.75-4.87,3.68-7.52.54-1.52.97-3.08,1.51-4.6,1.31-3.71,3.53-6.74,6.89-8.83.74-.46.92-1.04,1.14-1.78.83-2.79,1.14-5.74,2.64-8.32.34-.59.57-1.27,1.35-1.59Z"/><path class="cls-1" d="M52.94,6.3c-1.65,2.25-3.12,4.39-4.23,6.74-.36.76-.65,1.49.07,2.23,3.13,3.21,3.68,7.34,4.03,11.52.19,2.3.1,4.66.55,6.91,1.3,6.57,5.88,9.95,11.99,11.6,2.63.71,5.36.87,8.07,1.05.58.04,1.18-.04,1.73.1.94.22,2.41-.15,2.49,1.28.07,1.24-1.1,2.09-2.14,2.38-8.28,2.32-16.24,1.12-23.65-2.98-4.44-2.46-6.78-9.25-5.83-14.57.76-4.27,1.4-8.56,1.24-12.92-.03-.75-.06-1.51-.23-2.23-1.02-4.2.83-7.52,3.17-10.71.71-.97,1.58-.72,2.74-.4Z"/><path class="cls-1" d="M30.48,31.14c-.97,3.99-5.28,7.17-9.5,7.07-3.59-.09-6.98-.79-9.97-2.97-.62-.46-1.09-.85-.85-1.6.22-.67.9-.61,1.49-.82,4.83-1.71,9.82.54,14.65-.69,1.38-.35,2.77-.65,4.18-.99Z"/><path class="cls-1" d="M54.99,32.87c1.47,1.08,3.11,1.31,4.6,1.9,1.65.66,3.24-.46,4.85-.77,1.75-.34,3.44-.99,5.19-1.38.98-.22,2.25-.68,2.88.34.74,1.21-.22,2.43-.93,3.29-2.62,3.14-10.23,4.51-13.75,2.64-1.33-.71-2.68-3.45-2.83-6.01Z"/></g></g></svg>