<?xml version="1.0" encoding="UTF-8"?><svg id="Layer_2" xmlns="http://www.w3.org/2000/svg" viewBox="0 0 107.2 105.9"><defs><style>.cls-1{fill:#e4e6e5;stroke:#a0a2a5;stroke-miterlimit:10;stroke-width:.18px;}</style></defs><g id="trash"><g id="paperBall2"><polygon class="cls-1" points="16.67 4.46 18.16 5.71 25.99 12.42 22.71 26.31 11.98 20.61 16.67 4.46"/><polygon class="cls-1" points="22.71 26.31 7.31 36.7 11.98 20.61 22.71 26.31"/><polygon class="cls-1" points="22.71 26.31 37.22 46.98 17.31 46.98 12.25 57.31 .14 61.38 7.31 36.7 22.71 26.31"/><polygon class="cls-1" points="37.22 46.98 69.32 27.57 62.97 8.89 57.89 6.08 44.22 6.3 27.29 12.64 25.99 12.42 22.71 26.31 37.22 46.98"/><polygon class="cls-1" points="57.89 6.08 59.29 5.6 66.24 .12 74.93 8.88 97.63 22.29 89.68 45.55 90 46.69 61.27 32.44 69.32 27.57 62.97 8.89 57.89 6.08"/><polygon class="cls-1" points="90 46.69 106.17 59.74 106.12 60.73 82.19 78.1 75.53 92.45 55.47 105.81 53.42 105.5 37.59 92.42 90 46.69"/><polygon class="cls-1" points="37.59 92.42 37.22 46.98 61.27 32.44 90 46.69 37.59 92.42"/><polygon class="cls-1" points="37.59 92.42 33.82 100.95 7.05 77.71 12.58 58.21 12.25 57.31 17.31 46.98 37.22 46.98 37.59 92.42"/><polygon class="cls-1" points="90 46.51 107.05 60.22 82.19 78.1 70.45 63.75 90 46.51"/></g></g></svg>