<?xml version="1.0" encoding="UTF-8"?><svg id="Layer_2" xmlns="http://www.w3.org/2000/svg" viewBox="0 0 55.44 54.77"><defs><style>.cls-1{fill:#e4e6e5;stroke:#a0a2a5;stroke-miterlimit:10;stroke-width:.09px;}</style></defs><g id="trash"><g id="paperBall"><polygon class="cls-1" points="8.62 2.31 9.39 2.95 13.44 6.42 11.75 13.61 6.2 10.66 8.62 2.31"/><polygon class="cls-1" points="11.75 13.61 3.78 18.98 6.2 10.66 11.75 13.61"/><polygon class="cls-1" points="11.75 13.61 19.25 24.3 8.95 24.3 6.34 29.64 .07 31.75 3.78 18.98 11.75 13.61"/><polygon class="cls-1" points="19.25 24.3 35.85 14.26 32.57 4.6 29.94 3.15 22.87 3.26 14.12 6.54 13.44 6.42 11.75 13.61 19.25 24.3"/><polygon class="cls-1" points="29.94 3.15 30.66 2.9 34.26 .06 38.75 4.59 50.5 11.53 46.38 23.56 46.55 24.15 31.69 16.78 35.85 14.26 32.57 4.6 29.94 3.15"/><polygon class="cls-1" points="46.55 24.15 54.91 30.9 54.89 31.41 42.51 40.39 39.07 47.82 28.69 54.72 27.63 54.56 19.44 47.8 46.55 24.15"/><polygon class="cls-1" points="19.44 47.8 19.25 24.3 31.69 16.78 46.55 24.15 19.44 47.8"/><polygon class="cls-1" points="19.44 47.8 17.49 52.21 3.65 40.19 6.51 30.11 6.34 29.64 8.95 24.3 19.25 24.3 19.44 47.8"/><polygon class="cls-1" points="46.55 24.06 55.36 31.15 42.51 40.39 36.43 32.97 46.55 24.06"/></g></g></svg>