<?xml version="1.0" encoding="UTF-8"?><svg id="Layer_2" xmlns="http://www.w3.org/2000/svg" viewBox="0 0 30.16 29.8"><defs><style>.cls-1{fill:#e4e6e5;stroke:#a0a2a5;stroke-miterlimit:10;stroke-width:.05px;}</style></defs><g id="trash"><g id="paperBall4"><polygon class="cls-1" points="4.69 1.26 5.11 1.61 7.31 3.5 6.39 7.4 3.37 5.8 4.69 1.26"/><polygon class="cls-1" points="6.39 7.4 2.06 10.33 3.37 5.8 6.39 7.4"/><polygon class="cls-1" points="6.39 7.4 10.47 13.22 4.87 13.22 3.45 16.13 .04 17.27 2.06 10.33 6.39 7.4"/><polygon class="cls-1" points="10.47 13.22 19.51 7.76 17.72 2.5 16.29 1.71 12.44 1.77 7.68 3.56 7.31 3.5 6.39 7.4 10.47 13.22"/><polygon class="cls-1" points="16.29 1.71 16.68 1.58 18.64 .03 21.08 2.5 27.47 6.27 25.23 12.82 25.32 13.14 17.24 9.13 19.51 7.76 17.72 2.5 16.29 1.71"/><polygon class="cls-1" points="25.32 13.14 29.88 16.81 29.86 17.09 23.13 21.98 21.25 26.02 15.61 29.77 15.03 29.69 10.58 26.01 25.32 13.14"/><polygon class="cls-1" points="10.58 26.01 10.47 13.22 17.24 9.13 25.32 13.14 10.58 26.01"/><polygon class="cls-1" points="10.58 26.01 9.52 28.41 1.98 21.87 3.54 16.38 3.45 16.13 4.87 13.22 10.47 13.22 10.58 26.01"/><polygon class="cls-1" points="25.32 13.09 30.12 16.95 23.13 21.98 19.82 17.94 25.32 13.09"/></g></g></svg>