<?xml version="1.0" encoding="UTF-8"?><svg id="Layer_2" xmlns="http://www.w3.org/2000/svg" viewBox="0 0 34.82 34.4"><defs><style>.cls-1{fill:#e4e6e5;stroke:#a0a2a5;stroke-miterlimit:10;stroke-width:.06px;}</style></defs><g id="trash"><g id="paperBall3"><polygon class="cls-1" points="5.41 1.45 5.9 1.85 8.44 4.04 7.38 8.54 3.89 6.7 5.41 1.45"/><polygon class="cls-1" points="7.38 8.54 2.37 11.92 3.89 6.7 7.38 8.54"/><polygon class="cls-1" points="7.38 8.54 12.09 15.26 5.62 15.26 3.98 18.61 .04 19.94 2.37 11.92 7.38 8.54"/><polygon class="cls-1" points="12.09 15.26 22.52 8.96 20.46 2.89 18.8 1.98 14.36 2.05 8.86 4.11 8.44 4.04 7.38 8.54 12.09 15.26"/><polygon class="cls-1" points="18.8 1.98 19.26 1.82 21.52 .04 24.34 2.88 31.71 7.24 29.13 14.8 29.23 15.17 19.9 10.54 22.52 8.96 20.46 2.89 18.8 1.98"/><polygon class="cls-1" points="29.23 15.17 34.49 19.4 34.47 19.73 26.7 25.37 24.53 30.03 18.02 34.37 17.35 34.27 12.21 30.02 29.23 15.17"/><polygon class="cls-1" points="12.21 30.02 12.09 15.26 19.9 10.54 29.23 15.17 12.21 30.02"/><polygon class="cls-1" points="12.21 30.02 10.99 32.79 2.29 25.24 4.09 18.91 3.98 18.61 5.62 15.26 12.09 15.26 12.21 30.02"/><polygon class="cls-1" points="29.23 15.11 34.77 19.56 26.7 25.37 22.88 20.71 29.23 15.11"/></g></g></svg>