<?xml version="1.0" encoding="UTF-8"?><svg id="Layer_2" xmlns="http://www.w3.org/2000/svg" viewBox="0 0 184.78 158.68"><defs><style>.cls-1{fill:#378a90;}.cls-2{fill:#3ba6b0;}</style></defs><g id="trashCans"><path class="cls-2" d="M1.97,157.75c-.82-.35-1.43-1-1.74-1.78s-.33-1.66.02-2.48L48.06,41.4c.7-1.65,2.62-2.42,4.27-1.72,2.95,1.26,5.11,3.6,6.22,6.37,1.11,2.77,1.17,5.96-.08,8.9l-7.16,16.8,11.86,5.06,1.9,4.75-24.29,56.96-4.41,1.06-11.67-4.38,2.23-5.23,9.54,3.18,2.27-.5,20.07-49.14-.86-2.13-9.13-3.79-31.56,74.02c-2.51,5.89-9.38,8.66-15.27,6.15Z"/><path class="cls-2" d="M56.43,10.29v23.02c0,.57.15,1.11.41,1.57l19.22,119.06h87.82l20.86-119.88h-.05c.06-.24.09-.5.09-.76V10.29c0-1.79-1.46-3.25-3.25-3.25H59.68c-1.79,0-3.25,1.46-3.25,3.25Z"/><rect class="cls-1" x="56.43" y="0" width="128.35" height="6.5" rx="3.25" ry="3.25" transform="translate(241.21 6.5) rotate(180)"/><polyline class="cls-1" points="173.27 15.3 165.05 21.76 157.28 147.17 144.85 147.17 150 20.63 129.64 20.63 125.28 147.17 113.72 147.17 113.72 19.09 87.94 19.18 92.37 147.17 81.7 147.17 71.95 20.15 66.58 15.3"/></g></svg>