<?xml version="1.0" encoding="UTF-8"?><svg id="Duplicates" xmlns="http://www.w3.org/2000/svg" viewBox="0 0 436.4 325.86"><defs><style>.cls-1{fill:#22084c;}.cls-2{fill:#fff4dc;}.cls-3{fill:#593d00;}</style></defs><rect class="cls-1" x="-1.11" y="-.69" width="438.76" height="327.63"/><rect class="cls-3" x="221.67" y="234.7" width="78.33" height="18" transform="translate(405.97 -82.43) rotate(70.94)"/><rect class="cls-3" x="133.17" y="232.21" width="78.33" height="18" transform="translate(456.6 157.11) rotate(109.06)"/><rect class="cls-3" x="138.27" y="91.99" width="78.33" height="18" transform="translate(148.86 -101.16) rotate(52.31)"/><rect class="cls-3" x="210.45" y="92.59" width="78.33" height="18" transform="translate(482.63 -33.82) rotate(127.69)"/><path class="cls-3" d="M112.98,167.17c-5.46.44-10.94,1.4-16.37,1.17-12.56-.54-22.72-11.19-23.58-23.86-.38-5.7-.73-11.44-1.65-17.07-2.76-17.07-9.54-32.64-17.98-47.56-4.22-7.46-9.74-14.3-11.18-23.14v-4.55c1.8-9.45,7.73-14.78,16.71-17.03,1.91-.48,3.86-.78,5.8-1.16,2.33,0,4.67,0,7,0,8.62,1.26,16.75,4.08,24.64,7.75,29.5,13.69,53.84,33.95,74.03,59.42,8.38,10.57,15.89,21.78,22.26,33.73-.7-.8-1.51-1.52-2.08-2.4-12.8-19.79-27.64-37.7-46.82-51.55-12.6-9.1-25.94-16.74-41.36-19.86-5.33-1.08-10.77-1.82-15.93.62-1.33.63-2.68,2.07-3.17,3.44-.69,1.94.88,3.49,2.51,4.12,3.93,1.52,7.9,3.47,12,3.9,17.47,1.82,32.71,8.65,46.17,19.78,16.29,13.47,29.18,29.87,40.05,47.96,2.01,3.35,3.91,6.77,5.83,10.1,1.3-4.76,2.57-9.4,3.85-14.04M107.07,191.76,187.09,202.72c-.28,0-.56,0-.85.01-.29.76-.65,1.51-.86,2.3-3.84,14.09-7.69,28.18-11.49,42.28-2.19,8.1-3.95,16.33-8.03,23.79-6.9,12.62-19.37,18.48-33.28,15.4-2.4-.53-3.31.52-4.09,2.46-3.69,9.18-9.22,16.89-17.66,22.23h-1c.69-1.31,1.23-2.75,2.11-3.92,4.71-6.28,7.62-13.33,9.42-20.96.57-2.43-.29-3.6-2.12-4.99-3.98-3.01-8.23-5.9-11.45-9.64-10.84-12.56-16.72-27.45-17.89-44.02-1.09-15.45,4.56-27.61,18.48-35.19.37-.2.69-.53,1.54-1.19M326.23,194.17c.53.87,1.19,1.32,1.87,1.73,10.97,6.68,17,16.25,17,29.41,0,10.31-1.85,20.27-6.02,29.66-5.32,11.98-12.27,22.72-23.95,29.52-.71.41-1.27,1.96-1.12,2.86,1.38,8.64,5.08,16.27,10.22,23.25.64.87.86,2.05,1.27,3.08h-1.5c-.34-.35-.64-.77-1.04-1.05-7.51-5.37-12.61-12.64-16.06-21.13-1-2.45-2.35-2.76-4.82-2.51-4.18.43-8.54.84-12.62.1-11.24-2.02-18.46-9.39-22.44-19.8-2.69-7.03-4.57-14.38-6.59-21.65-3.61-13.02-7.04-26.09-10.58-39.13-.26-.96-.75-1.85-1.13-2.77-.23.05-.46.11-.69.16M233.78,148.02c.77-1.25,1.12-1.8,1.44-2.36,11.33-19.86,24.51-38.22,41.71-53.44,14.05-12.43,30.05-20.22,48.75-22.3,3.96-.44,7.89-2.02,11.58-3.64,1.44-.63,3.04-2.84,3.03-4.32,0-1.24-2.04-2.92-3.53-3.62-4.21-1.98-8.74-1.85-13.23-1-13.22,2.49-25.17,8.07-36.31,15.49-20.56,13.69-37.95,30.58-50.95,51.87-1.74,2.85-3.5,5.68-5.25,8.52.34-.85.6-1.73,1.02-2.53,7.66-14.63,17.03-28.06,27.79-40.53,16.63-19.28,35.87-35.26,58.35-47.11,10.78-5.69,21.93-10.46,34.09-12.32,2.33,0,4.67,0,7,0,.3.12.59.32.9.36,10.84,1.35,18.65,6.35,21.11,17.83,0,1.85,0,3.7,0,5.56-1.48,3.53-2.76,7.17-4.49,10.57-1.74,3.43-3.89,6.65-5.88,9.95-11.93,19.77-19.5,40.98-20.55,64.29-.76,16.8-13.87,28.05-30.43,26.04M169.21,189.23c0,.19.02.38.03.58-.88.23-1.75.47-2.63.68-16.97,4.14-32.94,10.59-47.28,20.84-4.34,3.1-7.62,6.98-9.58,11.98-2.27,5.79-2.49,11.64-.26,17.47,1.89,4.93,5.91,5.72,9.52,1.89,1.49-1.58,2.68-3.43,4.1-5.09,3.96-4.64,7.88-9.33,12.01-13.81,1.69-1.83,3.88-3.19,5.84-4.76.14.18.28.36.42.54-.6.51-1.2,1.02-1.8,1.53-8.83,7.48-15.49,16.52-18.33,27.92-1.05,4.24-1.1,8.76-1.29,13.17-.09,1.99,1.02,3.77,3.07,4.49,2.09.74,3.72-.33,5.17-1.7.54-.51,1.09-1.08,1.43-1.74,1.56-2.96,3.3-5.85,4.52-8.95,3.27-8.29,6.49-16.58,11.92-23.75.45-.59.95-1.13,1.42-1.7.07.75-.19,1.26-.49,1.73-3.64,5.6-6.53,11.59-7.77,18.17-.72,3.82-1.04,7.85-.69,11.7.33,3.64,2.04,7.06,5.95,8.33,3.83,1.24,6.5-1.11,9.08-3.45.43-.39.8-.85,1.19-1.3,4.55-5.27,7.58-11.41,10-17.91,5.99-16.05,12.22-31.99,20.84-46.86.5-.87.67-2.08.62-3.11-.11-2.43-.54-4.85-.66-7.28-.09-1.94-1.15-2.54-2.82-2.84-15.64-2.78-31.19-2.26-46.59,1.56-9.4,2.33-18.66,5.12-26.49,11.25-2.53,1.98-4.82,4.19-5.75,7.42-1.16,4,1.43,7.06,5.48,6.19,1.98-.43,3.96-1.34,5.67-2.46,12.85-8.4,26.81-14.16,41.58-17.97,4.15-1.07,8.38-1.85,12.57-2.76ZM294.17,222.35c5.17,3.08,9.38,7.21,13.18,11.77,3.11,3.72,5.82,7.8,9.09,11.36,3.25,3.54,7.32,2.5,9.02-1.96,3.88-10.16.19-22.52-8.61-28.78-14.18-10.1-29.85-16.87-46.59-21.21-1.65-.43-3.3-.84-4.95-1.26.58-.4,1.08-.43,1.55-.33,11.68,2.38,23.22,5.33,34.02,10.5,7.12,3.41,13.94,7.46,20.92,11.19,3.98,2.13,6.83,2.02,8.68-.23,1.74-2.12,1.19-5.23-1.58-8.65-3.09-3.81-7.12-6.3-11.5-8.24-20.44-9.04-41.74-11.54-63.75-8.48-3.84.53-3.83.6-4.23,4.47-.18,1.76-.56,3.52-.52,5.26.04,1.61.11,3.46.87,4.78,6.89,11.86,12.43,24.34,17.16,37.2,2.92,7.96,5.64,16.05,10.58,23.01,2,2.81,4.53,5.4,7.29,7.45,3.54,2.63,7.42,1.75,9.61-2.11,1.32-2.32,2.35-5.14,2.43-7.78.29-9.66-3.32-18.21-8.22-26.29-.4-.66-.77-1.35-1.15-2.02.9.4,1.42,1.02,1.9,1.69,4.65,6.43,7.92,13.58,10.79,20.96,1.45,3.73,3.22,7.38,5.22,10.84,1.33,2.3,3.27,4.47,6.42,3.85,2.35-.46,3.62-3.12,3.66-7.04.08-8.69-2.7-16.5-7.18-23.78-3.81-6.2-8.67-11.45-14.11-16.2ZM193.64,162.01c-.63-1.12-3.37-3.18-3.75-3.66-13.25-16.38-28.96-29.65-48.1-38.5-9.7-4.48-19.79-6.93-30.55-5.47-5.62.76-10.68,2.62-14.34,7.28-1.86,2.37-2.87,4.95-1.49,7.95,1.43,3.11,4.01,4.58,7.26,4.3,3.04-.26,6.03-1.09,9.05-1.64,4.93-.89,9.87-1.76,14.81-2.64.04.25.08.49.12.74-.39.07-.79.1-1.16.21-6.28,1.86-12.78,3.19-18.76,5.75-7.14,3.06-7.25,8.89-.84,13.4.34.24.69.48,1.05.68,10.57,5.71,22.01,8.13,33.76,6.84,13.77-1.51,27.37-2.21,40.95.99,2.97.7,8.42,2.91,11.99,3.79ZM269.48,154.86c10.45,1.51,25.68-.39,35.9-3.02,5.6-1.44,11-3.43,15.26-7.6,3.14-3.08,2.8-7.14-.7-9.76-.86-.64-1.81-1.25-2.82-1.6-6.49-2.22-13-4.37-18.79-6.3,3.31.54,7.48,1.13,11.62,1.91,3.35.62,6.63,1.7,9.99,2.13,3.5.45,6.67-.57,8.42-4.06,1.47-2.92.53-6.35-2.36-9.36-3.59-3.75-8.15-5.35-13.12-6.08-11.05-1.61-26.24,2.84-36.17,7.38M238.34,148.18c11.13-13.24,23.43-25.1,38.78-33.32,13.99-7.49,28.47-11.35,44.13-5.58,1.9.7,3.42.03,4.55-1.63,1.15-1.69,1.11-3.6-.27-4.86-1.8-1.65-3.87-3.26-6.11-4.13-6.27-2.42-12.86-2.56-19.47-1.92-2.62.25-5.22.74-7.83,1.12,2.67-1.18,5.42-2.06,8.24-2.48,5.59-.83,11.31-1.02,16.81-2.23,3.71-.82,7.44-2.49,10.62-4.59,3.28-2.17,2.85-5.98-.53-8.06-1.67-1.03-3.62-1.74-5.53-2.16-6.46-1.4-12.77-.23-18.94,1.71-12.89,4.06-23.3,12.13-32.97,21.26-14.71,13.88-24.05,28.94-33.95,46.47M135.18,102.72c-.69-.22-1.38-.43-2.06-.67-8.95-3.07-18.03-3.15-27.05-.66-2.67.74-5.18,2.56-7.4,4.35-1.58,1.28-1.71,3.44-.49,5.3,1.2,1.83,2.91,2.01,4.85,1.33,1.26-.44,2.54-.82,3.82-1.16,12.67-3.36,24.63-.77,36.07,4.84,15.9,7.8,28.96,19.32,40.51,32.67,2.37,2.74,4.6,5.61,6.89,8.41.22-.11.44-.21.66-.32-.43-1.46-.62-3.06-1.33-4.37-9.93-18.34-21.98-35.09-37.12-49.43-9.57-9.07-20.3-16.32-33.01-20.17-6.3-1.91-12.73-2.7-19.2-.9-2.95.82-6.01,2.13-6.41,5.58-.4,3.5,2.65,4.97,5.2,6.37,4.95,2.72,10.43,3.27,15.93,3.67,6.99.51,13.9,1.37,20.12,5.13Z"/><path class="cls-2" d="M169.21,189.23c-4.19.91-8.42,1.69-12.57,2.76-14.77,3.81-28.73,9.58-41.58,17.97-1.71,1.12-3.69,2.04-5.67,2.46-4.04.87-6.63-2.19-5.48-6.19.94-3.24,3.23-5.45,5.75-7.42,7.83-6.13,17.09-8.92,26.49-11.25,15.4-3.83,30.95-4.34,46.59-1.56,1.68.3,2.73.91,2.82,2.84.12,2.43.55,4.85.66,7.28.05,1.03-.12,2.24-.62,3.11-8.62,14.86-14.85,30.81-20.84,46.86-2.43,6.5-5.45,12.63-10,17.91-.38.44-.76.9-1.19,1.3-2.58,2.34-5.25,4.69-9.08,3.45-3.91-1.27-5.62-4.69-5.95-8.33-.35-3.86-.02-7.88.69-11.7,1.24-6.58,4.12-12.57,7.77-18.17.31-.47.56-.97.49-1.73-.48.56-.98,1.11-1.42,1.7-5.43,7.17-8.65,15.46-11.92,23.75-1.22,3.1-2.96,6-4.52,8.95-.34.65-.89,1.22-1.43,1.74-1.45,1.37-3.08,2.44-5.17,1.7-2.05-.72-3.15-2.5-3.07-4.49.19-4.41.23-8.94,1.29-13.17,2.84-11.4,9.49-20.43,18.33-27.92.6-.51,1.2-1.02,1.8-1.53-.14-.18-.28-.36-.42-.54-1.96,1.57-4.15,2.93-5.84,4.76-4.13,4.48-8.05,9.17-12.01,13.81-1.41,1.65-2.61,3.51-4.1,5.09-3.62,3.83-7.64,3.04-9.52-1.89-2.23-5.83-2.01-11.68.26-17.47,1.96-5,5.24-8.88,9.58-11.98,14.35-10.25,30.31-16.7,47.28-20.84.88-.21,1.75-.46,2.63-.68,0-.19-.02-.38-.03-.58Z"/><path class="cls-2" d="M294.17,222.35c5.43,4.74,10.29,10,14.11,16.2,4.48,7.28,7.26,15.09,7.18,23.78-.04,3.92-1.31,6.58-3.66,7.04-3.14.62-5.08-1.55-6.42-3.85-2-3.46-3.77-7.11-5.22-10.84-2.88-7.38-6.14-14.53-10.79-20.96-.48-.66-1-1.29-1.9-1.69.38.67.75,1.36,1.15,2.02,4.9,8.08,8.51,16.63,8.22,26.29-.08,2.63-1.11,5.46-2.43,7.78-2.19,3.85-6.07,4.74-9.61,2.11-2.76-2.05-5.29-4.64-7.29-7.45-4.94-6.96-7.66-15.05-10.58-23.01-4.73-12.87-10.27-25.35-17.16-37.2-.77-1.32-.84-3.17-.87-4.78-.04-1.75.34-3.51.52-5.26.41-3.87.39-3.93,4.23-4.47,22.01-3.07,43.31-.56,63.75,8.48,4.39,1.94,8.42,4.43,11.5,8.24,2.77,3.42,3.33,6.53,1.58,8.65-1.85,2.25-4.7,2.36-8.68.23-6.97-3.73-13.8-7.78-20.92-11.19-10.8-5.17-22.34-8.12-34.02-10.5-.47-.1-.97-.07-1.55.33,1.65.42,3.3.83,4.95,1.26,16.75,4.34,32.41,11.11,46.59,21.21,8.79,6.26,12.49,18.62,8.61,28.78-1.7,4.45-5.78,5.5-9.02,1.96-3.27-3.57-5.98-7.64-9.09-11.36-3.8-4.56-8.02-8.69-13.18-11.77Z"/><path class="cls-2" d="M191.15,160.54c-3.58-.88-6.53-1.62-9.5-2.32-13.59-3.2-27.19-2.5-40.95-.99-11.76,1.29-23.19-1.13-33.76-6.84-.37-.2-.71-.44-1.05-.68-6.41-4.51-6.3-10.34.84-13.4,5.98-2.57,12.49-3.89,18.76-5.75.38-.11.78-.14,1.16-.21-.04-.25-.08-.49-.12-.74-4.94.88-9.87,1.75-14.81,2.64-3.02.55-6.01,1.38-9.05,1.64-3.24.28-5.82-1.19-7.26-4.3-1.38-3-.37-5.58,1.49-7.95,3.66-4.66,8.71-6.52,14.34-7.28,10.77-1.46,20.85.99,30.55,5.47,19.14,8.85,34.85,22.12,48.1,38.5.39.48.62,1.08,1.26,2.2Z"/><path class="cls-2" d="M135.18,102.72c-6.22-3.77-13.13-4.62-20.12-5.13-5.5-.4-10.98-.95-15.93-3.67-2.55-1.4-5.61-2.87-5.2-6.37.39-3.45,3.46-4.76,6.41-5.58,6.47-1.8,12.89-1.01,19.2.9,12.71,3.85,23.44,11.1,33.01,20.17,15.14,14.34,27.19,31.09,37.12,49.43.71,1.31.9,2.91,1.33,4.37-.22.11-.44.21-.66.32-2.29-2.81-4.52-5.67-6.89-8.41-11.55-13.35-24.61-24.87-40.51-32.67-11.44-5.61-23.4-8.2-36.07-4.84-1.29.34-2.57.72-3.82,1.16-1.94.68-3.65.49-4.85-1.33-1.22-1.86-1.09-4.03.49-5.3,2.21-1.79,4.72-3.62,7.4-4.35,9.01-2.48,18.1-2.4,27.05.66.68.23,1.38.44,2.06.67Z"/><path class="cls-2" d="M234.92,156.58c.3-.56.52-1.16.91-1.62,13.3-15.91,28.48-29.45,47.47-38.12,9.93-4.54,20.18-7.33,31.23-5.71,4.97.73,9.53,2.32,13.12,6.08,2.88,3.01,3.82,6.45,2.36,9.36-1.75,3.49-4.92,4.51-8.42,4.06-3.37-.43-6.64-1.51-9.99-2.13-4.14-.77-8.31-1.37-11.62-1.91,5.79,1.93,12.3,4.07,18.79,6.3,1,.34,1.96.95,2.82,1.6,3.5,2.62,3.84,6.68.7,9.76-4.26,4.18-9.66,6.16-15.26,7.6-10.22,2.64-20.51,2.87-30.96,1.36-12.78-1.84-25.4-.45-37.81,3.02-.87.24-1.75.47-2.64.68-.12.03-.29-.13-.69-.32Z"/><path class="cls-2" d="M234.83,153.05c.33-1.21.43-2.56,1.03-3.62,9.9-17.52,20.9-34.25,35.6-48.13,9.67-9.13,20.08-17.2,32.97-21.26,6.18-1.94,12.48-3.11,18.94-1.71,1.92.42,3.87,1.13,5.53,2.16,3.38,2.08,3.81,5.9.53,8.06-3.19,2.11-6.91,3.77-10.62,4.59-5.5,1.21-11.22,1.4-16.81,2.23-2.82.42-5.57,1.3-8.24,2.48,2.61-.38,5.21-.87,7.83-1.12,6.61-.64,13.2-.5,19.47,1.92,2.24.86,4.31,2.47,6.11,4.13,1.38,1.26,1.42,3.16.27,4.86-1.13,1.65-2.65,2.32-4.55,1.63-15.66-5.76-30.13-1.91-44.13,5.58-15.35,8.22-27.65,20.08-38.78,33.32-1.45,1.73-2.91,3.45-4.36,5.17-.27-.1-.53-.2-.8-.3Z"/><path class="cls-2" d="M232.43,133.65c.07-.14.15-.29.23-.42,1.75-2.84,3.51-5.67,5.25-8.52,13-21.28,30.39-38.18,50.95-51.87,11.14-7.42,23.09-13,36.31-15.49,4.49-.84,9.02-.98,13.23,1,1.49.7,3.53,2.38,3.53,3.62,0,1.48-1.59,3.68-3.03,4.32-3.7,1.62-7.62,3.2-11.58,3.64-18.71,2.09-34.7,9.87-48.75,22.3-17.2,15.21-30.38,33.58-41.71,53.44-.32.56-.67,1.1-1.44,2.36-.3-2.02-.42-3.36-.71-4.66-.72-3.25-1.52-6.48-2.29-9.71Z"/><path class="cls-2" d="M192.66,134.89c.35.69.7,1.37,1.06,2.06-1.27,4.64-2.54,9.28-3.85,14.04-1.92-3.33-3.82-6.75-5.83-10.1-10.88-18.09-23.76-34.49-40.05-47.96-13.46-11.13-28.71-17.96-46.17-19.78-4.09-.43-8.07-2.38-12-3.9-1.64-.63-3.2-2.18-2.51-4.12.49-1.38,1.84-2.81,3.17-3.44,5.16-2.44,10.59-1.7,15.93-.62,15.42,3.12,28.76,10.76,41.36,19.86,19.18,13.85,34.02,31.76,46.82,51.55.57.88,1.38,1.61,2.08,2.4Z"/></svg>