<?xml version="1.0" encoding="UTF-8"?><svg id="Duplicates" xmlns="http://www.w3.org/2000/svg" viewBox="0 0 436.4 325.86"><defs><style>.cls-1{fill:#22084c;}.cls-2{fill:#faedcb;}.cls-3{stroke:#c6c6c6;stroke-width:1.25px;}.cls-3,.cls-4{fill:none;stroke-miterlimit:10;}.cls-4{stroke:#f9cc69;stroke-width:.93px;}.cls-5{fill:#fff4dc;}.cls-6{fill:#593d00;}.cls-7{fill:#c6c6c6;}</style></defs><rect class="cls-1" x="-.48" y="-.94" width="438.37" height="327.33"/><line class="cls-3" x1="230.12" y1="277.97" x2="230.12" y2="251.82"/><line class="cls-3" x1="217.67" y1="277.97" x2="217.67" y2="251.82"/><ellipse class="cls-3" cx="223.27" cy="140.98" rx="9.34" ry="7.47"/><path class="cls-3" d="M217.67,251.82h-4.98c-.42,0-.83-.01-1.25-.06v21.23c0,3.42-2.8,6.23-6.23,6.23h-1.25c-3.42,0-6.23-2.8-6.23-6.23v-32.38c0-.5.06-.98.17-1.44-.11-.75-.17-1.51-.17-2.29v-21.17h-14.94c-3.42,0-6.23-2.8-6.23-6.23,0-1.72.7-3.26,1.83-4.4,1.13-1.13,2.68-1.83,4.4-1.83h14.94v-39.85c0-8.22,6.72-14.94,14.94-14.94h22.42c8.22,0,14.94,6.72,14.94,14.94v39.88c1.03-.8,2.33-1.27,3.74-1.27h16.19c3.42,0,6.23,2.8,6.23,6.23,0,1.72-.7,3.26-1.83,4.4-1.13,1.13-2.68,1.83-4.4,1.83h-16.19c-1.41,0-2.7-.47-3.74-1.27v23.69c0,.78-.06,1.54-.17,2.29.11.46.17.95.17,1.44v32.38c0,3.42-2.8,6.23-6.23,6.23h-1.25c-3.42,0-6.23-2.8-6.23-6.23v-21.23c-.41.05-.82.06-1.25.06h-4.98"/><path class="cls-4" d="M224.28,162.31c0,1.25-3.59,4.71-3.74,7.47-.35,6.66,3.47,7.36,2.49,12.45-.04.18-2.43.28-2.49,2.49-.03,1.25,2.54,2.79,2.66,4.48.08,1.15-2.3,2.37-2.21,3.61s2.68,2.54,2.74,3.77c.06,1.12-2.69,2.2-3.07,3.21-.34.88,2.19,1.71,2.29,2.45.13.95-2.12,1.78-2.42,2.41-.63,1.31,4.42,4.81,3.74,6.23-.64,1.33-2.95,3.38-3.61,4.75-.66,1.38,3.01,1.37,2.36,2.73-.7,1.45-.6,1.14-1.25,2.49-.44.93,1.65,2.88,1.25,3.74-.5,1.06-.82,1.58-1.25,2.49-1.11,2.38,1.93,4.53,1.25,4.98-3.74,2.49,2.49,6.23,3.07,8.25.27.96-2.23,2.08-1.82,2.96.46,1,.81,1.59,1.25,2.49s-1,3.11-.64,3.86c.42.87-3.24,4.26-1.85,4.85,1.59.67,8.2-1.5,8.08-1.31-2.95,4.8-1.97,7.47-6.23,7.47-3.83,0-4.12-3.69-7.47-7.47-.19-.22,6.41,1.99,8.11,1.31,1.71-.68-1.48-4.25-1.25-4.98.21-.64-1.55-2.97-1.25-3.74.37-.93.79-1.43,1.25-2.49.46-1.07-2.37-1.6-1.89-2.73,2-4.68,4.38-5.99.64-8.48-.65-.44,3.49-.92,1.25-4.98-.72-1.31-.42-1-1.25-2.49-.59-1.05,1.86-2.63,1.25-3.74-.63-1.13-.6-1.34-1.25-2.49-.76-1.37,2.05-1.53,1.3-2.89-.61-1.09-3.21-3.53-3.79-4.59-.5-.91,4.21-5.36,3.74-6.23-.38-.7-2.77-1.62-2.75-2.69.01-.86,2.46-1.81,2.08-2.83-.34-.89-3.05-1.83-3.06-2.79-.01-1.16,2.49-2.35,2.51-3.53.02-1.22-2.45-2.44-2.43-3.61.02-1.64,2.5-3.18,2.4-4.48-.2-2.7-2.43-3.38-2.49-3.74-.65-3.84,2.78-6.49,2.49-11.21-.19-3.09-1.25-6.23-1.25-7.47,0-1.46,1.93-2.64,2.01-3.57.14-1.54,0-4.37-.77-5.15-1.25-1.25-1.25-2.49,0-3.74.88-.88,1.35,1.45,0-3.74-.28-1.08.94-.87,1.1-1.85.81-4.92,4.97-8.61,5.73-10.66,3.87-10.48-11.9,6.23-6.23,6.23,5.12,0-9.68-14.63-6.23-6.23.73,1.77,2.62,7.33,6.23,10.68.63.59.63,1.83.63,1.83,0,1.25-3.74,1.25-1.25,3.74,2.3,2.3.79,2.54,0,3.64-.31.43-1.84,1.66-1.61,5.11.05.68,2.86,2.46,2.86,3.7Z"/><path class="cls-3" d="M144.19,37.62s81.91,67.75,77.21,89.67c-3.74,17.44,11.21,13.7,2.49-1.25-5.79-9.92,79.7-92.16,79.7-92.16"/><path class="cls-4" d="M226.14,132.36s-5.63,7.47-2.49,7.47c3.74,0-2.49-6.23-2.49-6.23"/><path class="cls-6" d="M208.74,212.08c-.28.02-.56.03-.84.05-.25.78-.57,1.54-.75,2.33-3.15,14.25-6.3,28.49-9.41,42.75-1.79,8.19-3.15,16.49-6.85,24.13-6.27,12.93-18.43,19.38-32.46,16.99-2.42-.41-3.28.68-3.96,2.66-3.23,9.34-8.38,17.3-16.54,23.05l-1,.05c.63-1.34,1.09-2.8,1.91-4.02,4.4-6.49,6.96-13.68,8.38-21.38.45-2.45-.47-3.58-2.36-4.87-4.12-2.81-8.5-5.48-11.9-9.06-11.43-12.01-18.02-26.58-20-43.06-1.84-15.36,3.21-27.78,16.72-36.02.36-.22.66-.56,1.47-1.27"/><path class="cls-2" d="M190.24,199.5c.02.19.04.38.06.57-.86.27-1.72.55-2.59.81-16.74,4.96-32.35,12.17-46.17,23.1-4.18,3.31-7.26,7.34-8.97,12.42-1.98,5.89-1.92,11.74.6,17.45,2.12,4.82,6.17,5.42,9.6,1.42,1.41-1.65,2.51-3.56,3.84-5.27,3.73-4.82,7.41-9.69,11.31-14.37,1.59-1.91,3.72-3.37,5.6-5.04.15.17.3.35.45.52-.57.54-1.15,1.07-1.72,1.61-8.45,7.9-14.65,17.24-16.93,28.75-.85,4.28-.67,8.8-.64,13.21.01,1.99,1.2,3.71,3.28,4.33,2.12.64,3.69-.51,5.07-1.95.52-.54,1.03-1.14,1.35-1.8,1.41-3.03,3.01-6,4.07-9.15,2.86-8.43,5.67-16.86,10.74-24.28.42-.61.89-1.18,1.34-1.76.1.75-.13,1.26-.41,1.75-3.36,5.76-5.95,11.88-6.87,18.51-.53,3.85-.66,7.88-.12,11.71.5,3.61,2.38,6.94,6.34,8.02,3.88,1.05,6.43-1.42,8.89-3.89.41-.41.76-.89,1.12-1.35,4.29-5.48,7-11.75,9.11-18.35,5.2-16.31,10.64-32.52,18.51-47.77.46-.89.57-2.11.47-3.13-.23-2.42-.78-4.81-1.01-7.24-.19-1.93-1.27-2.48-2.96-2.7-15.75-2.01-31.23-.74-46.42,3.83-9.26,2.79-18.37,6.01-25.89,12.52-2.43,2.1-4.6,4.41-5.38,7.69-.96,4.05,1.78,6.97,5.77,5.91,1.95-.52,3.89-1.53,5.54-2.73,12.41-9,26.06-15.43,40.62-19.96,4.09-1.27,8.27-2.25,12.41-3.37Z"/><path class="cls-5" d="M190.24,199.5c-4.14,1.12-8.32,2.1-12.41,3.37-14.56,4.53-28.2,10.96-40.62,19.96-1.65,1.2-3.59,2.21-5.54,2.73-3.99,1.06-6.73-1.86-5.77-5.91.78-3.27,2.95-5.59,5.38-7.69,7.52-6.5,16.62-9.73,25.89-12.52,15.19-4.57,30.67-5.84,46.42-3.83,1.69.22,2.77.77,2.96,2.7.24,2.42.78,4.81,1.01,7.24.1,1.03-.01,2.24-.47,3.13-7.87,15.25-13.31,31.47-18.51,47.77-2.1,6.6-4.82,12.87-9.11,18.35-.36.46-.71.94-1.12,1.35-2.46,2.46-5.01,4.94-8.89,3.89-3.96-1.08-5.84-4.41-6.34-8.02-.53-3.83-.41-7.86.12-11.71.91-6.63,3.5-12.74,6.87-18.51.28-.48.51-1,.41-1.75-.45.59-.92,1.15-1.34,1.76-5.07,7.42-7.88,15.85-10.74,24.28-1.07,3.15-2.66,6.13-4.07,9.15-.31.67-.83,1.27-1.35,1.8-1.38,1.44-2.96,2.58-5.07,1.95-2.08-.62-3.27-2.34-3.28-4.33-.02-4.41-.2-8.93.64-13.21,2.28-11.51,8.48-20.85,16.93-28.75.57-.54,1.15-1.07,1.72-1.61-.15-.17-.3-.35-.45-.52-1.88,1.67-4,3.13-5.6,5.04-3.9,4.68-7.58,9.55-11.31,14.37-1.33,1.72-2.43,3.63-3.84,5.27-3.42,4-7.47,3.41-9.6-1.42-2.51-5.71-2.58-11.56-.6-17.45,1.71-5.08,4.79-9.11,8.97-12.42,13.82-10.92,29.43-18.14,46.17-23.1.87-.26,1.72-.54,2.59-.81-.02-.19-.04-.38-.06-.57Z"/><path class="cls-6" d="M132.18,142.46c-5.45.44-10.93,1.4-16.36,1.17-12.55-.54-22.7-11.18-23.56-23.84-.38-5.7-.73-11.43-1.64-17.05-2.76-17.06-9.53-32.61-17.97-47.52-4.22-7.45-9.73-14.28-11.17-23.12,0-1.51,0-3.03,0-4.54,1.8-9.44,7.72-14.77,16.69-17.01,1.91-.48,3.86-.78,5.79-1.16,2.33,0,4.66,0,7,0,8.61,1.26,16.73,4.08,24.62,7.74,29.48,13.67,53.79,33.92,73.96,59.37,8.37,10.56,15.87,21.76,22.24,33.7-.7-.8-1.51-1.52-2.08-2.4-12.79-19.77-27.62-37.66-46.78-51.51-12.59-9.09-25.91-16.73-41.32-19.85-5.33-1.08-10.76-1.82-15.91.62-1.33.63-2.68,2.06-3.17,3.44-.69,1.94.88,3.49,2.51,4.12,3.92,1.52,7.9,3.47,11.99,3.89,17.45,1.81,32.68,8.64,46.13,19.76,16.27,13.45,29.15,29.84,40.02,47.92,2.01,3.35,3.91,6.77,5.83,10.09,1.3-4.75,2.57-9.39,3.84-14.03"/><path class="cls-2" d="M212.78,137.3c-.63-1.12-3.36-3.18-3.75-3.66-13.24-16.37-28.93-29.62-48.06-38.46-9.69-4.48-19.77-6.92-30.52-5.47-5.62.76-10.67,2.61-14.32,7.27-1.86,2.37-2.87,4.94-1.49,7.94,1.43,3.11,4.01,4.57,7.25,4.3,3.04-.26,6.03-1.09,9.05-1.64,4.93-.89,9.86-1.76,14.79-2.64.04.25.08.49.12.74-.39.07-.79.1-1.16.21-6.27,1.86-12.77,3.18-18.75,5.75-7.13,3.06-7.25,8.88-.84,13.39.34.24.69.48,1.05.68,10.56,5.7,21.99,8.12,33.73,6.83,13.76-1.51,27.34-2.21,40.92.99,2.96.7,8.41,2.91,11.98,3.78Z"/><path class="cls-2" d="M154.37,78.07c-.69-.22-1.38-.43-2.06-.67-8.94-3.06-18.01-3.14-27.02-.66-2.67.74-5.18,2.56-7.39,4.35-1.57,1.27-1.71,3.44-.49,5.3,1.2,1.82,2.91,2.01,4.85,1.33,1.25-.44,2.53-.81,3.82-1.16,12.66-3.36,24.61-.77,36.04,4.84,15.89,7.8,28.93,19.3,40.47,32.64,2.37,2.74,4.59,5.6,6.88,8.41.22-.11.44-.21.66-.32-.43-1.46-.62-3.06-1.33-4.37-9.92-18.33-21.96-35.06-37.09-49.39-9.56-9.06-20.29-16.3-32.98-20.15-6.3-1.91-12.72-2.7-19.18-.9-2.95.82-6.01,2.13-6.4,5.58-.4,3.5,2.65,4.97,5.2,6.37,4.95,2.71,10.42,3.27,15.92,3.67,6.98.51,13.89,1.37,20.1,5.13Z"/><path class="cls-5" d="M210.28,135.83c-3.57-.88-6.53-1.62-9.49-2.32-13.57-3.2-27.16-2.5-40.92-.99-11.74,1.29-23.17-1.13-33.73-6.83-.37-.2-.71-.44-1.05-.68-6.41-4.5-6.29-10.33.84-13.39,5.98-2.56,12.48-3.88,18.75-5.75.38-.11.77-.14,1.16-.21-.04-.25-.08-.49-.12-.74-4.93.88-9.87,1.75-14.79,2.64-3.02.55-6.01,1.38-9.05,1.64-3.24.28-5.82-1.19-7.25-4.3-1.38-2.99-.37-5.57,1.49-7.94,3.65-4.65,8.71-6.51,14.32-7.27,10.76-1.46,20.84.99,30.52,5.47,19.13,8.84,34.82,22.1,48.06,38.46.39.48.62,1.08,1.26,2.19Z"/><path class="cls-5" d="M154.37,78.07c-6.21-3.76-13.12-4.62-20.1-5.13-5.49-.4-10.97-.95-15.92-3.67-2.55-1.4-5.6-2.87-5.2-6.37.39-3.45,3.46-4.76,6.4-5.58,6.46-1.8,12.88-1.01,19.18.9,12.7,3.85,23.42,11.09,32.98,20.15,15.13,14.33,27.16,31.06,37.09,49.39.71,1.31.9,2.9,1.33,4.37-.22.11-.44.21-.66.32-2.29-2.8-4.52-5.67-6.88-8.41-11.54-13.34-24.59-24.84-40.47-32.64-11.43-5.61-23.37-8.2-36.04-4.84-1.28.34-2.56.72-3.82,1.16-1.94.68-3.65.49-4.85-1.33-1.22-1.86-1.08-4.02.49-5.3,2.21-1.79,4.72-3.61,7.39-4.35,9.01-2.48,18.08-2.4,27.02.66.68.23,1.37.44,2.06.67Z"/><path class="cls-5" d="M211.8,110.2c.35.68.7,1.37,1.05,2.05-1.27,4.64-2.54,9.28-3.84,14.03-1.92-3.33-3.81-6.75-5.83-10.09-10.87-18.08-23.74-34.46-40.02-47.92-13.45-11.12-28.68-17.94-46.13-19.76-4.09-.43-8.06-2.37-11.99-3.89-1.63-.63-3.2-2.18-2.51-4.12.49-1.37,1.84-2.81,3.17-3.44,5.16-2.44,10.58-1.69,15.91-.62,15.4,3.12,28.73,10.75,41.32,19.85,19.16,13.84,33.99,31.73,46.78,51.51.57.88,1.38,1.6,2.08,2.4Z"/><path class="cls-6" d="M231.46,211.58c.28,0,.56,0,.85.01.29.76.65,1.51.86,2.3,3.84,14.08,7.68,28.15,11.48,42.24,2.18,8.09,3.95,16.32,8.02,23.77,6.89,12.61,19.36,18.46,33.25,15.38,2.4-.53,3.31.52,4.08,2.46,3.68,9.18,9.22,16.87,17.64,22.21h1c-.69-1.31-1.23-2.75-2.1-3.92-4.71-6.27-7.62-13.32-9.41-20.94-.57-2.42.29-3.6,2.12-4.98,3.98-3,8.22-5.89,11.44-9.63,10.83-12.55,16.7-27.42,17.87-43.98,1.09-15.44-4.56-27.59-18.46-35.16-.37-.2-.69-.53-1.53-1.19"/><path class="cls-2" d="M249.33,198.1c0,.19-.02.38-.03.58.87.23,1.75.47,2.62.68,16.96,4.14,32.91,10.58,47.24,20.82,4.34,3.1,7.61,6.98,9.57,11.97,2.27,5.78,2.49,11.63.26,17.46-1.89,4.92-5.9,5.71-9.52,1.88-1.49-1.57-2.68-3.43-4.09-5.08-3.96-4.63-7.87-9.32-12-13.8-1.69-1.83-3.88-3.19-5.84-4.76-.14.18-.28.36-.42.54.6.51,1.2,1.02,1.8,1.52,8.83,7.47,15.47,16.5,18.31,27.89,1.05,4.23,1.1,8.76,1.29,13.16.09,1.99-1.02,3.76-3.06,4.49-2.09.74-3.71-.33-5.16-1.7-.54-.51-1.09-1.08-1.43-1.74-1.56-2.95-3.3-5.85-4.52-8.94-3.26-8.28-6.48-16.56-11.91-23.73-.45-.59-.95-1.13-1.42-1.7-.07.75.19,1.26.49,1.73,3.64,5.59,6.52,11.57,7.76,18.15.72,3.82,1.04,7.84.69,11.69-.33,3.63-2.03,7.05-5.94,8.32-3.82,1.24-6.49-1.11-9.07-3.45-.43-.39-.8-.85-1.19-1.29-4.55-5.27-7.57-11.4-9.99-17.89-5.99-16.03-12.21-31.96-20.82-46.81-.5-.87-.67-2.08-.62-3.11.11-2.43.54-4.85.66-7.28.09-1.93,1.15-2.54,2.82-2.84,15.63-2.78,31.16-2.26,46.55,1.56,9.39,2.33,18.64,5.11,26.47,11.24,2.53,1.98,4.81,4.18,5.75,7.42,1.16,4-1.43,7.05-5.47,6.18-1.98-.43-3.96-1.34-5.67-2.46-12.84-8.39-26.78-14.14-41.54-17.96-4.15-1.07-8.37-1.85-12.56-2.76Z"/><path class="cls-5" d="M249.33,198.1c4.19.91,8.41,1.69,12.56,2.76,14.76,3.81,28.7,9.57,41.54,17.96,1.71,1.12,3.69,2.03,5.67,2.46,4.04.87,6.63-2.19,5.47-6.18-.93-3.23-3.22-5.44-5.75-7.42-7.83-6.13-17.08-8.91-26.47-11.24-15.39-3.82-30.92-4.34-46.55-1.56-1.67.3-2.73.91-2.82,2.84-.12,2.43-.55,4.85-.66,7.28-.05,1.03.12,2.24.62,3.11,8.61,14.85,14.83,30.78,20.82,46.81,2.42,6.49,5.44,12.62,9.99,17.89.38.44.76.9,1.19,1.29,2.58,2.34,5.25,4.69,9.07,3.45,3.91-1.27,5.61-4.68,5.94-8.32.35-3.85.02-7.87-.69-11.69-1.24-6.58-4.12-12.56-7.76-18.15-.31-.47-.56-.97-.49-1.73.48.56.98,1.11,1.42,1.7,5.43,7.16,8.65,15.44,11.91,23.73,1.22,3.1,2.96,5.99,4.52,8.94.34.65.89,1.22,1.43,1.74,1.45,1.37,3.08,2.43,5.16,1.7,2.04-.72,3.15-2.5,3.06-4.49-.19-4.4-.23-8.93-1.29-13.16-2.83-11.39-9.48-20.42-18.31-27.89-.6-.51-1.2-1.02-1.8-1.52.14-.18.28-.36.42-.54,1.96,1.57,4.15,2.93,5.84,4.76,4.13,4.48,8.04,9.16,12,13.8,1.41,1.65,2.6,3.51,4.09,5.08,3.61,3.83,7.63,3.04,9.52-1.88,2.23-5.83,2.01-11.67-.26-17.46-1.96-4.99-5.23-8.87-9.57-11.97-14.33-10.24-30.28-16.68-47.24-20.82-.88-.21-1.75-.45-2.62-.68,0-.19.02-.38.03-.58Z"/><path class="cls-7" d="M70.21,135.43c32.46,5.51,59.12,10.03,82.89,14.07-2.33,3.49-62.05-.82-58.44.82,24.44,11.09,92.89,34.72,138.34,34.39,44.65-.32,124.56-11.39,142.69-23.48,18.68-12.45,5.92-31.15-39.85-36.9-22.38-2.81-21.89-3.67-46.1-4.7-23.1-.98-42.9-4.37-4.65-2.83,73.28,2.96,113.45,16.67,109.94,34.59-3.96,20.21-89.67,35.96-161.04,37.29-66.19,1.23-105.77-20.62-148.84-35.23-7.66-2.6-3.43,11.35-14.94,8.75v-26.78Z"/><path class="cls-6" d="M313.35,141.22c5.45.44,10.93,1.4,16.36,1.17,12.55-.54,22.7-11.18,23.56-23.84.38-5.7.73-11.43,1.64-17.05,2.76-17.06,9.53-32.61,17.97-47.52,4.22-7.45,9.73-14.28,11.17-23.12,0-1.51,0-3.03,0-4.54-1.8-9.44-7.72-14.77-16.69-17.01-1.91-.48-3.86-.78-5.79-1.16-2.33,0-4.66,0-7,0-8.61,1.26-16.73,4.08-24.62,7.74-29.48,13.67-53.79,33.92-73.96,59.37-8.37,10.56-15.87,21.76-22.24,33.7.7-.8,1.51-1.52,2.08-2.4,12.79-19.77,27.62-37.66,46.78-51.51,12.59-9.09,25.91-16.73,41.32-19.85,5.33-1.08,10.76-1.82,15.91.62,1.33.63,2.68,2.06,3.17,3.44.69,1.94-.88,3.49-2.51,4.12-3.92,1.52-7.9,3.47-11.99,3.89-17.45,1.81-32.68,8.64-46.13,19.76-16.27,13.45-29.15,29.84-40.02,47.92-2.01,3.35-3.91,6.77-5.83,10.09-1.3-4.75-2.57-9.39-3.84-14.03"/><path class="cls-2" d="M232.76,136.05c.63-1.12,3.36-3.18,3.75-3.66,13.24-16.37,28.93-29.62,48.06-38.46,9.69-4.48,19.77-6.92,30.52-5.47,5.62.76,10.67,2.61,14.32,7.27,1.86,2.37,2.87,4.94,1.49,7.94-1.43,3.11-4.01,4.57-7.25,4.3-3.04-.26-6.03-1.09-9.05-1.64-4.93-.89-9.86-1.76-14.79-2.64-.04.25-.08.49-.12.74.39.07.79.1,1.16.21,6.27,1.86,12.77,3.18,18.75,5.75,7.13,3.06,7.25,8.88.84,13.39-.34.24-.69.48-1.05.68-10.56,5.7-21.99,8.12-33.73,6.83-13.76-1.51-27.34-2.21-40.92.99-2.96.7-8.41,2.91-11.98,3.78Z"/><path class="cls-2" d="M291.17,76.82c.69-.22,1.38-.43,2.06-.67,8.94-3.06,18.01-3.14,27.02-.66,2.67.74,5.18,2.56,7.39,4.35,1.57,1.27,1.71,3.44.49,5.3-1.2,1.82-2.91,2.01-4.85,1.33-1.25-.44-2.53-.81-3.82-1.16-12.66-3.36-24.61-.77-36.04,4.84-15.89,7.8-28.93,19.3-40.47,32.64-2.37,2.74-4.59,5.6-6.88,8.41-.22-.11-.44-.21-.66-.32.43-1.46.62-3.06,1.33-4.37,9.92-18.33,21.96-35.06,37.09-49.39,9.56-9.06,20.29-16.3,32.98-20.15,6.3-1.91,12.72-2.7,19.18-.9,2.95.82,6.01,2.13,6.4,5.58.4,3.5-2.65,4.97-5.2,6.37-4.95,2.71-10.42,3.27-15.92,3.67-6.98.51-13.89,1.37-20.1,5.13Z"/><path class="cls-5" d="M235.26,134.59c3.57-.88,6.53-1.62,9.49-2.32,13.57-3.2,27.16-2.5,40.92-.99,11.74,1.29,23.17-1.13,33.73-6.83.37-.2.71-.44,1.05-.68,6.41-4.5,6.29-10.33-.84-13.39-5.98-2.56-12.48-3.88-18.75-5.75-.38-.11-.77-.14-1.16-.21.04-.25.08-.49.12-.74,4.93.88,9.87,1.75,14.79,2.64,3.02.55,6.01,1.38,9.05,1.64,3.24.28,5.82-1.19,7.25-4.3,1.38-2.99.37-5.57-1.49-7.94-3.65-4.65-8.71-6.51-14.32-7.27-10.76-1.46-20.84.99-30.52,5.47-19.13,8.84-34.82,22.1-48.06,38.46-.39.48-.62,1.08-1.26,2.19Z"/><path class="cls-5" d="M291.17,76.82c6.21-3.76,13.12-4.62,20.1-5.13,5.49-.4,10.97-.95,15.92-3.67,2.55-1.4,5.6-2.87,5.2-6.37-.39-3.45-3.46-4.76-6.4-5.58-6.46-1.8-12.88-1.01-19.18.9-12.7,3.85-23.42,11.09-32.98,20.15-15.13,14.33-27.16,31.06-37.09,49.39-.71,1.31-.9,2.9-1.33,4.37.22.11.44.21.66.32,2.29-2.8,4.52-5.67,6.88-8.41,11.54-13.34,24.59-24.84,40.47-32.64,11.43-5.61,23.37-8.2,36.04-4.84,1.28.34,2.56.72,3.82,1.16,1.94.68,3.65.49,4.85-1.33,1.22-1.86,1.08-4.02-.49-5.3-2.21-1.79-4.72-3.61-7.39-4.35-9.01-2.48-18.08-2.4-27.02.66-.68.23-1.37.44-2.06.67Z"/><path class="cls-5" d="M233.74,108.96c-.35.68-.7,1.37-1.05,2.05,1.27,4.64,2.54,9.28,3.84,14.03,1.92-3.33,3.81-6.75,5.83-10.09,10.87-18.08,23.74-34.46,40.02-47.92,13.45-11.12,28.68-17.94,46.13-19.76,4.09-.43,8.06-2.37,11.99-3.89,1.63-.63,3.2-2.18,2.51-4.12-.49-1.37-1.84-2.81-3.17-3.44-5.16-2.44-10.58-1.69-15.91-.62-15.4,3.12-28.73,10.75-41.32,19.85-19.16,13.84-33.99,31.73-46.78,51.51-.57.88-1.38,1.6-2.08,2.4Z"/></svg>