<?xml version="1.0" encoding="UTF-8"?><svg id="Duplicates" xmlns="http://www.w3.org/2000/svg" viewBox="0 0 436.4 325.86"><defs><style>.cls-1{fill:#22084c;}.cls-2{stroke:#c6c6c6;stroke-width:1.24px;}.cls-2,.cls-3{fill:none;stroke-miterlimit:10;}.cls-3{stroke:#f9cc69;stroke-width:.93px;}.cls-4{fill:#fff4dc;}.cls-5{fill:#593d00;}</style></defs><rect class="cls-1" x=".48" y="-.07" width="436.56" height="325.98"/><line class="cls-2" x1="225.82" y1="278.43" x2="225.82" y2="252.39"/><line class="cls-2" x1="213.42" y1="278.43" x2="213.42" y2="252.39"/><ellipse class="cls-2" cx="219" cy="142.01" rx="9.3" ry="7.44"/><path class="cls-2" d="M213.42,252.39h-4.96c-.42,0-.83-.01-1.24-.06v21.15c0,3.41-2.79,6.2-6.2,6.2h-1.24c-3.41,0-6.2-2.79-6.2-6.2v-32.25c0-.5.06-.98.17-1.44-.11-.74-.17-1.5-.17-2.28v-21.08h-14.88c-3.41,0-6.2-2.79-6.2-6.2,0-1.71.69-3.25,1.82-4.38,1.13-1.13,2.67-1.82,4.38-1.82h14.88v-39.69c0-8.19,6.7-14.88,14.88-14.88h22.32c8.19,0,14.88,6.7,14.88,14.88v39.71c1.03-.79,2.32-1.26,3.72-1.26h16.12c3.41,0,6.2,2.79,6.2,6.2,0,1.71-.69,3.25-1.82,4.38-1.13,1.13-2.67,1.82-4.38,1.82h-16.12c-1.4,0-2.69-.47-3.72-1.27v23.59c0,.78-.06,1.54-.17,2.28.11.46.17.94.17,1.44v32.25c0,3.41-2.79,6.2-6.2,6.2h-1.24c-3.41,0-6.2-2.79-6.2-6.2v-21.15c-.41.05-.82.06-1.24.06h-4.96"/><path class="cls-3" d="M239.22,200.39c0,29.97-7.5,45.36-12.4,53.33-2.94,4.78-1.96,7.44-6.2,7.44-3.81,0-4.11-3.67-7.44-7.44-6.56-7.41-14.88-21.55-14.88-53.33,0-23.97,23.43-55.29,27.28-65.73,3.86-10.44-11.85,6.2-6.2,6.2,5.1,0-9.64-14.57-6.2-6.2,4.19,10.19,26.04,39.41,26.04,65.73Z"/><path class="cls-2" d="M140.25,39.07s81.57,67.47,76.89,89.3c-3.72,17.36,11.16,13.64,2.48-1.24-5.76-9.88,79.37-91.78,79.37-91.78"/><path class="cls-3" d="M221.86,133.42s-5.61,7.44-2.48,7.44c3.72,0-2.48-6.2-2.48-6.2"/><path class="cls-5" d="M129.17,143.77c-5.43.44-10.88,1.4-16.29,1.17-12.5-.53-22.61-11.13-23.46-23.74-.38-5.67-.73-11.38-1.64-16.98-2.75-16.99-9.49-32.48-17.89-47.32-4.2-7.42-9.69-14.23-11.12-23.02,0-1.51,0-3.02,0-4.52,1.8-9.4,7.69-14.71,16.62-16.94,1.9-.48,3.84-.77,5.77-1.16,2.32,0,4.64,0,6.97,0,8.58,1.26,16.66,4.06,24.52,7.71,29.35,13.62,53.57,33.78,73.66,59.12,8.34,10.52,15.81,21.67,22.15,33.56-.7-.79-1.5-1.51-2.07-2.39-12.74-19.69-27.51-37.51-46.59-51.29-12.54-9.06-25.81-16.66-41.15-19.76-5.31-1.07-10.71-1.82-15.85.61-1.32.63-2.67,2.06-3.15,3.42-.69,1.93.87,3.47,2.5,4.1,3.91,1.51,7.86,3.45,11.94,3.88,17.38,1.81,32.55,8.6,45.94,19.68,16.21,13.4,29.03,29.72,39.85,47.72,2,3.34,3.89,6.74,5.8,10.05,1.3-4.73,2.56-9.35,3.83-13.97M130.81,193.87,209.27,211.29c-.28-.02-.56-.04-.84-.06-.35.73-.77,1.45-1.05,2.21-4.97,13.66-9.93,27.31-14.86,40.98-2.83,7.85-5.26,15.87-9.91,22.93-7.87,11.95-20.72,16.73-34.26,12.54-2.34-.72-3.32.25-4.26,2.11-4.41,8.8-10.53,15.99-19.33,20.6l-.99-.08c.79-1.25,1.44-2.63,2.41-3.72,5.19-5.84,8.65-12.6,11.06-20.01.77-2.36,0-3.6-1.7-5.12-3.7-3.31-7.68-6.52-10.57-10.49-9.72-13.35-14.33-28.59-14.13-45.12.18-15.41,6.79-27.01,21.21-33.38.39-.17.72-.47,1.62-1.06M305.74,199.92c.53.87,1.18,1.31,1.86,1.72,10.91,6.64,16.91,16.17,16.91,29.26,0,10.26-1.84,20.17-5.99,29.51-5.3,11.92-12.21,22.6-23.83,29.37-.71.41-1.26,1.95-1.12,2.84,1.38,8.59,5.05,16.19,10.17,23.13.64.86.86,2.04,1.27,3.07h-1.49c-.34-.35-.64-.76-1.03-1.04-7.47-5.34-12.55-12.58-15.98-21.03-.99-2.44-2.34-2.74-4.79-2.49-4.16.42-8.5.83-12.56.1-11.19-2.01-18.37-9.34-22.33-19.7-2.67-6.99-4.55-14.31-6.56-21.55-3.59-12.95-7.01-25.96-10.52-38.93-.26-.95-.75-1.84-1.13-2.75-.23.05-.46.11-.68.16M227.04,129.2c.76-1.25,1.11-1.79,1.43-2.35,11.27-19.76,24.38-38.03,41.5-53.17,13.98-12.37,29.89-20.11,48.51-22.19,3.94-.44,7.85-2.01,11.53-3.62,1.44-.63,3.02-2.82,3.02-4.3,0-1.23-2.03-2.9-3.52-3.6-4.19-1.97-8.7-1.84-13.16-1-13.15,2.48-25.04,8.03-36.13,15.41-20.45,13.62-37.76,30.43-50.69,51.61-1.73,2.83-3.48,5.65-5.23,8.48.33-.84.59-1.72,1.01-2.52,7.62-14.56,16.95-27.92,27.65-40.33,16.54-19.18,35.69-35.08,58.05-46.88,10.73-5.66,21.82-10.4,33.92-12.26,2.32,0,4.64,0,6.97,0,.3.12.59.32.9.36,10.79,1.34,18.56,6.32,21,17.74,0,1.84,0,3.69,0,5.53-1.47,3.52-2.75,7.13-4.46,10.52-1.73,3.42-3.87,6.62-5.85,9.9-11.87,19.67-19.4,40.77-20.45,63.97-.76,16.71-13.8,27.91-30.28,25.91M192.64,196.46c0,.19-.01.38-.02.57-.89.15-1.77.32-2.66.46-17.17,2.72-33.53,7.8-48.59,16.79-4.56,2.72-8.13,6.3-10.48,11.09-2.72,5.56-3.42,11.34-1.69,17.31,1.47,5.04,5.39,6.15,9.29,2.65,1.6-1.44,2.94-3.18,4.48-4.71,4.31-4.28,8.58-8.6,13.04-12.71,1.82-1.68,4.11-2.84,6.18-4.24.12.19.25.38.37.57-.64.46-1.27.91-1.91,1.37-9.37,6.7-16.71,15.11-20.46,26.18-1.39,4.11-1.8,8.6-2.35,12.96-.25,1.97.7,3.82,2.67,4.7,2.01.9,3.71-.02,5.26-1.26.58-.46,1.17-.99,1.57-1.61,1.79-2.8,3.75-5.53,5.22-8.51,3.92-7.95,7.79-15.91,13.77-22.57.49-.55,1.03-1.05,1.55-1.57,0,.75-.29,1.23-.63,1.67-4.07,5.25-7.42,10.95-9.19,17.38-1.02,3.73-1.67,7.69-1.65,11.55.03,3.63,1.44,7.16,5.21,8.74,3.69,1.54,6.53-.57,9.29-2.68.46-.35.87-.78,1.28-1.19,4.95-4.86,8.45-10.69,11.38-16.94,7.26-15.42,14.74-30.72,24.5-44.76.57-.82.84-2,.87-3.03.09-2.42-.14-4.85-.06-7.28.07-1.93-.93-2.62-2.57-3.05-15.28-4.04-30.74-4.8-46.33-2.27-9.51,1.54-18.92,3.55-27.19,8.99-2.67,1.76-5.12,3.76-6.31,6.89-1.48,3.87.84,7.12,4.92,6.59,2-.26,4.04-1.01,5.83-1.98,13.43-7.27,27.74-11.84,42.7-14.41,4.2-.72,8.46-1.15,12.69-1.71ZM273.84,227.96c5.14,3.06,9.33,7.18,13.12,11.71,3.09,3.7,5.79,7.76,9.04,11.3,3.23,3.53,7.28,2.48,8.98-1.95,3.86-10.11.19-22.4-8.56-28.63-14.11-10.05-29.7-16.78-46.36-21.1-1.64-.42-3.28-.84-4.92-1.26.58-.4,1.08-.42,1.55-.33,11.62,2.37,23.11,5.3,33.85,10.45,7.09,3.39,13.87,7.42,20.81,11.13,3.96,2.12,6.8,2.01,8.64-.23,1.73-2.11,1.18-5.21-1.58-8.61-3.07-3.79-7.08-6.26-11.45-8.19-20.33-8.99-41.53-11.49-63.43-8.44-3.82.53-3.81.6-4.21,4.44-.18,1.75-.56,3.5-.52,5.24.04,1.6.11,3.44.87,4.76,6.85,11.8,12.37,24.22,17.07,37.02,2.91,7.92,5.62,15.97,10.53,22.89,1.99,2.8,4.51,5.37,7.25,7.41,3.52,2.62,7.38,1.74,9.56-2.1,1.31-2.31,2.34-5.12,2.42-7.74.29-9.61-3.3-18.12-8.18-26.16-.4-.66-.76-1.34-1.14-2.01.89.39,1.41,1.02,1.89,1.68,4.63,6.4,7.88,13.51,10.74,20.86,1.45,3.71,3.2,7.34,5.2,10.79,1.32,2.29,3.26,4.45,6.38,3.83,2.34-.46,3.61-3.1,3.64-7.01.08-8.64-2.68-16.41-7.14-23.66-3.79-6.16-8.63-11.39-14.04-16.12ZM209.42,138.63c-.63-1.11-3.35-3.17-3.73-3.64-13.18-16.3-28.81-29.5-47.86-38.31-9.65-4.46-19.69-6.89-30.4-5.44-5.59.76-10.62,2.6-14.26,7.24-1.85,2.36-2.85,4.92-1.48,7.91,1.42,3.1,3.99,4.55,7.22,4.28,3.03-.26,6-1.09,9.01-1.63,4.91-.89,9.82-1.75,14.73-2.63.04.25.08.49.12.74-.39.07-.78.09-1.16.21-6.24,1.85-12.72,3.17-18.67,5.72-7.1,3.04-7.22,8.85-.84,13.33.34.24.68.48,1.05.68,10.52,5.68,21.9,8.09,33.59,6.8,13.7-1.51,27.23-2.2,40.75.98,2.95.7,8.38,2.9,11.93,3.77ZM262.55,136c10.4,1.5,25.55-.39,35.72-3.01,5.57-1.44,10.94-3.41,15.18-7.56,3.12-3.06,2.79-7.11-.7-9.71-.86-.64-1.8-1.25-2.8-1.59-6.46-2.21-12.94-4.34-18.7-6.27,3.29.53,7.44,1.13,11.56,1.9,3.33.62,6.59,1.69,9.94,2.12,3.49.45,6.64-.57,8.38-4.04,1.46-2.9.52-6.32-2.34-9.32-3.58-3.73-8.11-5.33-13.06-6.05-10.99-1.6-26.11,2.83-35.98,7.34M231.57,129.36c11.07-13.17,23.31-24.97,38.58-33.15,13.92-7.46,28.32-11.29,43.9-5.56,1.89.69,3.4.03,4.53-1.62,1.15-1.68,1.1-3.58-.27-4.83-1.79-1.64-3.85-3.25-6.08-4.11-6.23-2.4-12.8-2.55-19.37-1.91-2.61.25-5.19.74-7.79,1.11,2.65-1.17,5.39-2.05,8.2-2.47,5.57-.83,11.25-1.01,16.73-2.22,3.69-.81,7.4-2.47,10.57-4.57,3.27-2.16,2.83-5.95-.53-8.02-1.66-1.02-3.6-1.73-5.5-2.15-6.43-1.39-12.7-.23-18.85,1.7-12.83,4.04-23.18,12.07-32.81,21.15-14.63,13.81-23.93,28.8-33.78,46.23M151.26,79.64c-.68-.22-1.37-.43-2.05-.66-8.9-3.05-17.94-3.13-26.91-.66-2.66.73-5.16,2.55-7.36,4.33-1.57,1.27-1.7,3.42-.49,5.27,1.19,1.82,2.9,2,4.83,1.33,1.25-.44,2.52-.81,3.8-1.15,12.61-3.35,24.51-.77,35.89,4.82,15.82,7.76,28.81,19.22,40.31,32.5,2.36,2.73,4.57,5.58,6.86,8.37.22-.11.44-.21.65-.32-.43-1.46-.62-3.04-1.32-4.35-9.88-18.25-21.87-34.92-36.93-49.18-9.52-9.02-20.2-16.24-32.85-20.07-6.27-1.9-12.66-2.69-19.1-.89-2.93.82-5.98,2.12-6.38,5.56-.4,3.48,2.64,4.95,5.18,6.34,4.93,2.7,10.38,3.25,15.85,3.65,6.96.51,13.83,1.36,20.02,5.11Z"/><path class="cls-4" d="M192.64,196.46c-4.23.56-8.49.99-12.69,1.71-14.96,2.57-29.27,7.14-42.7,14.41-1.79.97-3.83,1.72-5.83,1.98-4.08.53-6.4-2.71-4.92-6.59,1.19-3.13,3.64-5.14,6.31-6.89,8.27-5.44,17.68-7.44,27.19-8.99,15.59-2.53,31.04-1.77,46.33,2.27,1.64.43,2.63,1.12,2.57,3.05-.08,2.42.15,4.86.06,7.28-.04,1.03-.3,2.21-.87,3.03-9.76,14.03-17.24,29.33-24.5,44.76-2.94,6.24-6.44,12.08-11.38,16.94-.42.41-.82.83-1.28,1.19-2.75,2.11-5.59,4.22-9.29,2.68-3.77-1.58-5.19-5.11-5.21-8.74-.03-3.85.62-7.82,1.65-11.55,1.77-6.43,5.12-12.13,9.19-17.38.34-.44.64-.92.63-1.67-.52.52-1.06,1.02-1.55,1.57-5.97,6.67-9.85,14.62-13.77,22.57-1.46,2.97-3.42,5.7-5.22,8.51-.4.62-.98,1.14-1.57,1.61-1.55,1.24-3.25,2.16-5.26,1.26-1.97-.89-2.92-2.74-2.67-4.7.55-4.36.96-8.84,2.35-12.96,3.75-11.07,11.09-19.49,20.46-26.18.64-.45,1.27-.91,1.91-1.37-.12-.19-.25-.38-.37-.57-2.07,1.4-4.36,2.56-6.18,4.24-4.46,4.11-8.73,8.44-13.04,12.71-1.54,1.52-2.87,3.27-4.48,4.71-3.9,3.5-7.82,2.39-9.29-2.65-1.74-5.97-1.04-11.75,1.69-17.31,2.35-4.8,5.92-8.37,10.48-11.09,15.06-8.99,31.42-14.07,48.59-16.79.89-.14,1.77-.31,2.66-.46,0-.19.01-.38.02-.57Z"/><path class="cls-4" d="M273.84,227.96c5.41,4.72,10.24,9.95,14.04,16.12,4.46,7.24,7.23,15.02,7.14,23.66-.04,3.9-1.3,6.55-3.64,7.01-3.12.61-5.06-1.54-6.38-3.83-1.99-3.45-3.75-7.07-5.2-10.79-2.86-7.35-6.11-14.46-10.74-20.86-.48-.66-1-1.28-1.89-1.68.38.67.75,1.35,1.14,2.01,4.88,8.04,8.47,16.55,8.18,26.16-.08,2.62-1.1,5.43-2.42,7.74-2.18,3.83-6.04,4.72-9.56,2.1-2.74-2.04-5.26-4.62-7.25-7.41-4.92-6.93-7.62-14.97-10.53-22.89-4.7-12.8-10.21-25.22-17.07-37.02-.76-1.32-.83-3.15-.87-4.76-.04-1.74.34-3.49.52-5.24.4-3.85.39-3.91,4.21-4.44,21.9-3.05,43.1-.56,63.43,8.44,4.36,1.93,8.38,4.41,11.45,8.19,2.76,3.4,3.31,6.5,1.58,8.61-1.84,2.24-4.68,2.35-8.64.23-6.94-3.71-13.73-7.74-20.81-11.13-10.75-5.15-22.23-8.07-33.85-10.45-.47-.1-.97-.07-1.55.33,1.64.42,3.28.83,4.92,1.26,16.66,4.32,32.25,11.05,46.36,21.1,8.75,6.23,12.43,18.52,8.56,28.63-1.69,4.43-5.75,5.47-8.98,1.95-3.25-3.55-5.95-7.6-9.04-11.3-3.78-4.53-7.97-8.65-13.12-11.71Z"/><path class="cls-4" d="M228.17,137.71c.3-.55.52-1.16.9-1.61,13.23-15.83,28.34-29.3,47.23-37.93,9.88-4.51,20.08-7.29,31.07-5.69,4.95.72,9.48,2.31,13.06,6.05,2.87,3,3.8,6.41,2.34,9.32-1.74,3.47-4.89,4.48-8.38,4.04-3.35-.43-6.61-1.5-9.94-2.12-4.12-.77-8.27-1.36-11.56-1.9,5.76,1.92,12.24,4.05,18.7,6.27,1,.34,1.95.95,2.8,1.59,3.49,2.61,3.82,6.65.7,9.71-4.24,4.16-9.61,6.13-15.18,7.56-10.17,2.62-20.41,2.85-30.8,1.35-12.72-1.83-25.27-.45-37.62,3.01-.87.24-1.74.47-2.62.68-.12.03-.29-.13-.69-.32Z"/><path class="cls-4" d="M228.08,134.21c.33-1.21.43-2.55,1.02-3.6,9.85-17.43,20.79-34.07,35.42-47.89,9.62-9.08,19.98-17.12,32.81-21.15,6.15-1.93,12.42-3.1,18.85-1.7,1.91.41,3.85,1.13,5.5,2.15,3.36,2.07,3.79,5.87.53,8.02-3.17,2.1-6.88,3.76-10.57,4.57-5.48,1.21-11.16,1.39-16.73,2.22-2.81.42-5.54,1.3-8.2,2.47,2.59-.38,5.18-.86,7.79-1.11,6.57-.64,13.14-.49,19.37,1.91,2.23.86,4.29,2.46,6.08,4.11,1.37,1.26,1.41,3.15.27,4.83-1.12,1.65-2.64,2.31-4.53,1.62-15.58-5.73-29.98-1.9-43.9,5.56-15.27,8.18-27.51,19.98-38.58,33.15-1.44,1.72-2.89,3.43-4.34,5.15-.26-.1-.53-.2-.79-.3Z"/><path class="cls-4" d="M225.69,114.9c.07-.14.15-.29.23-.42,1.74-2.83,3.5-5.65,5.23-8.48,12.93-21.18,30.24-37.98,50.69-51.61,11.09-7.38,22.98-12.93,36.13-15.41,4.47-.84,8.97-.97,13.16,1,1.49.7,3.51,2.37,3.52,3.6,0,1.47-1.58,3.67-3.02,4.3-3.68,1.61-7.59,3.18-11.53,3.62-18.61,2.08-34.53,9.82-48.51,22.19-17.11,15.14-30.22,33.41-41.5,53.17-.32.56-.67,1.1-1.43,2.35-.3-2.01-.42-3.34-.7-4.64-.72-3.23-1.51-6.44-2.28-9.66Z"/><path class="cls-4" d="M206.94,137.17c-3.56-.87-6.5-1.62-9.45-2.31-13.52-3.19-27.05-2.49-40.75-.98-11.7,1.29-23.07-1.12-33.59-6.8-.36-.2-.71-.44-1.05-.68-6.38-4.48-6.27-10.28.84-13.33,5.95-2.55,12.42-3.87,18.67-5.72.37-.11.77-.14,1.16-.21-.04-.25-.08-.49-.12-.74-4.91.87-9.82,1.74-14.73,2.63-3,.54-5.98,1.37-9.01,1.63-3.23.28-5.79-1.18-7.22-4.28-1.37-2.98-.37-5.55,1.48-7.91,3.64-4.64,8.67-6.48,14.26-7.24,10.71-1.45,20.75.98,30.4,5.44,19.05,8.81,34.68,22.01,47.86,38.31.38.48.62,1.07,1.25,2.19Z"/><path class="cls-4" d="M151.26,79.64c-6.19-3.75-13.06-4.6-20.02-5.11-5.47-.4-10.92-.95-15.85-3.65-2.54-1.39-5.58-2.86-5.18-6.34.39-3.43,3.44-4.74,6.38-5.56,6.44-1.79,12.83-1.01,19.1.89,12.65,3.83,23.32,11.05,32.85,20.07,15.06,14.27,27.05,30.93,36.93,49.18.71,1.3.89,2.89,1.32,4.35-.22.11-.44.21-.65.32-2.28-2.79-4.5-5.64-6.86-8.37-11.49-13.29-24.48-24.74-40.31-32.5-11.38-5.58-23.28-8.16-35.89-4.82-1.28.34-2.55.71-3.8,1.15-1.93.67-3.64.49-4.83-1.33-1.21-1.85-1.08-4.01.49-5.27,2.2-1.78,4.7-3.6,7.36-4.33,8.97-2.47,18.01-2.39,26.91.66.68.23,1.37.44,2.05.66Z"/><path class="cls-4" d="M208.45,111.65c.35.68.7,1.36,1.05,2.04-1.27,4.62-2.53,9.24-3.83,13.97-1.91-3.31-3.8-6.72-5.8-10.05-10.82-18-23.64-34.32-39.85-47.72-13.39-11.07-28.56-17.87-45.94-19.68-4.07-.42-8.03-2.36-11.94-3.88-1.63-.63-3.19-2.17-2.5-4.1.49-1.37,1.83-2.8,3.15-3.42,5.14-2.43,10.54-1.69,15.85-.61,15.34,3.11,28.61,10.71,41.15,19.76,19.08,13.79,33.85,31.6,46.59,51.29.57.88,1.38,1.6,2.07,2.39Z"/></svg>