<?xml version="1.0" encoding="UTF-8"?><svg id="Duplicates" xmlns="http://www.w3.org/2000/svg" viewBox="0 0 436.4 325.86"><defs><style>.cls-1{stroke:#f9cc69;stroke-width:.93px;}.cls-1,.cls-2{fill:none;stroke-miterlimit:10;}.cls-3{fill:#22084c;}.cls-4{fill:#fff4dc;}.cls-5{fill:#593d00;}.cls-2{stroke:#c6c6c6;stroke-width:1.24px;}</style></defs><rect class="cls-3" x=".08" y="-.4" width="438" height="327.06"/><line class="cls-2" x1="225.53" y1="276.75" x2="225.53" y2="250.62"/><line class="cls-2" x1="213.09" y1="276.75" x2="213.09" y2="250.62"/><ellipse class="cls-2" cx="218.69" cy="139.87" rx="9.33" ry="7.47"/><path class="cls-2" d="M213.09,250.62h-4.98c-.42,0-.83-.01-1.24-.06v21.22c0,3.42-2.8,6.22-6.22,6.22h-1.24c-3.42,0-6.22-2.8-6.22-6.22v-32.35c0-.5.06-.98.17-1.44-.11-.75-.17-1.51-.17-2.29v-21.15h-14.93c-3.42,0-6.22-2.8-6.22-6.22,0-1.72.7-3.26,1.83-4.39,1.13-1.13,2.68-1.83,4.39-1.83h14.93v-39.82c0-8.21,6.72-14.93,14.93-14.93h22.4c8.21,0,14.93,6.72,14.93,14.93v39.84c1.03-.8,2.33-1.27,3.73-1.27h16.18c3.42,0,6.22,2.8,6.22,6.22,0,1.72-.7,3.26-1.83,4.39-1.13,1.13-2.68,1.83-4.39,1.83h-16.18c-1.41,0-2.7-.47-3.73-1.27v23.67c0,.78-.06,1.54-.17,2.29.11.46.17.95.17,1.44v32.35c0,3.42-2.8,6.22-6.22,6.22h-1.24c-3.42,0-6.22-2.8-6.22-6.22v-21.22c-.41.05-.82.06-1.24.06h-4.98"/><path class="cls-1" d="M219.7,161.18c0,1.24-3.59,4.71-3.73,7.47-.35,6.65,3.47,7.35,2.49,12.44-.04.18-2.43.28-2.49,2.49-.03,1.25,2.54,2.79,2.66,4.47.08,1.15-2.3,2.37-2.21,3.6s2.68,2.53,2.74,3.77c.06,1.11-2.68,2.2-3.07,3.21-.34.88,2.19,1.71,2.29,2.45.13.95-2.12,1.77-2.42,2.41-.62,1.31,4.41,4.81,3.73,6.22-.64,1.33-2.95,3.38-3.6,4.74-.66,1.37,3.01,1.37,2.36,2.72-.69,1.45-.6,1.14-1.24,2.49-.44.93,1.65,2.87,1.24,3.73-.5,1.06-.82,1.58-1.24,2.49-1.11,2.38,1.93,4.52,1.24,4.98-3.73,2.49,2.49,6.22,3.06,8.25.27.96-2.22,2.07-1.82,2.95.46,1,.81,1.59,1.24,2.49s-1,3.11-.64,3.86c.42.87-3.24,4.26-1.85,4.85,1.59.67,8.2-1.5,8.08-1.31-2.95,4.8-1.97,7.47-6.22,7.47-3.82,0-4.12-3.68-7.47-7.47-.19-.22,6.4,1.99,8.1,1.31s-1.48-4.25-1.24-4.98c.21-.63-1.55-2.97-1.24-3.73.37-.93.78-1.43,1.24-2.49s-2.37-1.6-1.89-2.73c2-4.68,4.38-5.98.64-8.47-.65-.44,3.48-.92,1.24-4.98-.72-1.31-.42-1-1.24-2.49-.58-1.05,1.86-2.63,1.24-3.73s-.6-1.34-1.24-2.49c-.76-1.36,2.05-1.53,1.3-2.88-.61-1.09-3.21-3.52-3.79-4.58-.5-.91,4.2-5.36,3.73-6.22-.38-.7-2.76-1.62-2.75-2.69.01-.86,2.46-1.81,2.08-2.82-.33-.89-3.04-1.83-3.05-2.79-.01-1.16,2.49-2.35,2.51-3.53s-2.44-2.44-2.43-3.6c.02-1.64,2.49-3.17,2.4-4.47-.2-2.7-2.43-3.37-2.49-3.73-.65-3.84,2.78-6.49,2.49-11.2-.19-3.09-1.24-6.22-1.24-7.47,0-1.46,1.93-2.64,2.01-3.56.14-1.53,0-4.37-.77-5.15-1.24-1.24-1.24-2.49,0-3.73.88-.88,1.35,1.45,0-3.73-.28-1.08.94-.87,1.1-1.85.81-4.91,4.97-8.61,5.73-10.66,3.87-10.47-11.89,6.22-6.22,6.22,5.11,0-9.68-14.62-6.22-6.22.73,1.77,2.61,7.33,6.22,10.67.63.59.63,1.83.63,1.83,0,1.24-3.73,1.24-1.24,3.73,2.29,2.29.79,2.53,0,3.64-.31.43-1.84,1.66-1.61,5.1.05.68,2.86,2.45,2.86,3.7Z"/><path class="cls-2" d="M139.68,36.59s81.84,67.69,77.15,89.59c-3.73,17.42,11.2,13.69,2.49-1.24-5.78-9.91,79.64-92.08,79.64-92.08"/><path class="cls-1" d="M221.56,131.25s-5.63,7.47-2.49,7.47c3.73,0-2.49-6.22-2.49-6.22"/><path class="cls-5" d="M128.56,141.64c-5.45.44-10.92,1.4-16.34,1.17-12.54-.54-22.68-11.17-23.54-23.82-.38-5.69-.73-11.42-1.64-17.04-2.76-17.04-9.52-32.59-17.95-47.48-4.22-7.45-9.73-14.27-11.16-23.1,0-1.51,0-3.03,0-4.54,1.8-9.43,7.72-14.76,16.68-17,1.91-.48,3.86-.78,5.79-1.16,2.33,0,4.66,0,6.99,0,8.61,1.26,16.72,4.07,24.6,7.73,29.45,13.66,53.74,33.89,73.9,59.32,8.37,10.56,15.86,21.74,22.22,33.67-.7-.8-1.51-1.52-2.08-2.4-12.78-19.76-27.6-37.63-46.74-51.46-12.58-9.09-25.89-16.71-41.28-19.83-5.32-1.08-10.75-1.82-15.9.62-1.33.63-2.68,2.06-3.16,3.44-.69,1.94.88,3.48,2.51,4.11,3.92,1.52,7.89,3.46,11.98,3.89,17.44,1.81,32.66,8.63,46.09,19.74,16.26,13.44,29.13,29.81,39.98,47.88,2.01,3.35,3.91,6.76,5.82,10.09,1.3-4.75,2.57-9.38,3.84-14.02M130.21,191.91,208.92,209.39c-.28-.02-.56-.04-.84-.06-.35.74-.77,1.45-1.05,2.21-4.98,13.7-9.96,27.4-14.91,41.12-2.84,7.88-5.27,15.92-9.94,23.01-7.9,11.99-20.79,16.79-34.37,12.58-2.35-.73-3.33.25-4.27,2.12-4.42,8.83-10.57,16.04-19.4,20.67l-1-.08c.8-1.25,1.45-2.63,2.42-3.73,5.21-5.86,8.68-12.64,11.09-20.08.77-2.37,0-3.61-1.7-5.14-3.71-3.32-7.7-6.54-10.6-10.53-9.75-13.39-14.37-28.68-14.18-45.27.18-15.46,6.81-27.1,21.28-33.49.39-.17.73-.47,1.63-1.06M305.71,197.97c.53.87,1.19,1.31,1.87,1.73,10.95,6.66,16.97,16.22,16.97,29.36,0,10.29-1.85,20.24-6.01,29.61-5.31,11.96-12.25,22.68-23.91,29.47-.71.41-1.27,1.96-1.12,2.85,1.38,8.62,5.07,16.24,10.2,23.21.64.86.86,2.04,1.27,3.08-.5,0-1,0-1.5,0-.34-.35-.64-.77-1.03-1.05-7.5-5.36-12.59-12.62-16.03-21.1-.99-2.45-2.35-2.75-4.81-2.5-4.17.43-8.52.83-12.6.1-11.23-2.02-18.43-9.37-22.4-19.76-2.68-7.02-4.57-14.36-6.58-21.62-3.6-13-7.03-26.04-10.56-39.06-.26-.95-.75-1.84-1.13-2.76-.23.05-.46.11-.69.16M226.75,127.02c.77-1.25,1.12-1.79,1.44-2.35,11.31-19.83,24.46-38.16,41.63-53.34,14.03-12.41,29.99-20.18,48.67-22.26,3.95-.44,7.87-2.01,11.56-3.63,1.44-.63,3.03-2.83,3.03-4.31,0-1.24-2.04-2.91-3.53-3.61-4.21-1.98-8.72-1.84-13.21-1-13.19,2.48-25.13,8.05-36.25,15.46-20.52,13.67-37.88,30.53-50.86,51.78-1.74,2.84-3.5,5.67-5.25,8.51.33-.84.6-1.73,1.02-2.53,7.65-14.6,17-28.01,27.74-40.46,16.6-19.25,35.81-35.2,58.25-47.03,10.76-5.68,21.9-10.44,34.03-12.3,2.33,0,4.66,0,6.99,0,.3.12.59.32.9.36,10.82,1.35,18.62,6.34,21.07,17.8,0,1.85,0,3.7,0,5.55-1.47,3.53-2.76,7.15-4.48,10.55-1.73,3.43-3.89,6.64-5.87,9.93-11.91,19.74-19.46,40.91-20.52,64.18-.76,16.77-13.84,28.01-30.38,25.99M192.24,194.5c0,.19-.01.38-.02.58-.89.16-1.78.32-2.67.46-17.23,2.73-33.64,7.83-48.75,16.84-4.57,2.73-8.15,6.32-10.51,11.13-2.73,5.57-3.43,11.38-1.69,17.36,1.47,5.06,5.41,6.17,9.32,2.66,1.61-1.45,2.95-3.19,4.49-4.72,4.33-4.29,8.61-8.63,13.09-12.75,1.83-1.68,4.12-2.85,6.2-4.26.13.19.25.38.38.58-.64.46-1.28.91-1.92,1.37-9.4,6.72-16.77,15.16-20.53,26.27-1.4,4.13-1.81,8.63-2.36,13-.25,1.97.71,3.83,2.68,4.72,2.02.91,3.73-.02,5.28-1.27.58-.47,1.17-.99,1.57-1.61,1.8-2.81,3.76-5.55,5.23-8.53,3.93-7.98,7.82-15.96,13.81-22.65.49-.55,1.04-1.05,1.56-1.57,0,.76-.29,1.24-.63,1.68-4.08,5.27-7.45,10.99-9.22,17.44-1.03,3.74-1.68,7.72-1.65,11.58.03,3.64,1.45,7.19,5.23,8.77,3.71,1.55,6.56-.57,9.32-2.69.46-.35.87-.78,1.29-1.19,4.96-4.87,8.47-10.73,11.42-16.99,7.28-15.47,14.79-30.82,24.58-44.9.57-.82.84-2.01.88-3.04.09-2.43-.14-4.87-.06-7.3.07-1.93-.93-2.63-2.58-3.06-15.33-4.05-30.84-4.82-46.48-2.28-9.54,1.55-18.98,3.56-27.28,9.01-2.68,1.76-5.14,3.77-6.33,6.91-1.48,3.89.85,7.14,4.94,6.61,2-.26,4.05-1.01,5.85-1.98,13.47-7.3,27.83-11.88,42.84-14.46,4.22-.73,8.49-1.15,12.73-1.72ZM273.71,226.11c5.16,3.07,9.36,7.2,13.16,11.75,3.1,3.72,5.81,7.78,9.07,11.34,3.24,3.54,7.31,2.49,9.01-1.95,3.88-10.15.19-22.48-8.59-28.73-14.15-10.08-29.79-16.84-46.51-21.17-1.64-.43-3.29-.84-4.94-1.26.58-.4,1.08-.43,1.55-.33,11.66,2.38,23.18,5.32,33.97,10.48,7.11,3.4,13.92,7.45,20.88,11.17,3.97,2.12,6.82,2.02,8.67-.23,1.74-2.12,1.19-5.22-1.58-8.64-3.08-3.8-7.11-6.29-11.48-8.22-20.4-9.02-41.66-11.52-63.64-8.46-3.83.53-3.82.6-4.23,4.46-.18,1.75-.56,3.51-.52,5.26.04,1.61.11,3.46.87,4.78,6.88,11.84,12.41,24.3,17.13,37.14,2.92,7.95,5.63,16.02,10.57,22.97,1.99,2.81,4.52,5.39,7.27,7.44,3.54,2.63,7.4,1.74,9.59-2.1,1.32-2.31,2.34-5.14,2.42-7.76.29-9.64-3.32-18.18-8.21-26.24-.4-.66-.77-1.34-1.15-2.02.89.4,1.42,1.02,1.9,1.68,4.65,6.42,7.9,13.56,10.78,20.93,1.45,3.73,3.21,7.37,5.21,10.82,1.33,2.3,3.27,4.46,6.4,3.84,2.35-.46,3.62-3.11,3.66-7.03.08-8.67-2.69-16.47-7.17-23.74-3.81-6.18-8.66-11.43-14.08-16.17ZM209.08,136.48c-.63-1.12-3.36-3.18-3.75-3.66-13.23-16.35-28.91-29.6-48.02-38.43-9.68-4.48-19.75-6.91-30.5-5.46-5.61.76-10.66,2.61-14.31,7.26-1.86,2.36-2.86,4.94-1.49,7.93,1.43,3.11,4.01,4.57,7.24,4.29,3.04-.26,6.02-1.09,9.04-1.64,4.92-.89,9.85-1.76,14.78-2.64.04.25.08.49.12.74-.39.07-.79.1-1.16.21-6.27,1.86-12.76,3.18-18.73,5.74-7.12,3.05-7.24,8.87-.84,13.37.34.24.69.48,1.05.68,10.56,5.7,21.97,8.12,33.71,6.83,13.74-1.51,27.32-2.21,40.88.99,2.96.7,8.4,2.91,11.97,3.78ZM262.39,133.85c10.43,1.5,25.63-.39,35.83-3.02,5.59-1.44,10.98-3.42,15.23-7.59,3.13-3.07,2.8-7.13-.7-9.74-.86-.64-1.81-1.25-2.81-1.6-6.48-2.22-12.98-4.36-18.76-6.29,3.31.54,7.47,1.13,11.6,1.9,3.34.62,6.61,1.7,9.97,2.13,3.5.45,6.66-.57,8.41-4.05,1.46-2.91.53-6.34-2.35-9.35-3.59-3.75-8.13-5.34-13.1-6.07-11.03-1.61-26.19,2.84-36.1,7.36M231.3,127.18c11.11-13.22,23.39-25.06,38.71-33.26,13.97-7.48,28.42-11.33,44.05-5.58,1.89.7,3.42.03,4.54-1.62,1.15-1.69,1.1-3.59-.27-4.85-1.8-1.65-3.86-3.26-6.1-4.12-6.25-2.41-12.84-2.56-19.44-1.92-2.62.25-5.21.74-7.81,1.12,2.66-1.18,5.41-2.06,8.23-2.48,5.59-.83,11.29-1.02,16.79-2.23,3.71-.82,7.42-2.48,10.61-4.58,3.28-2.16,2.84-5.97-.53-8.05-1.66-1.02-3.61-1.74-5.52-2.15-6.45-1.4-12.75-.23-18.91,1.71-12.87,4.05-23.26,12.11-32.92,21.22-14.68,13.86-24.01,28.89-33.9,46.38M150.72,77.3c-.69-.22-1.38-.43-2.06-.66-8.93-3.06-18-3.14-27-.66-2.67.74-5.17,2.56-7.38,4.35-1.57,1.27-1.71,3.43-.49,5.29,1.2,1.82,2.91,2.01,4.84,1.33,1.25-.44,2.53-.81,3.82-1.15,12.65-3.36,24.59-.77,36.01,4.83,15.88,7.79,28.91,19.28,40.44,32.61,2.37,2.73,4.59,5.6,6.88,8.4.22-.11.44-.21.66-.32-.43-1.46-.62-3.05-1.33-4.36-9.91-18.31-21.94-35.03-37.05-49.35-9.56-9.05-20.27-16.29-32.96-20.13-6.29-1.91-12.7-2.7-19.16-.9-2.94.82-6,2.13-6.4,5.57-.4,3.5,2.65,4.96,5.2,6.36,4.95,2.71,10.42,3.26,15.9,3.66,6.98.51,13.88,1.36,20.09,5.13Z"/><path class="cls-4" d="M192.24,194.5c-4.25.56-8.51.99-12.73,1.72-15.01,2.58-29.37,7.17-42.84,14.46-1.79.97-3.84,1.72-5.85,1.98-4.09.53-6.42-2.72-4.94-6.61,1.2-3.14,3.66-5.15,6.33-6.91,8.3-5.46,17.74-7.46,27.28-9.01,15.64-2.54,31.15-1.78,46.48,2.28,1.64.43,2.64,1.13,2.58,3.06-.08,2.43.15,4.87.06,7.3-.04,1.03-.3,2.22-.88,3.04-9.79,14.08-17.3,29.43-24.58,44.9-2.95,6.26-6.46,12.12-11.42,16.99-.42.41-.83.84-1.29,1.19-2.76,2.12-5.61,4.24-9.32,2.69-3.79-1.58-5.21-5.13-5.23-8.77-.03-3.86.63-7.84,1.65-11.58,1.77-6.45,5.14-12.17,9.22-17.44.34-.44.64-.92.63-1.68-.52.52-1.06,1.02-1.56,1.57-5.99,6.69-9.88,14.67-13.81,22.65-1.47,2.98-3.44,5.72-5.23,8.53-.4.62-.99,1.15-1.57,1.61-1.56,1.24-3.27,2.17-5.28,1.27-1.98-.89-2.93-2.75-2.68-4.72.55-4.37.97-8.87,2.36-13,3.76-11.11,11.12-19.55,20.53-26.27.64-.46,1.28-.91,1.92-1.37-.13-.19-.25-.38-.38-.58-2.08,1.4-4.37,2.57-6.2,4.26-4.48,4.12-8.76,8.46-13.09,12.75-1.54,1.53-2.88,3.28-4.49,4.72-3.91,3.51-7.85,2.4-9.32-2.66-1.74-5.99-1.04-11.79,1.69-17.36,2.36-4.81,5.94-8.4,10.51-11.13,15.11-9.02,31.53-14.12,48.75-16.84.89-.14,1.78-.31,2.67-.46,0-.19.01-.38.02-.58Z"/><path class="cls-4" d="M273.71,226.11c5.42,4.74,10.28,9.98,14.08,16.17,4.47,7.27,7.25,15.07,7.17,23.74-.04,3.92-1.31,6.57-3.66,7.03-3.13.62-5.08-1.55-6.4-3.84-2-3.46-3.76-7.1-5.21-10.82-2.87-7.37-6.13-14.5-10.78-20.93-.48-.66-1-1.29-1.9-1.68.38.67.75,1.35,1.15,2.02,4.89,8.06,8.5,16.6,8.21,26.24-.08,2.63-1.11,5.45-2.42,7.76-2.19,3.85-6.06,4.73-9.59,2.1-2.75-2.05-5.28-4.63-7.27-7.44-4.93-6.95-7.65-15.02-10.57-22.97-4.72-12.84-10.25-25.3-17.13-37.14-.77-1.32-.83-3.16-.87-4.78-.04-1.75.34-3.5.52-5.26.41-3.86.39-3.92,4.23-4.46,21.98-3.06,43.24-.56,63.64,8.46,4.38,1.94,8.4,4.42,11.48,8.22,2.77,3.42,3.32,6.52,1.58,8.64-1.85,2.24-4.69,2.35-8.67.23-6.96-3.72-13.77-7.77-20.88-11.17-10.78-5.16-22.31-8.1-33.97-10.48-.47-.1-.97-.07-1.55.33,1.65.42,3.29.83,4.94,1.26,16.72,4.34,32.36,11.09,46.51,21.17,8.78,6.25,12.47,18.58,8.59,28.73-1.7,4.44-5.77,5.49-9.01,1.95-3.26-3.56-5.97-7.63-9.07-11.34-3.8-4.55-8-8.68-13.16-11.75Z"/><path class="cls-4" d="M227.89,135.56c.3-.56.52-1.16.9-1.62,13.28-15.88,28.43-29.4,47.39-38.06,9.91-4.53,20.15-7.31,31.18-5.7,4.97.72,9.51,2.32,13.1,6.07,2.88,3.01,3.82,6.43,2.35,9.35-1.75,3.48-4.91,4.5-8.41,4.05-3.36-.43-6.63-1.5-9.97-2.13-4.13-.77-8.3-1.37-11.6-1.9,5.78,1.93,12.28,4.07,18.76,6.29,1,.34,1.95.95,2.81,1.6,3.5,2.61,3.83,6.67.7,9.74-4.25,4.17-9.64,6.15-15.23,7.59-10.2,2.63-20.47,2.86-30.9,1.36-12.76-1.84-25.35-.45-37.74,3.02-.87.24-1.75.47-2.63.68-.12.03-.29-.13-.69-.32Z"/><path class="cls-4" d="M227.8,132.04c.33-1.21.43-2.55,1.03-3.61,9.89-17.49,20.86-34.19,35.54-48.04,9.66-9.11,20.05-17.17,32.92-21.22,6.17-1.94,12.46-3.11,18.91-1.71,1.91.41,3.86,1.13,5.52,2.15,3.37,2.08,3.81,5.89.53,8.05-3.18,2.1-6.9,3.77-10.61,4.58-5.49,1.21-11.2,1.39-16.79,2.23-2.82.42-5.56,1.3-8.23,2.48,2.6-.38,5.2-.86,7.81-1.12,6.6-.64,13.18-.5,19.44,1.92,2.24.86,4.3,2.47,6.1,4.12,1.37,1.26,1.42,3.16.27,4.85-1.12,1.65-2.65,2.32-4.54,1.62-15.63-5.75-30.08-1.91-44.05,5.58-15.32,8.2-27.6,20.04-38.71,33.26-1.45,1.72-2.9,3.44-4.35,5.16-.26-.1-.53-.2-.79-.3Z"/><path class="cls-4" d="M225.41,112.67c.07-.14.15-.29.23-.42,1.75-2.84,3.51-5.66,5.24-8.51,12.98-21.25,30.34-38.11,50.86-51.78,11.12-7.41,23.05-12.98,36.25-15.46,4.48-.84,9-.97,13.21,1,1.49.7,3.52,2.37,3.53,3.61,0,1.48-1.59,3.68-3.03,4.31-3.69,1.62-7.61,3.19-11.56,3.63-18.67,2.08-34.64,9.86-48.67,22.26-17.17,15.19-30.32,33.52-41.63,53.34-.32.56-.67,1.1-1.44,2.35-.3-2.02-.42-3.35-.71-4.65-.72-3.24-1.52-6.46-2.28-9.69Z"/><path class="cls-4" d="M206.59,135.02c-3.57-.87-6.52-1.62-9.48-2.32-13.56-3.2-27.14-2.5-40.88-.99-11.73,1.29-23.15-1.13-33.71-6.83-.37-.2-.71-.44-1.05-.68-6.4-4.5-6.29-10.32.84-13.37,5.97-2.56,12.47-3.88,18.73-5.74.37-.11.77-.14,1.16-.21-.04-.25-.08-.49-.12-.74-4.93.88-9.86,1.74-14.78,2.64-3.01.55-6,1.38-9.04,1.64-3.24.28-5.81-1.18-7.24-4.29-1.38-2.99-.37-5.57,1.49-7.93,3.65-4.65,8.7-6.5,14.31-7.26,10.75-1.45,20.82.98,30.5,5.46,19.11,8.84,34.79,22.08,48.02,38.43.39.48.62,1.08,1.26,2.19Z"/><path class="cls-4" d="M150.72,77.3c-6.21-3.76-13.11-4.62-20.09-5.13-5.49-.4-10.96-.95-15.9-3.66-2.55-1.4-5.6-2.87-5.2-6.36.39-3.44,3.45-4.75,6.4-5.57,6.46-1.8,12.87-1.01,19.16.9,12.69,3.84,23.4,11.08,32.96,20.13,15.11,14.31,27.14,31.04,37.05,49.35.71,1.31.9,2.9,1.33,4.36-.22.11-.44.21-.66.32-2.29-2.8-4.51-5.66-6.88-8.4-11.53-13.33-24.56-24.82-40.44-32.61-11.42-5.6-23.35-8.19-36.01-4.83-1.28.34-2.56.72-3.82,1.15-1.94.68-3.65.49-4.84-1.33-1.22-1.86-1.08-4.02.49-5.29,2.21-1.79,4.71-3.61,7.38-4.35,9-2.48,18.07-2.4,27,.66.68.23,1.37.44,2.06.66Z"/><path class="cls-4" d="M208.1,109.41c.35.68.7,1.37,1.05,2.05-1.27,4.63-2.54,9.27-3.84,14.02-1.91-3.32-3.81-6.74-5.82-10.09-10.86-18.06-23.72-34.43-39.98-47.88-13.44-11.11-28.66-17.93-46.09-19.74-4.09-.42-8.06-2.37-11.98-3.89-1.63-.63-3.2-2.18-2.51-4.11.49-1.37,1.84-2.81,3.16-3.44,5.15-2.44,10.58-1.69,15.9-.62,15.39,3.12,28.71,10.74,41.28,19.83,19.15,13.83,33.96,31.71,46.74,51.46.57.88,1.38,1.6,2.08,2.4Z"/></svg>