<?xml version="1.0" encoding="UTF-8"?><svg id="Duplicates" xmlns="http://www.w3.org/2000/svg" viewBox="0 0 436.4 325.86"><defs><style>.cls-1{fill:#22084c;}.cls-2{fill:#faedcb;}.cls-3{fill:none;stroke:#c6c6c6;stroke-miterlimit:10;stroke-width:1.24px;}.cls-4{fill:#fff4dc;}.cls-5{fill:#593d00;}</style></defs><rect class="cls-1" x="-1.01" y="-1.07" width="437.76" height="326.88"/><line class="cls-3" x1="223.98" y1="289.51" x2="223.98" y2="263.4"/><line class="cls-3" x1="211.55" y1="289.51" x2="211.55" y2="263.4"/><ellipse class="cls-3" cx="217.14" cy="152.71" rx="9.33" ry="7.46"/><path class="cls-3" d="M211.55,263.4h-4.97c-.42,0-.83-.01-1.24-.06v21.2c0,3.42-2.8,6.22-6.22,6.22h-1.24c-3.42,0-6.22-2.8-6.22-6.22v-32.33c0-.5.06-.98.17-1.44-.11-.75-.17-1.5-.17-2.29v-21.14h-14.92c-3.42,0-6.22-2.8-6.22-6.22,0-1.72.7-3.26,1.83-4.39,1.13-1.13,2.67-1.83,4.39-1.83h14.92v-39.8c0-8.21,6.72-14.92,14.92-14.92h22.39c8.21,0,14.92,6.72,14.92,14.92v39.82c1.03-.8,2.33-1.27,3.73-1.27h16.17c3.42,0,6.22,2.8,6.22,6.22,0,1.72-.7,3.26-1.83,4.39-1.13,1.13-2.67,1.83-4.39,1.83h-16.17c-1.41,0-2.7-.47-3.73-1.27v23.65c0,.78-.06,1.54-.17,2.29.11.46.17.95.17,1.44v32.33c0,3.42-2.8,6.22-6.22,6.22h-1.24c-3.42,0-6.22-2.8-6.22-6.22v-21.2c-.41.05-.82.06-1.24.06h-4.97"/><path class="cls-3" d="M140.43,16.61s81.8,67.65,77.11,89.54c-3.73,17.41,11.19,13.68,2.49-1.24-5.78-9.9,79.59-92.03,79.59-92.03"/><rect class="cls-5" x="123.13" y="71.97" width="78.15" height="17.96" transform="translate(127.09 -96.9) rotate(52.31)"/><path class="cls-5" d="M97.9,146.99c-5.45.44-10.92,1.4-16.33,1.17-12.53-.53-22.67-11.16-23.52-23.8-.38-5.69-.73-11.41-1.64-17.03-2.76-17.03-9.51-32.57-17.94-47.45-4.21-7.44-9.72-14.27-11.15-23.09v-4.54c1.8-9.42,7.71-14.75,16.67-16.99,1.91-.48,3.86-.78,5.78-1.16,2.33,0,4.66,0,6.99,0,8.6,1.26,16.71,4.07,24.59,7.73,29.44,13.66,53.71,33.87,73.86,59.29,8.36,10.55,15.85,21.73,22.21,33.65-.7-.8-1.51-1.52-2.08-2.4-12.77-19.74-27.58-37.61-46.72-51.43-12.57-9.08-25.88-16.7-41.26-19.82-5.32-1.08-10.74-1.82-15.89.61-1.33.63-2.67,2.06-3.16,3.43-.69,1.93.88,3.48,2.51,4.11,3.92,1.52,7.89,3.46,11.97,3.89,17.43,1.81,32.64,8.63,46.07,19.73,16.25,13.44,29.11,29.8,39.96,47.85,2.01,3.34,3.91,6.76,5.82,10.08,1.3-4.75,2.57-9.38,3.84-14.01"/><path class="cls-2" d="M178.38,141.83c-.63-1.12-3.36-3.18-3.74-3.65-13.22-16.34-28.89-29.58-47.99-38.41-9.67-4.47-19.74-6.91-30.48-5.46-5.61.76-10.65,2.61-14.3,7.26-1.86,2.36-2.86,4.94-1.49,7.93,1.43,3.11,4,4.57,7.24,4.29,3.03-.26,6.02-1.09,9.03-1.63,4.92-.89,9.85-1.76,14.77-2.63.04.25.08.49.12.74-.39.07-.79.1-1.16.21-6.26,1.86-12.75,3.18-18.72,5.74-7.12,3.05-7.24,8.87-.84,13.37.34.24.68.48,1.05.68,10.55,5.7,21.96,8.11,33.69,6.82,13.74-1.51,27.31-2.21,40.86.99,2.96.7,8.4,2.91,11.97,3.78Z"/><path class="cls-2" d="M120.05,82.68c-.69-.22-1.38-.43-2.06-.66-8.93-3.06-17.99-3.14-26.98-.66-2.67.73-5.17,2.56-7.38,4.34-1.57,1.27-1.71,3.43-.49,5.29,1.2,1.82,2.91,2.01,4.84,1.33,1.25-.44,2.53-.81,3.81-1.15,12.65-3.36,24.58-.77,35.99,4.83,15.87,7.79,28.89,19.27,40.42,32.59,2.36,2.73,4.59,5.59,6.88,8.39.22-.11.44-.21.66-.32-.43-1.46-.62-3.05-1.33-4.36-9.91-18.3-21.93-35.01-37.03-49.32-9.55-9.05-20.26-16.28-32.94-20.12-6.29-1.91-12.7-2.7-19.15-.9-2.94.82-6,2.13-6.39,5.57-.4,3.49,2.64,4.96,5.19,6.36,4.94,2.71,10.41,3.26,15.89,3.66,6.97.51,13.87,1.36,20.07,5.12Z"/><path class="cls-4" d="M175.89,140.37c-3.57-.87-6.52-1.62-9.48-2.32-13.56-3.2-27.12-2.5-40.86-.99-11.73,1.29-23.14-1.13-33.69-6.82-.37-.2-.71-.44-1.05-.68-6.4-4.5-6.28-10.31.84-13.37,5.97-2.56,12.46-3.88,18.72-5.74.37-.11.77-.14,1.16-.21-.04-.25-.08-.49-.12-.74-4.92.88-9.85,1.74-14.77,2.63-3.01.55-6,1.38-9.03,1.63-3.24.28-5.81-1.18-7.24-4.29-1.38-2.99-.37-5.56,1.49-7.93,3.65-4.65,8.69-6.5,14.3-7.26,10.74-1.45,20.81.98,30.48,5.46,19.1,8.83,34.77,22.07,47.99,38.41.39.48.62,1.08,1.25,2.19Z"/><path class="cls-4" d="M120.05,82.68c-6.2-3.76-13.1-4.61-20.07-5.12-5.48-.4-10.95-.95-15.89-3.66-2.55-1.4-5.59-2.86-5.19-6.36.39-3.44,3.45-4.75,6.39-5.57,6.46-1.8,12.86-1.01,19.15.9,12.68,3.84,23.39,11.08,32.94,20.12,15.11,14.31,27.13,31.02,37.03,49.32.71,1.31.9,2.9,1.33,4.36-.22.11-.44.21-.66.32-2.29-2.8-4.51-5.66-6.88-8.39-11.53-13.32-24.55-24.81-40.42-32.59-11.41-5.6-23.34-8.19-35.99-4.83-1.28.34-2.56.72-3.81,1.15-1.94.68-3.65.49-4.84-1.33-1.22-1.86-1.08-4.02.49-5.29,2.21-1.79,4.71-3.61,7.38-4.34,8.99-2.48,18.06-2.4,26.98.66.68.23,1.37.44,2.06.66Z"/><path class="cls-4" d="M177.4,114.77c.35.68.7,1.37,1.05,2.05-1.27,4.63-2.54,9.26-3.84,14.01-1.91-3.32-3.81-6.74-5.82-10.08-10.85-18.05-23.71-34.41-39.96-47.85-13.43-11.1-28.64-17.92-46.07-19.73-4.08-.42-8.05-2.37-11.97-3.89-1.63-.63-3.2-2.18-2.51-4.11.49-1.37,1.84-2.81,3.16-3.43,5.15-2.44,10.57-1.69,15.89-.61,15.38,3.11,28.69,10.74,41.26,19.82,19.14,13.82,33.95,31.69,46.72,51.43.57.88,1.38,1.6,2.08,2.4Z"/><rect class="cls-5" x="237.43" y="72.09" width="78.15" height="17.96" transform="translate(509.72 -88.16) rotate(127.69)"/><path class="cls-5" d="M260.71,127.4c.77-1.25,1.12-1.79,1.44-2.35,11.3-19.82,24.45-38.14,41.61-53.31,14.02-12.4,29.98-20.17,48.64-22.25,3.95-.44,7.87-2.01,11.56-3.63,1.44-.63,3.03-2.83,3.02-4.31,0-1.24-2.03-2.91-3.53-3.61-4.2-1.97-8.72-1.84-13.2-1-13.19,2.48-25.11,8.05-36.23,15.45-20.51,13.66-37.86,30.51-50.83,51.75-1.74,2.84-3.49,5.67-5.24,8.5.33-.84.6-1.73,1.01-2.52,7.64-14.6,16.99-28,27.72-40.44,16.59-19.24,35.79-35.18,58.22-47.01,10.76-5.67,21.88-10.43,34.01-12.29,2.33,0,4.66,0,6.99,0,.3.12.59.32.9.36,10.82,1.35,18.61,6.34,21.06,17.79,0,1.85,0,3.7,0,5.54-1.47,3.53-2.76,7.15-4.48,10.55-1.73,3.43-3.88,6.63-5.87,9.93-11.9,19.73-19.45,40.88-20.51,64.14-.76,16.76-13.83,27.99-30.36,25.98"/><path class="cls-2" d="M296.32,134.22c10.42,1.5,25.62-.39,35.81-3.02,5.59-1.44,10.97-3.42,15.22-7.59,3.13-3.07,2.8-7.12-.7-9.74-.86-.64-1.81-1.25-2.81-1.59-6.47-2.22-12.97-4.36-18.75-6.28,3.3.53,7.46,1.13,11.59,1.9,3.34.62,6.61,1.7,9.97,2.13,3.5.45,6.65-.57,8.4-4.05,1.46-2.91.53-6.34-2.35-9.34-3.59-3.75-8.13-5.34-13.09-6.06-11.02-1.61-26.18,2.83-36.08,7.36"/><path class="cls-2" d="M265.25,127.56c11.1-13.21,23.38-25.04,38.69-33.24,13.96-7.48,28.4-11.32,44.02-5.57,1.89.7,3.41.03,4.54-1.62,1.15-1.69,1.1-3.59-.27-4.85-1.8-1.65-3.86-3.25-6.1-4.12-6.25-2.41-12.83-2.56-19.42-1.92-2.61.25-5.21.74-7.81,1.12,2.66-1.18,5.41-2.06,8.22-2.48,5.58-.83,11.29-1.02,16.78-2.23,3.7-.82,7.42-2.48,10.6-4.58,3.27-2.16,2.84-5.97-.53-8.05-1.66-1.02-3.61-1.74-5.52-2.15-6.45-1.4-12.74-.23-18.9,1.71-12.86,4.05-23.25,12.1-32.9,21.21-14.67,13.85-24,28.88-33.88,46.36"/><path class="cls-4" d="M261.84,135.94c.3-.56.52-1.16.9-1.62,13.27-15.87,28.42-29.38,47.36-38.04,9.9-4.53,20.14-7.31,31.16-5.7,4.96.72,9.5,2.32,13.09,6.06,2.88,3,3.81,6.43,2.35,9.34-1.75,3.48-4.91,4.5-8.4,4.05-3.36-.43-6.63-1.5-9.97-2.13-4.13-.77-8.29-1.37-11.59-1.9,5.78,1.93,12.28,4.07,18.75,6.28,1,.34,1.95.95,2.81,1.59,3.5,2.61,3.83,6.67.7,9.74-4.25,4.17-9.63,6.14-15.22,7.59-10.19,2.63-20.46,2.86-30.89,1.36-12.75-1.84-25.34-.45-37.72,3.01-.87.24-1.75.47-2.63.68-.12.03-.29-.13-.69-.32Z"/><path class="cls-4" d="M261.75,132.42c.33-1.21.43-2.55,1.03-3.61,9.88-17.48,20.85-34.17,35.52-48.02,9.65-9.11,20.04-17.16,32.9-21.21,6.16-1.94,12.45-3.11,18.9-1.71,1.91.41,3.86,1.13,5.52,2.15,3.37,2.08,3.8,5.88.53,8.05-3.18,2.1-6.9,3.77-10.6,4.58-5.49,1.21-11.19,1.39-16.78,2.23-2.81.42-5.56,1.3-8.22,2.48,2.6-.38,5.19-.86,7.81-1.12,6.59-.64,13.17-.5,19.42,1.92,2.24.86,4.3,2.47,6.1,4.12,1.37,1.26,1.42,3.16.27,4.85-1.12,1.65-2.65,2.32-4.54,1.62-15.62-5.75-30.06-1.91-44.02,5.57-15.31,8.2-27.58,20.03-38.69,33.24-1.45,1.72-2.9,3.44-4.35,5.16-.26-.1-.53-.2-.79-.3Z"/><path class="cls-4" d="M259.36,113.06c.07-.14.15-.29.23-.42,1.75-2.83,3.51-5.66,5.24-8.5,12.97-21.24,30.32-38.09,50.83-51.75,11.12-7.4,23.04-12.97,36.23-15.45,4.48-.84,8.99-.97,13.2,1,1.49.7,3.52,2.37,3.53,3.61,0,1.48-1.59,3.68-3.02,4.31-3.69,1.62-7.61,3.19-11.56,3.63-18.66,2.08-34.62,9.85-48.64,22.25-17.16,15.18-30.31,33.5-41.61,53.31-.32.56-.67,1.1-1.44,2.35-.3-2.01-.42-3.35-.71-4.65-.72-3.24-1.52-6.46-2.28-9.69Z"/><rect class="cls-5" x="255.81" y="226.32" width="78.15" height="17.96" transform="translate(420.96 -120.27) rotate(70.94)"/><path class="cls-5" d="M360.14,185.88c.53.87,1.19,1.31,1.86,1.72,10.94,6.66,16.96,16.21,16.96,29.34,0,10.29-1.84,20.23-6.01,29.6-5.31,11.95-12.24,22.67-23.9,29.46-.71.41-1.27,1.96-1.12,2.85,1.38,8.62,5.06,16.23,10.2,23.2.64.86.86,2.04,1.27,3.07h-1.5c-.34-.35-.64-.77-1.03-1.05-7.49-5.36-12.58-12.61-16.02-21.08-.99-2.45-2.35-2.75-4.8-2.5-4.17.43-8.52.83-12.59.1-11.22-2.02-18.42-9.37-22.39-19.75-2.68-7.01-4.56-14.35-6.58-21.6-3.6-12.99-7.02-26.03-10.55-39.04-.26-.95-.75-1.84-1.13-2.76-.23.05-.46.11-.69.16"/><path class="cls-2" d="M328.15,213.99c5.16,3.07,9.36,7.2,13.15,11.74,3.1,3.71,5.81,7.78,9.07,11.34,3.24,3.54,7.3,2.49,9-1.95,3.87-10.14.19-22.46-8.59-28.71-14.15-10.08-29.78-16.83-46.49-21.16-1.64-.43-3.29-.84-4.93-1.26.58-.4,1.08-.43,1.55-.33,11.65,2.38,23.17,5.32,33.95,10.48,7.11,3.4,13.91,7.44,20.87,11.16,3.97,2.12,6.82,2.01,8.66-.23,1.74-2.12,1.19-5.22-1.58-8.63-3.08-3.8-7.1-6.28-11.48-8.22-20.39-9.02-41.64-11.52-63.6-8.46-3.83.53-3.82.6-4.22,4.46-.18,1.75-.56,3.51-.52,5.25.04,1.61.11,3.45.87,4.77,6.87,11.83,12.4,24.28,17.12,37.12,2.92,7.94,5.63,16.01,10.56,22.96,1.99,2.81,4.52,5.39,7.27,7.43,3.53,2.63,7.4,1.74,9.59-2.1,1.31-2.31,2.34-5.13,2.42-7.76.29-9.63-3.31-18.17-8.2-26.23-.4-.66-.77-1.34-1.15-2.01.89.4,1.42,1.02,1.9,1.68,4.64,6.42,7.9,13.55,10.77,20.92,1.45,3.72,3.21,7.36,5.21,10.82,1.33,2.3,3.27,4.46,6.4,3.84,2.35-.46,3.62-3.11,3.65-7.03.08-8.67-2.69-16.46-7.16-23.72-3.8-6.18-8.65-11.43-14.08-16.16Z"/><path class="cls-4" d="M328.15,213.99c5.42,4.73,10.27,9.98,14.08,16.16,4.47,7.26,7.25,15.06,7.16,23.72-.04,3.91-1.31,6.56-3.65,7.03-3.13.62-5.07-1.55-6.4-3.84-2-3.45-3.76-7.09-5.21-10.82-2.87-7.37-6.13-14.5-10.77-20.92-.48-.66-1-1.29-1.9-1.68.38.67.75,1.35,1.15,2.01,4.89,8.06,8.49,16.59,8.2,26.23-.08,2.63-1.11,5.45-2.42,7.76-2.19,3.84-6.05,4.73-9.59,2.1-2.75-2.05-5.28-4.63-7.27-7.43-4.93-6.95-7.64-15.02-10.56-22.96-4.72-12.84-10.24-25.29-17.12-37.12-.77-1.32-.83-3.16-.87-4.77-.04-1.75.34-3.5.52-5.25.4-3.86.39-3.92,4.22-4.46,21.96-3.06,43.21-.56,63.6,8.46,4.38,1.94,8.4,4.42,11.48,8.22,2.77,3.41,3.32,6.52,1.58,8.63-1.84,2.24-4.69,2.35-8.66.23-6.96-3.72-13.76-7.76-20.87-11.16-10.78-5.16-22.29-8.1-33.95-10.48-.47-.1-.97-.07-1.55.33,1.64.42,3.29.83,4.93,1.26,16.71,4.33,32.34,11.08,46.49,21.16,8.77,6.25,12.46,18.57,8.59,28.71-1.7,4.44-5.76,5.49-9,1.95-3.26-3.56-5.97-7.62-9.07-11.34-3.79-4.55-8-8.67-13.15-11.74Z"/><rect class="cls-5" x="105.6" y="225.07" width="78.15" height="17.96" transform="translate(413.16 173.76) rotate(109.06)"/><path class="cls-5" d="M159.41,195.65c-.28,0-.56,0-.85.01-.29.76-.65,1.51-.86,2.29-3.83,14.06-7.67,28.11-11.47,42.18-2.18,8.08-3.94,16.29-8.01,23.73-6.88,12.59-19.33,18.43-33.2,15.36-2.4-.53-3.3.52-4.08,2.46-3.68,9.16-9.2,16.85-17.62,22.18h-1c.69-1.31,1.22-2.74,2.1-3.91,4.7-6.26,7.61-13.3,9.4-20.91.57-2.42-.29-3.6-2.12-4.98-3.97-3-8.21-5.88-11.43-9.61-10.82-12.54-16.68-27.39-17.85-43.92-1.09-15.42,4.55-27.55,18.44-35.11.37-.2.68-.53,1.53-1.19"/><path class="cls-2" d="M141.56,182.2c0,.19.02.38.03.57-.87.23-1.74.47-2.62.68-16.93,4.13-32.86,10.57-47.18,20.79-4.33,3.09-7.6,6.97-9.56,11.95-2.26,5.78-2.48,11.62-.26,17.43,1.88,4.91,5.89,5.7,9.5,1.88,1.48-1.57,2.68-3.42,4.09-5.07,3.96-4.63,7.86-9.31,11.98-13.78,1.68-1.83,3.87-3.18,5.83-4.75.14.18.28.36.42.54-.6.51-1.2,1.02-1.8,1.52-8.81,7.46-15.45,16.48-18.28,27.85-1.05,4.23-1.09,8.74-1.28,13.14-.09,1.98,1.02,3.76,3.06,4.48,2.08.74,3.71-.33,5.16-1.69.54-.51,1.09-1.08,1.43-1.73,1.56-2.95,3.29-5.84,4.51-8.93,3.26-8.27,6.48-16.54,11.89-23.69.44-.59.95-1.13,1.42-1.69.07.75-.19,1.26-.49,1.72-3.63,5.59-6.52,11.56-7.75,18.13-.72,3.81-1.04,7.83-.69,11.67.33,3.63,2.03,7.04,5.93,8.31,3.82,1.24,6.48-1.11,9.06-3.44.43-.39.8-.85,1.19-1.29,4.54-5.26,7.56-11.38,9.98-17.86,5.98-16.01,12.19-31.92,20.79-46.75.5-.87.67-2.07.62-3.1-.11-2.43-.54-4.84-.66-7.27-.09-1.93-1.15-2.54-2.82-2.84-15.61-2.78-31.12-2.26-46.49,1.56-9.38,2.33-18.62,5.11-26.43,11.22-2.52,1.97-4.81,4.18-5.74,7.41-1.15,3.99,1.43,7.04,5.46,6.18,1.98-.42,3.95-1.34,5.66-2.46,12.82-8.38,26.74-14.12,41.48-17.93,4.14-1.07,8.36-1.85,12.54-2.76Z"/></svg>